<svg version="1.1" viewBox="0.0 0.0 564.0 444.0" fill="none" stroke="none" stroke-linecap="square" stroke-miterlimit="10" width="564" height="444" xmlns:xlink="http://www.w3.org/1999/xlink" xmlns="http://www.w3.org/2000/svg"><path fill="#ffffff" d="M0 0L564.0 0L564.0 444.0L0 444.0L0 0Z" fill-rule="nonzero"/><path fill="#4285f4" d="M362.0208 66.88257C398.72562 66.88257 434.48822 78.50254 464.183 100.07708L362.0208 240.69128Z" fill-rule="nonzero"/><path fill="#db4437" d="M464.183 100.07708C531.682 149.11795 554.8118 239.20271 519.28766 314.69543L362.0208 240.69128Z" fill-rule="nonzero"/><path fill="#0f9d58" d="M189.58264 262.47528C183.32933 212.97533 198.64989 163.1751 231.64497 125.74952C264.64008 88.32394 312.12744 66.88257 362.0208 66.88257L362.0208 240.69128Z" fill-rule="nonzero"/><path fill="#f4b400" d="M519.28766 314.69543C486.3681 384.653 411.19522 424.45502 334.83115 412.36014C258.46707 400.26526 199.27289 339.1816 189.58264 262.47528L362.0208 240.69128Z" fill-rule="nonzero"/><path fill="#ffffff" d="M396.81815 113.42656L395.55252 113.42656L395.55252 105.004684L392.99002 105.92656L392.99002 104.785934L396.61502 103.42656L396.81815 103.42656L396.81815 113.42656ZM406.89627 109.17656Q406.89627 111.39531 406.13065 112.48906Q405.38065 113.567184 403.77127 113.567184Q402.17752 113.567184 401.4119 112.52031Q400.64627 111.45781 400.61502 109.348434L400.61502 107.660934Q400.61502 105.473434 401.36502 104.410934Q402.13065 103.33281 403.75565 103.33281Q405.36502 103.33281 406.11502 104.36406Q406.88065 105.39531 406.89627 107.535934L406.89627 109.17656ZM405.63065 107.45781Q405.63065 105.848434 405.17752 105.11406Q404.74002 104.379684 403.75565 104.379684Q402.7869 104.379684 402.33377 105.11406Q401.89627 105.83281 401.88065 107.348434L401.88065 109.379684Q401.88065 110.98906 402.3494 111.77031Q402.81815 112.535934 403.77127 112.535934Q404.70877 112.535934 405.1619 111.817184Q405.61502 111.08281 405.63065 109.52031L405.63065 107.45781ZM408.55252 105.379684Q408.55252 104.48906 409.11502 103.910934Q409.69315 103.33281 410.58377 103.33281Q411.50565 103.33281 412.06815 103.92656Q412.63065 104.504684 412.63065 105.42656L412.63065 105.910934Q412.63065 106.817184 412.05252 107.39531Q411.49002 107.95781 410.5994 107.95781Q409.70877 107.95781 409.13065 107.39531Q408.55252 106.817184 408.55252 105.86406L408.55252 105.379684ZM409.49002 105.910934Q409.49002 106.442184 409.7869 106.785934Q410.0994 107.129684 410.5994 107.129684Q411.08377 107.129684 411.38065 106.80156Q411.67752 106.473434 411.67752 105.879684L411.67752 105.379684Q411.67752 104.848434 411.38065 104.504684Q411.0994 104.160934 410.58377 104.160934Q410.08377 104.160934 409.7869 104.504684Q409.49002 104.848434 409.49002 105.410934L409.49002 105.910934ZM413.39627 110.98906Q413.39627 110.08281 413.95877 109.52031Q414.5369 108.942184 415.42752 108.942184Q416.33377 108.942184 416.89627 109.52031Q417.4744 110.08281 417.4744 111.035934L417.4744 111.52031Q417.4744 112.410934 416.89627 112.98906Q416.33377 113.567184 415.44315 113.567184Q414.56815 113.567184 413.9744 113.004684Q413.39627 112.42656 413.39627 111.473434L413.39627 110.98906ZM414.3494 111.52031Q414.3494 112.05156 414.64627 112.410934Q414.94315 112.754684 415.44315 112.754684Q415.94315 112.754684 416.24002 112.410934Q416.5369 112.067184 416.5369 111.48906L416.5369 110.98906Q416.5369 110.442184 416.2244 110.098434Q415.92752 109.754684 415.44315 109.754684Q414.94315 109.754684 414.64627 110.098434Q414.3494 110.442184 414.3494 111.02031L414.3494 111.52031ZM410.89627 112.67656L410.17752 112.223434L415.0369 104.442184L415.75565 104.89531L410.89627 112.67656Z" fill-rule="nonzero"/><path fill="#ffffff" d="M489.12003 211.10547L482.6044 211.10547L482.6044 210.19922L486.0419 206.3711Q486.80753 205.4961 487.1044 204.96484Q487.40128 204.41797 487.40128 203.82422Q487.40128 203.0586 486.9169 202.5586Q486.44815 202.0586 485.6669 202.0586Q484.7294 202.0586 484.19815 202.58984Q483.68253 203.1211 483.68253 204.08984L482.4169 204.08984Q482.4169 202.71484 483.2919 201.8711Q484.18253 201.01172 485.6669 201.01172Q487.05753 201.01172 487.8544 201.7461Q488.6669 202.46484 488.6669 203.6836Q488.6669 205.15234 486.7919 207.1836L484.13565 210.07422L489.12003 210.07422L489.12003 211.10547ZM497.12003 211.10547L490.6044 211.10547L490.6044 210.19922L494.0419 206.3711Q494.80753 205.4961 495.1044 204.96484Q495.40128 204.41797 495.40128 203.82422Q495.40128 203.0586 494.9169 202.5586Q494.44815 202.0586 493.6669 202.0586Q492.7294 202.0586 492.19815 202.58984Q491.68253 203.1211 491.68253 204.08984L490.4169 204.08984Q490.4169 202.71484 491.2919 201.8711Q492.18253 201.01172 493.6669 201.01172Q495.05753 201.01172 495.8544 201.7461Q496.6669 202.46484 496.6669 203.6836Q496.6669 205.15234 494.7919 207.1836L492.13565 210.07422L497.12003 210.07422L497.12003 211.10547ZM498.49503 203.0586Q498.49503 202.16797 499.05753 201.58984Q499.63565 201.01172 500.52628 201.01172Q501.44815 201.01172 502.01065 201.60547Q502.57315 202.1836 502.57315 203.10547L502.57315 203.58984Q502.57315 204.4961 501.99503 205.07422Q501.43253 205.63672 500.5419 205.63672Q499.65128 205.63672 499.07315 205.07422Q498.49503 204.4961 498.49503 203.54297L498.49503 203.0586ZM499.43253 203.58984Q499.43253 204.1211 499.7294 204.46484Q500.0419 204.8086 500.5419 204.8086Q501.02628 204.8086 501.32315 204.48047Q501.62003 204.15234 501.62003 203.5586L501.62003 203.0586Q501.62003 202.52734 501.32315 202.1836Q501.0419 201.83984 500.52628 201.83984Q500.02628 201.83984 499.7294 202.1836Q499.43253 202.52734 499.43253 203.08984L499.43253 203.58984ZM503.33878 208.66797Q503.33878 207.76172 503.90128 207.19922Q504.4794 206.6211 505.37003 206.6211Q506.27628 206.6211 506.83878 207.19922Q507.4169 207.76172 507.4169 208.71484L507.4169 209.19922Q507.4169 210.08984 506.83878 210.66797Q506.27628 211.2461 505.38565 211.2461Q504.51065 211.2461 503.9169 210.6836Q503.33878 210.10547 503.33878 209.15234L503.33878 208.66797ZM504.2919 209.19922Q504.2919 209.73047 504.58878 210.08984Q504.88565 210.4336 505.38565 210.4336Q505.88565 210.4336 506.18253 210.08984Q506.4794 209.7461 506.4794 209.16797L506.4794 208.66797Q506.4794 208.1211 506.1669 207.77734Q505.87003 207.4336 505.38565 207.4336Q504.88565 207.4336 504.58878 207.77734Q504.2919 208.1211 504.2919 208.69922L504.2919 209.19922ZM500.83878 210.35547L500.12003 209.90234L504.9794 202.1211L505.69815 202.57422L500.83878 210.35547Z" fill-rule="nonzero"/><path fill="#000000" d="M333.05026 381.6494L334.42526 381.6494L334.42526 382.68066L333.05026 382.68066L333.05026 384.99316L331.769 384.99316L331.769 382.68066L327.23776 382.68066L327.23776 381.93066L331.6909 375.04004L333.05026 375.04004L333.05026 381.6494ZM328.67526 381.6494L331.769 381.6494L331.769 376.7744L331.6284 377.04004L328.67526 381.6494ZM339.86276 384.99316L338.59714 384.99316L338.59714 376.5713L336.03464 377.49316L336.03464 376.35254L339.65964 374.99316L339.86276 374.99316L339.86276 384.99316ZM343.59714 376.9463Q343.59714 376.05566 344.15964 375.47754Q344.73776 374.8994 345.6284 374.8994Q346.55026 374.8994 347.11276 375.49316Q347.67526 376.0713 347.67526 376.99316L347.67526 377.47754Q347.67526 378.3838 347.09714 378.9619Q346.53464 379.5244 345.644 379.5244Q344.7534 379.5244 344.17526 378.9619Q343.59714 378.3838 343.59714 377.43066L343.59714 376.9463ZM344.53464 377.47754Q344.53464 378.0088 344.8315 378.35254Q345.144 378.6963 345.644 378.6963Q346.1284 378.6963 346.42526 378.36816Q346.72214 378.04004 346.72214 377.4463L346.72214 376.9463Q346.72214 376.41504 346.42526 376.0713Q346.144 375.72754 345.6284 375.72754Q345.1284 375.72754 344.8315 376.0713Q344.53464 376.41504 344.53464 376.97754L344.53464 377.47754ZM348.4409 382.55566Q348.4409 381.6494 349.0034 381.0869Q349.5815 380.5088 350.47214 380.5088Q351.3784 380.5088 351.9409 381.0869Q352.519 381.6494 352.519 382.60254L352.519 383.0869Q352.519 383.97754 351.9409 384.55566Q351.3784 385.1338 350.48776 385.1338Q349.61276 385.1338 349.019 384.5713Q348.4409 383.99316 348.4409 383.04004L348.4409 382.55566ZM349.394 383.0869Q349.394 383.61816 349.6909 383.97754Q349.98776 384.3213 350.48776 384.3213Q350.98776 384.3213 351.28464 383.97754Q351.5815 383.6338 351.5815 383.05566L351.5815 382.55566Q351.5815 382.0088 351.269 381.66504Q350.97214 381.3213 350.48776 381.3213Q349.98776 381.3213 349.6909 381.66504Q349.394 382.0088 349.394 382.5869L349.394 383.0869ZM345.9409 384.24316L345.22214 383.79004L350.0815 376.0088L350.80026 376.4619L345.9409 384.24316Z" fill-rule="nonzero"/><path fill="#ffffff" d="M255.92241 156.63962L249.40678 156.63962L249.40678 155.73337L252.84428 151.90524Q253.60991 151.03024 253.90678 150.499Q254.20366 149.95212 254.20366 149.35837Q254.20366 148.59274 253.71928 148.09274Q253.25053 147.59274 252.46928 147.59274Q251.53178 147.59274 251.00053 148.124Q250.48491 148.65524 250.48491 149.624L249.21928 149.624Q249.21928 148.249 250.09428 147.40524Q250.98491 146.54587 252.46928 146.54587Q253.85991 146.54587 254.65678 147.28024Q255.46928 147.999 255.46928 149.21774Q255.46928 150.6865 253.59428 152.71774L250.93803 155.60837L255.92241 155.60837L255.92241 156.63962ZM263.82867 147.38962L259.70367 156.63962L258.39117 156.63962L262.48492 147.71774L257.10992 147.71774L257.10992 146.6865L263.82867 146.6865L263.82867 147.38962ZM265.29742 148.59274Q265.29742 147.70212 265.85992 147.124Q266.43805 146.54587 267.32867 146.54587Q268.25055 146.54587 268.81305 147.13962Q269.37555 147.71774 269.37555 148.63962L269.37555 149.124Q269.37555 150.03024 268.79742 150.60837Q268.23492 151.17087 267.3443 151.17087Q266.45367 151.17087 265.87555 150.60837Q265.29742 150.03024 265.29742 149.07712L265.29742 148.59274ZM266.23492 149.124Q266.23492 149.65524 266.5318 149.999Q266.8443 150.34274 267.3443 150.34274Q267.82867 150.34274 268.12555 150.01462Q268.42242 149.6865 268.42242 149.09274L268.42242 148.59274Q268.42242 148.0615 268.12555 147.71774Q267.8443 147.374 267.32867 147.374Q266.82867 147.374 266.5318 147.71774Q266.23492 148.0615 266.23492 148.624L266.23492 149.124ZM270.14117 154.20212Q270.14117 153.29587 270.70367 152.73337Q271.2818 152.15524 272.17242 152.15524Q273.07867 152.15524 273.64117 152.73337Q274.2193 153.29587 274.2193 154.249L274.2193 154.73337Q274.2193 155.624 273.64117 156.20212Q273.07867 156.78024 272.18805 156.78024Q271.31305 156.78024 270.7193 156.21774Q270.14117 155.63962 270.14117 154.6865L270.14117 154.20212ZM271.0943 154.73337Q271.0943 155.26462 271.39117 155.624Q271.68805 155.96774 272.18805 155.96774Q272.68805 155.96774 272.98492 155.624Q273.2818 155.28024 273.2818 154.70212L273.2818 154.20212Q273.2818 153.65524 272.9693 153.3115Q272.67242 152.96774 272.18805 152.96774Q271.68805 152.96774 271.39117 153.3115Q271.0943 153.65524 271.0943 154.23337L271.0943 154.73337ZM267.64117 155.88962L266.92242 155.4365L271.7818 147.65524L272.50055 148.10837L267.64117 155.88962Z" fill-rule="nonzero"/><path fill="#4285f4" d="M34.2 78.88257C34.2 82.19627 31.513708 84.88257 28.2 84.88257C24.886292 84.88257 22.2 82.19627 22.2 78.88257C22.2 75.568855 24.886292 72.88257 28.2 72.88257C31.513708 72.88257 34.2 75.568855 34.2 78.88257Z" fill-rule="nonzero"/><path fill="#757575" d="M53.66875 73.21069L49.10625 73.21069L49.10625 85.88257L47.246876 85.88257L47.246876 73.21069L42.684376 73.21069L42.684376 71.66382L53.66875 71.66382L53.66875 73.21069ZM59.95 86.08569Q57.809376 86.08569 56.45 84.67944Q55.10625 83.25757 55.10625 80.89819L55.10625 80.55444Q55.10625 78.99194 55.7 77.75757Q56.309376 76.52319 57.3875 75.82007Q58.465626 75.11694 59.73125 75.11694Q61.79375 75.11694 62.934376 76.47632Q64.075 77.83569 64.075 80.36694L64.075 81.11694L56.91875 81.11694Q56.95 82.67944 57.825 83.64819Q58.7 84.60132 60.04375 84.60132Q61.0125 84.60132 61.66875 84.21069Q62.340626 83.82007 62.840626 83.17944L63.934376 84.03882Q62.60625 86.08569 59.95 86.08569ZM59.73125 76.60132Q58.6375 76.60132 57.8875 77.39819Q57.153126 78.19507 56.98125 79.63257L62.2625 79.63257L62.2625 79.49194Q62.184376 78.11694 61.5125 77.36694Q60.85625 76.60132 59.73125 76.60132ZM72.71562 83.08569Q72.71562 82.35132 72.16875 81.94507Q71.62187 81.53882 70.24687 81.24194Q68.87187 80.94507 68.05937 80.53882Q67.2625 80.13257 66.87187 79.57007Q66.49687 78.99194 66.49687 78.21069Q66.49687 76.91382 67.59062 76.02319Q68.68437 75.11694 70.40312 75.11694Q72.2 75.11694 73.30937 76.05444Q74.43437 76.97632 74.43437 78.41382L72.60625 78.41382Q72.60625 77.67944 71.98125 77.14819Q71.35625 76.60132 70.40312 76.60132Q69.40312 76.60132 68.84062 77.03882Q68.29375 77.46069 68.29375 78.16382Q68.29375 78.80444 68.80937 79.14819Q69.325 79.47632 70.68437 79.78882Q72.04375 80.08569 72.87187 80.50757Q73.71562 80.91382 74.12187 81.50757Q74.52812 82.10132 74.52812 82.94507Q74.52812 84.36694 73.3875 85.22632Q72.2625 86.08569 70.45 86.08569Q69.18437 86.08569 68.2 85.63257Q67.23125 85.17944 66.66875 84.38257Q66.12187 83.57007 66.12187 82.63257L67.93437 82.63257Q67.98125 83.53882 68.65312 84.07007Q69.34062 84.60132 70.45 84.60132Q71.48125 84.60132 72.09062 84.19507Q72.71562 83.77319 72.71562 83.08569ZM79.0125 72.75757L79.0125 75.32007L80.99687 75.32007L80.99687 76.71069L79.0125 76.71069L79.0125 83.25757Q79.0125 83.89819 79.27812 84.22632Q79.54375 84.53882 80.18437 84.53882Q80.49687 84.53882 81.04375 84.41382L81.04375 85.88257Q80.325 86.08569 79.65312 86.08569Q78.45 86.08569 77.825 85.35132Q77.21562 84.61694 77.21562 83.25757L77.21562 76.71069L75.29375 76.71069L75.29375 75.32007L77.21562 75.32007L77.21562 72.75757L79.0125 72.75757ZM85.52812 85.88257L83.73125 85.88257L83.73125 75.32007L85.52812 75.32007L85.52812 85.88257ZM83.575 72.50757Q83.575 72.07007 83.84062 71.77319Q84.12187 71.46069 84.6375 71.46069Q85.16875 71.46069 85.43437 71.77319Q85.71562 72.07007 85.71562 72.50757Q85.71562 72.94507 85.43437 73.24194Q85.16875 73.53882 84.6375 73.53882Q84.12187 73.53882 83.84062 73.24194Q83.575 72.94507 83.575 72.50757ZM90.27812 75.32007L90.34062 76.64819Q91.54375 75.11694 93.49687 75.11694Q96.85625 75.11694 96.87187 78.89819L96.87187 85.88257L95.075 85.88257L95.075 78.88257Q95.05937 77.74194 94.54375 77.19507Q94.04375 76.64819 92.95 76.64819Q92.075 76.64819 91.40312 77.11694Q90.74687 77.58569 90.37187 78.35132L90.37187 85.88257L88.575 85.88257L88.575 75.32007L90.27812 75.32007ZM99.1375 80.50757Q99.1375 78.03882 100.27812 76.58569Q101.41875 75.11694 103.30937 75.11694Q105.24687 75.11694 106.325 76.49194L106.41875 75.32007L108.05937 75.32007L108.05937 85.63257Q108.05937 87.67944 106.84062 88.85132Q105.6375 90.03882 103.575 90.03882Q102.43437 90.03882 101.34062 89.55444Q100.24687 89.07007 99.66875 88.21069L100.60625 87.13257Q101.77812 88.57007 103.45 88.57007Q104.77812 88.57007 105.5125 87.82007Q106.24687 87.08569 106.24687 85.74194L106.24687 84.82007Q105.16875 86.08569 103.29375 86.08569Q101.43437 86.08569 100.27812 84.58569Q99.1375 83.08569 99.1375 80.50757ZM100.95 80.71069Q100.95 82.50757 101.68437 83.52319Q102.41875 84.53882 103.73125 84.53882Q105.45 84.53882 106.24687 82.99194L106.24687 78.16382Q105.41875 76.64819 103.7625 76.64819Q102.43437 76.64819 101.68437 77.67944Q100.95 78.71069 100.95 80.71069Z" fill-rule="nonzero"/><path fill="#db4437" d="M34.2 112.88257C34.2 116.19627 31.513708 118.88257 28.2 118.88257C24.886292 118.88257 22.2 116.19627 22.2 112.88257C22.2 109.568855 24.886292 106.88257 28.2 106.88257C31.513708 106.88257 34.2 109.568855 34.2 112.88257Z" fill-rule="nonzero"/><path fill="#757575" d="M45.73125 114.32007L45.73125 119.88257L43.85625 119.88257L43.85625 105.66382L49.090626 105.66382Q51.434376 105.66382 52.746876 106.85132Q54.075 108.03882 54.075 110.00757Q54.075 112.08569 52.778126 113.21069Q51.48125 114.32007 49.075 114.32007L45.73125 114.32007ZM45.73125 112.78882L49.090626 112.78882Q50.60625 112.78882 51.403126 112.08569Q52.2 111.36694 52.2 110.02319Q52.2 108.75757 51.403126 108.00757Q50.60625 107.24194 49.2 107.21069L45.73125 107.21069L45.73125 112.78882ZM60.028126 117.24194L62.48125 109.32007L64.41875 109.32007L60.16875 121.50757Q59.184376 124.14819 57.04375 124.14819L56.7 124.11694L56.028126 123.99194L56.028126 122.52319L56.5125 122.57007Q57.434376 122.57007 57.934376 122.19507Q58.45 121.82007 58.778126 120.83569L59.184376 119.75757L55.41875 109.32007L57.3875 109.32007L60.028126 117.24194ZM68.0125 106.75757L68.0125 109.32007L69.99687 109.32007L69.99687 110.71069L68.0125 110.71069L68.0125 117.25757Q68.0125 117.89819 68.27812 118.22632Q68.54375 118.53882 69.18437 118.53882Q69.49687 118.53882 70.04375 118.41382L70.04375 119.88257Q69.325 120.08569 68.65312 120.08569Q67.45 120.08569 66.825 119.35132Q66.21562 118.61694 66.21562 117.25757L66.21562 110.71069L64.29375 110.71069L64.29375 109.32007L66.21562 109.32007L66.21562 106.75757L68.0125 106.75757ZM74.37187 110.60132Q75.575 109.11694 77.49687 109.11694Q80.85625 109.11694 80.87187 112.89819L80.87187 119.88257L79.075 119.88257L79.075 112.88257Q79.05937 111.74194 78.54375 111.19507Q78.04375 110.64819 76.95 110.64819Q76.075 110.64819 75.40312 111.11694Q74.74687 111.58569 74.37187 112.35132L74.37187 119.88257L72.575 119.88257L72.575 104.88257L74.37187 104.88257L74.37187 110.60132ZM83.09062 114.50757Q83.09062 112.94507 83.7 111.71069Q84.30937 110.46069 85.3875 109.78882Q86.48125 109.11694 87.8875 109.11694Q90.04375 109.11694 91.37187 110.61694Q92.71562 112.10132 92.71562 114.58569L92.71562 114.71069Q92.71562 116.25757 92.12187 117.49194Q91.52812 118.71069 90.41875 119.39819Q89.325 120.08569 87.90312 120.08569Q85.7625 120.08569 84.41875 118.58569Q83.09062 117.08569 83.09062 114.63257L83.09062 114.50757ZM84.90312 114.71069Q84.90312 116.47632 85.71562 117.53882Q86.54375 118.60132 87.90312 118.60132Q89.27812 118.60132 90.09062 117.52319Q90.90312 116.44507 90.90312 114.50757Q90.90312 112.75757 90.075 111.67944Q89.24687 110.60132 87.8875 110.60132Q86.54375 110.60132 85.71562 111.66382Q84.90312 112.72632 84.90312 114.71069ZM96.27812 109.32007L96.34062 110.64819Q97.54375 109.11694 99.49687 109.11694Q102.85625 109.11694 102.87187 112.89819L102.87187 119.88257L101.075 119.88257L101.075 112.88257Q101.05937 111.74194 100.54375 111.19507Q100.04375 110.64819 98.95 110.64819Q98.075 110.64819 97.40312 111.11694Q96.74687 111.58569 96.37187 112.35132L96.37187 119.88257L94.575 119.88257L94.575 109.32007L96.27812 109.32007Z" fill-rule="nonzero"/><path fill="#f4b400" d="M34.2 146.88257C34.2 150.19627 31.513708 152.88257 28.2 152.88257C24.886292 152.88257 22.2 150.19627 22.2 146.88257C22.2 143.56886 24.886292 140.88257 28.2 140.88257C31.513708 140.88257 34.2 143.56886 34.2 146.88257Z" fill-rule="nonzero"/><path fill="#757575" d="M54.778126 153.88257L52.8875 153.88257L52.8875 147.30444L45.73125 147.30444L45.73125 153.88257L43.85625 153.88257L43.85625 139.66382L45.73125 139.66382L45.73125 145.7732L52.8875 145.7732L52.8875 139.66382L54.778126 139.66382L54.778126 153.88257ZM67.66875 141.2107L63.10625 141.2107L63.10625 153.88257L61.246876 153.88257L61.246876 141.2107L56.684376 141.2107L56.684376 139.66382L67.66875 139.66382L67.66875 141.2107ZM72.27812 139.66382L76.91875 151.25757L81.575 139.66382L83.99687 139.66382L83.99687 153.88257L82.12187 153.88257L82.12187 148.35132L82.30937 142.36694L77.6375 153.88257L76.2 153.88257L71.54375 142.3982L71.73125 148.35132L71.73125 153.88257L69.85625 153.88257L69.85625 139.66382L72.27812 139.66382ZM86.93437 155.10132L85.37187 155.10132L91.30937 139.66382L92.85625 139.66382L86.93437 155.10132ZM105.30937 149.36694Q105.04375 151.63257 103.6375 152.86694Q102.24687 154.0857 99.91875 154.0857Q97.40312 154.0857 95.87187 152.2732Q94.35625 150.4607 94.35625 147.42944L94.35625 146.07007Q94.35625 144.0857 95.05937 142.5857Q95.77812 141.0857 97.075 140.2732Q98.37187 139.4607 100.09062 139.4607Q102.35625 139.4607 103.71562 140.72632Q105.09062 141.99194 105.30937 144.22632L103.41875 144.22632Q103.18437 142.53882 102.35625 141.7732Q101.54375 141.00757 100.09062 141.00757Q98.29375 141.00757 97.2625 142.3357Q96.24687 143.66382 96.24687 146.11694L96.24687 147.49194Q96.24687 149.80444 97.21562 151.17944Q98.18437 152.53882 99.91875 152.53882Q101.48125 152.53882 102.30937 151.8357Q103.15312 151.13257 103.41875 149.36694L105.30937 149.36694ZM112.04375 147.53882Q109.62187 146.85132 108.52812 145.85132Q107.43437 144.8357 107.43437 143.35132Q107.43437 141.66382 108.77812 140.57007Q110.12187 139.4607 112.2625 139.4607Q113.73125 139.4607 114.87187 140.03882Q116.02812 140.60132 116.65312 141.60132Q117.27812 142.5857 117.27812 143.7732L115.40312 143.7732Q115.40312 142.49194 114.575 141.75757Q113.7625 141.00757 112.2625 141.00757Q110.87187 141.00757 110.09062 141.61694Q109.325 142.22632 109.325 143.32007Q109.325 144.17944 110.05937 144.78882Q110.79375 145.38257 112.55937 145.88257Q114.34062 146.38257 115.34062 146.99194Q116.34062 147.5857 116.825 148.38257Q117.30937 149.17944 117.30937 150.2732Q117.30937 151.99194 115.96562 153.03882Q114.62187 154.0857 112.35625 154.0857Q110.90312 154.0857 109.62187 153.5232Q108.35625 152.9607 107.66875 151.99194Q106.98125 151.00757 106.98125 149.75757L108.87187 149.75757Q108.87187 151.05444 109.825 151.80444Q110.77812 152.53882 112.35625 152.53882Q113.84062 152.53882 114.6375 151.94507Q115.43437 151.3357 115.43437 150.28882Q115.43437 149.24194 114.7 148.67944Q113.96562 148.10132 112.04375 147.53882ZM124.04375 147.53882Q121.62187 146.85132 120.52812 145.85132Q119.43437 144.8357 119.43437 143.35132Q119.43437 141.66382 120.77812 140.57007Q122.12187 139.4607 124.2625 139.4607Q125.73125 139.4607 126.87187 140.03882Q128.02812 140.60132 128.65312 141.60132Q129.27812 142.5857 129.27812 143.7732L127.40312 143.7732Q127.40312 142.49194 126.575 141.75757Q125.7625 141.00757 124.2625 141.00757Q122.87187 141.00757 122.09062 141.61694Q121.325 142.22632 121.325 143.32007Q121.325 144.17944 122.05937 144.78882Q122.79375 145.38257 124.55937 145.88257Q126.34062 146.38257 127.34062 146.99194Q128.34062 147.5857 128.825 148.38257Q129.30937 149.17944 129.30937 150.2732Q129.30937 151.99194 127.96562 153.03882Q126.62187 154.0857 124.35625 154.0857Q122.90312 154.0857 121.62187 153.5232Q120.35625 152.9607 119.66875 151.99194Q118.98125 151.00757 118.98125 149.75757L120.87187 149.75757Q120.87187 151.05444 121.825 151.80444Q122.77812 152.53882 124.35625 152.53882Q125.84062 152.53882 126.6375 151.94507Q127.43437 151.3357 127.43437 150.28882Q127.43437 149.24194 126.7 148.67944Q125.96562 148.10132 124.04375 147.53882Z" fill-rule="nonzero"/><path fill="#0f9d58" d="M34.2 180.88257C34.2 184.19627 31.513708 186.88257 28.2 186.88257C24.886292 186.88257 22.2 184.19627 22.2 180.88257C22.2 177.56886 24.886292 174.88257 28.2 174.88257C31.513708 174.88257 34.2 177.56886 34.2 180.88257Z" fill-rule="nonzero"/><path fill="#757575" d="M43.85625 187.88257L43.85625 173.66382L47.871876 173.66382Q49.715626 173.66382 51.1375 174.49194Q52.575 175.30444 53.340626 176.82007Q54.121876 178.3357 54.1375 180.28882L54.1375 181.19507Q54.1375 183.2107 53.35625 184.72632Q52.575 186.24194 51.1375 187.05444Q49.7 187.86694 47.79375 187.88257L43.85625 187.88257ZM45.73125 175.2107L45.73125 186.35132L47.7 186.35132Q49.871876 186.35132 51.075 185.00757Q52.278126 183.6482 52.278126 181.16382L52.278126 180.3357Q52.278126 177.91382 51.1375 176.57007Q49.996876 175.22632 47.91875 175.2107L45.73125 175.2107ZM58.434376 177.32007L58.434376 189.10132Q58.434376 192.1482 55.66875 192.1482Q55.075 192.1482 54.559376 191.97632L54.559376 190.5232Q54.871876 190.60132 55.3875 190.60132Q55.996876 190.60132 56.309376 190.2732Q56.621876 189.9607 56.621876 189.1482L56.621876 177.32007L58.434376 177.32007ZM56.434376 174.50757Q56.434376 174.0857 56.7 173.7732Q56.98125 173.4607 57.496876 173.4607Q58.028126 173.4607 58.29375 173.7732Q58.575 174.07007 58.575 174.50757Q58.575 174.94507 58.29375 175.24194Q58.028126 175.53882 57.496876 175.53882Q56.965626 175.53882 56.7 175.24194Q56.434376 174.94507 56.434376 174.50757ZM68.09062 187.88257Q67.93437 187.57007 67.84062 186.7732Q66.575 188.0857 64.825 188.0857Q63.2625 188.0857 62.2625 187.19507Q61.2625 186.30444 61.2625 184.94507Q61.2625 183.30444 62.5125 182.3982Q63.778126 181.47632 66.04375 181.47632L67.80937 181.47632L67.80937 180.6482Q67.80937 179.69507 67.23125 179.13257Q66.66875 178.57007 65.575 178.57007Q64.60625 178.57007 63.95 179.07007Q63.29375 179.55444 63.29375 180.24194L61.48125 180.24194Q61.48125 179.4607 62.04375 178.72632Q62.60625 177.97632 63.559376 177.55444Q64.52812 177.11694 65.68437 177.11694Q67.5125 177.11694 68.54375 178.03882Q69.575 178.94507 69.62187 180.55444L69.62187 185.41382Q69.62187 186.86694 69.98125 187.72632L69.98125 187.88257L68.09062 187.88257ZM65.09062 186.50757Q65.95 186.50757 66.7 186.07007Q67.46562 185.63257 67.80937 184.92944L67.80937 182.75757L66.3875 182.75757Q63.075 182.75757 63.075 184.69507Q63.075 185.55444 63.6375 186.03882Q64.2 186.50757 65.09062 186.50757ZM74.27812 177.32007L74.34062 178.6482Q75.54375 177.11694 77.49687 177.11694Q80.85625 177.11694 80.87187 180.8982L80.87187 187.88257L79.075 187.88257L79.075 180.88257Q79.05937 179.74194 78.54375 179.19507Q78.04375 178.6482 76.95 178.6482Q76.075 178.6482 75.40312 179.11694Q74.74687 179.5857 74.37187 180.35132L74.37187 187.88257L72.575 187.88257L72.575 177.32007L74.27812 177.32007ZM83.1375 182.50757Q83.1375 180.03882 84.27812 178.5857Q85.41875 177.11694 87.30937 177.11694Q89.24687 177.11694 90.325 178.49194L90.41875 177.32007L92.05937 177.32007L92.05937 187.63257Q92.05937 189.67944 90.84062 190.85132Q89.6375 192.03882 87.575 192.03882Q86.43437 192.03882 85.34062 191.55444Q84.24687 191.07007 83.66875 190.2107L84.60625 189.13257Q85.77812 190.57007 87.45 190.57007Q88.77812 190.57007 89.5125 189.82007Q90.24687 189.0857 90.24687 187.74194L90.24687 186.82007Q89.16875 188.0857 87.29375 188.0857Q85.43437 188.0857 84.27812 186.5857Q83.1375 185.0857 83.1375 182.50757ZM84.95 182.7107Q84.95 184.50757 85.68437 185.5232Q86.41875 186.53882 87.73125 186.53882Q89.45 186.53882 90.24687 184.99194L90.24687 180.16382Q89.41875 178.6482 87.7625 178.6482Q86.43437 178.6482 85.68437 179.67944Q84.95 180.7107 84.95 182.7107ZM94.09062 182.50757Q94.09062 180.94507 94.7 179.7107Q95.30937 178.4607 96.3875 177.78882Q97.48125 177.11694 98.8875 177.11694Q101.04375 177.11694 102.37187 178.61694Q103.71562 180.10132 103.71562 182.5857L103.71562 182.7107Q103.71562 184.25757 103.12187 185.49194Q102.52812 186.7107 101.41875 187.3982Q100.325 188.0857 98.90312 188.0857Q96.7625 188.0857 95.41875 186.5857Q94.09062 185.0857 94.09062 182.63257L94.09062 182.50757ZM95.90312 182.7107Q95.90312 184.47632 96.71562 185.53882Q97.54375 186.60132 98.90312 186.60132Q100.27812 186.60132 101.09062 185.5232Q101.90312 184.44507 101.90312 182.50757Q101.90312 180.75757 101.075 179.67944Q100.24687 178.60132 98.8875 178.60132Q97.54375 178.60132 96.71562 179.66382Q95.90312 180.72632 95.90312 182.7107Z" fill-rule="nonzero"/><path fill="#1e375f" d="M154.46985 39.778126Q154.15735 42.496876 152.46985 43.965626Q150.79797 45.434376 148.0011 45.434376Q144.98547 45.434376 143.15735 43.2625Q141.32922 41.090626 141.32922 37.465626L141.32922 35.825Q141.32922 33.45 142.17297 31.653126Q143.03235 29.840626 144.59485 28.871876Q146.15735 27.903126 148.20422 27.903126Q150.92297 27.903126 152.5636 29.41875Q154.20422 30.934376 154.46985 33.621876L152.20422 33.621876Q151.92297 31.575 150.9386 30.66875Q149.95422 29.746876 148.20422 29.746876Q146.04797 29.746876 144.8136 31.340626Q143.59485 32.934376 143.59485 35.8875L143.59485 37.528126Q143.59485 40.309376 144.7511 41.95Q145.92297 43.590626 148.0011 43.590626Q149.8761 43.590626 150.8761 42.746876Q151.8761 41.8875 152.20422 39.778126L154.46985 39.778126ZM165.40735 43.95Q164.14172 45.434376 161.6886 45.434376Q159.67297 45.434376 158.61047 44.2625Q157.54797 43.075 157.53235 40.7625L157.53235 32.5125L159.70422 32.5125L159.70422 40.715626Q159.70422 43.590626 162.04797 43.590626Q164.53235 43.590626 165.34485 41.746876L165.34485 32.5125L167.51672 32.5125L167.51672 45.2L165.45422 45.2L165.40735 43.95ZM176.70422 34.465626Q176.21985 34.3875 175.64172 34.3875Q173.51672 34.3875 172.7511 36.2L172.7511 45.2L170.57922 45.2L170.57922 32.5125L172.6886 32.5125L172.71985 33.98125Q173.79797 32.278126 175.7511 32.278126Q176.3761 32.278126 176.70422 32.45L176.70422 34.465626ZM184.70422 34.465626Q184.21985 34.3875 183.64172 34.3875Q181.51672 34.3875 180.7511 36.2L180.7511 45.2L178.57922 45.2L178.57922 32.5125L180.6886 32.5125L180.71985 33.98125Q181.79797 32.278126 183.7511 32.278126Q184.3761 32.278126 184.70422 32.45L184.70422 34.465626ZM191.84485 45.434376Q189.26672 45.434376 187.64172 43.746876Q186.03235 42.04375 186.03235 39.215626L186.03235 38.809376Q186.03235 36.91875 186.7511 35.45Q187.46985 33.965626 188.76672 33.121876Q190.0636 32.278126 191.57922 32.278126Q194.04797 32.278126 195.40735 33.91875Q196.78235 35.54375 196.78235 38.575L196.78235 39.48125L188.20422 39.48125Q188.2511 41.35625 189.29797 42.5125Q190.34485 43.66875 191.95422 43.66875Q193.11047 43.66875 193.90735 43.2Q194.70422 42.73125 195.29797 41.95L196.6261 42.98125Q195.03235 45.434376 191.84485 45.434376ZM191.57922 34.059376Q190.26672 34.059376 189.3761 35.028126Q188.48547 35.98125 188.26672 37.7L194.6261 37.7L194.6261 37.528126Q194.53235 35.8875 193.73547 34.98125Q192.9386 34.059376 191.57922 34.059376ZM201.6261 32.5125L201.70422 34.10625Q203.15735 32.278126 205.5011 32.278126Q209.51672 32.278126 209.54797 36.825L209.54797 45.2L207.39172 45.2L207.39172 36.809376Q207.3761 35.434376 206.7511 34.778126Q206.14172 34.121876 204.84485 34.121876Q203.78235 34.121876 202.98547 34.684376Q202.1886 35.246876 201.7511 36.16875L201.7511 45.2L199.57922 45.2L199.57922 32.5125L201.6261 32.5125ZM215.51672 29.45L215.51672 32.5125L217.89172 32.5125L217.89172 34.2L215.51672 34.2L215.51672 42.059376Q215.51672 42.825 215.82922 43.2Q216.15735 43.575 216.92297 43.575Q217.29797 43.575 217.95422 43.434376L217.95422 45.2Q217.09485 45.434376 216.28235 45.434376Q214.82922 45.434376 214.09485 44.559376Q213.36047 43.66875 213.36047 42.059376L213.36047 34.2L211.04797 34.2L211.04797 32.5125L213.36047 32.5125L213.36047 29.45L215.51672 29.45ZM226.92297 45.2L226.92297 28.1375L231.73547 28.1375Q233.96985 28.1375 235.67297 29.121876Q237.39172 30.10625 238.3136 31.91875Q239.2511 33.73125 239.26672 36.090626L239.26672 37.184376Q239.26672 39.590626 238.32922 41.41875Q237.39172 43.23125 235.65735 44.2Q233.9386 45.16875 231.64172 45.2L226.92297 45.2ZM229.17297 29.98125L229.17297 43.35625L231.53235 43.35625Q234.14172 43.35625 235.57922 41.746876Q237.03235 40.121876 237.03235 37.1375L237.03235 36.1375Q237.03235 33.23125 235.65735 31.621876Q234.29797 30.0125 231.79797 29.98125L229.17297 29.98125ZM247.84485 45.434376Q245.26672 45.434376 243.64172 43.746876Q242.03235 42.04375 242.03235 39.215626L242.03235 38.809376Q242.03235 36.91875 242.7511 35.45Q243.46985 33.965626 244.76672 33.121876Q246.0636 32.278126 247.57922 32.278126Q250.04797 32.278126 251.40735 33.91875Q252.78235 35.54375 252.78235 38.575L252.78235 39.48125L244.20422 39.48125Q244.2511 41.35625 245.29797 42.5125Q246.34485 43.66875 247.95422 43.66875Q249.11047 43.66875 249.90735 43.2Q250.70422 42.73125 251.29797 41.95L252.6261 42.98125Q251.03235 45.434376 247.84485 45.434376ZM247.57922 34.059376Q246.26672 34.059376 245.3761 35.028126Q244.48547 35.98125 244.26672 37.7L250.6261 37.7L250.6261 37.528126Q250.53235 35.8875 249.73547 34.98125Q248.9386 34.059376 247.57922 34.059376ZM259.76672 42.2625L262.90735 32.5125L265.1261 32.5125L260.57922 45.2L258.92297 45.2L254.32922 32.5125L256.54797 32.5125L259.76672 42.2625ZM272.84485 45.434376Q270.26672 45.434376 268.64172 43.746876Q267.03235 42.04375 267.03235 39.215626L267.03235 38.809376Q267.03235 36.91875 267.7511 35.45Q268.46985 33.965626 269.76672 33.121876Q271.0636 32.278126 272.57922 32.278126Q275.04797 32.278126 276.40735 33.91875Q277.78235 35.54375 277.78235 38.575L277.78235 39.48125L269.20422 39.48125Q269.2511 41.35625 270.29797 42.5125Q271.34485 43.66875 272.95422 43.66875Q274.11047 43.66875 274.90735 43.2Q275.70422 42.73125 276.29797 41.95L277.6261 42.98125Q276.03235 45.434376 272.84485 45.434376ZM272.57922 34.059376Q271.26672 34.059376 270.3761 35.028126Q269.48547 35.98125 269.26672 37.7L275.6261 37.7L275.6261 37.528126Q275.53235 35.8875 274.73547 34.98125Q273.9386 34.059376 272.57922 34.059376ZM282.9386 45.2L280.76672 45.2L280.76672 27.2L282.9386 27.2L282.9386 45.2ZM286.0011 38.746876Q286.0011 36.871876 286.73547 35.3875Q287.46985 33.903126 288.76672 33.090626Q290.07922 32.278126 291.76672 32.278126Q294.34485 32.278126 295.9386 34.075Q297.54797 35.871876 297.54797 38.840626L297.54797 38.996876Q297.54797 40.85625 296.82922 42.325Q296.1261 43.79375 294.8136 44.621876Q293.5011 45.434376 291.78235 45.434376Q289.20422 45.434376 287.59485 43.6375Q286.0011 41.840626 286.0011 38.8875L286.0011 38.746876ZM288.1886 38.996876Q288.1886 41.10625 289.15735 42.3875Q290.14172 43.66875 291.78235 43.66875Q293.4386 43.66875 294.40735 42.371876Q295.3761 41.075 295.3761 38.746876Q295.3761 36.653126 294.39172 35.35625Q293.40735 34.059376 291.76672 34.059376Q290.15735 34.059376 289.17297 35.340626Q288.1886 36.621876 288.1886 38.996876ZM311.29797 38.996876Q311.29797 41.8875 309.96985 43.66875Q308.64172 45.434376 306.3761 45.434376Q304.07922 45.434376 302.7511 43.965626L302.7511 50.075L300.57922 50.075L300.57922 32.5125L302.5636 32.5125L302.67297 33.91875Q303.98547 32.278126 306.34485 32.278126Q308.6261 32.278126 309.95422 34.0125Q311.29797 35.73125 311.29797 38.79375L311.29797 38.996876ZM309.1261 38.746876Q309.1261 36.60625 308.20422 35.371876Q307.29797 34.121876 305.70422 34.121876Q303.73547 34.121876 302.7511 35.871876L302.7511 41.934376Q303.71985 43.66875 305.71985 43.66875Q307.28235 43.66875 308.20422 42.434376Q309.1261 41.184376 309.1261 38.746876ZM315.6261 32.5125L315.67297 33.91875Q317.07922 32.278126 319.4386 32.278126Q322.09485 32.278126 323.0636 34.325Q323.6886 33.403126 324.70422 32.840626Q325.71985 32.278126 327.11047 32.278126Q331.28235 32.278126 331.34485 36.7L331.34485 45.2L329.17297 45.2L329.17297 36.825Q329.17297 35.465626 328.54797 34.79375Q327.9386 34.121876 326.46985 34.121876Q325.26672 34.121876 324.46985 34.840626Q323.67297 35.559376 323.54797 36.778126L323.54797 45.2L321.36047 45.2L321.36047 36.8875Q321.36047 34.121876 318.65735 34.121876Q316.51672 34.121876 315.73547 35.934376L315.73547 45.2L313.5636 45.2L313.5636 32.5125L315.6261 32.5125ZM339.84485 45.434376Q337.26672 45.434376 335.64172 43.746876Q334.03235 42.04375 334.03235 39.215626L334.03235 38.809376Q334.03235 36.91875 334.7511 35.45Q335.46985 33.965626 336.76672 33.121876Q338.0636 32.278126 339.57922 32.278126Q342.04797 32.278126 343.40735 33.91875Q344.78235 35.54375 344.78235 38.575L344.78235 39.48125L336.20422 39.48125Q336.2511 41.35625 337.29797 42.5125Q338.34485 43.66875 339.95422 43.66875Q341.11047 43.66875 341.90735 43.2Q342.70422 42.73125 343.29797 41.95L344.6261 42.98125Q343.03235 45.434376 339.84485 45.434376ZM339.57922 34.059376Q338.26672 34.059376 337.3761 35.028126Q336.48547 35.98125 336.26672 37.7L342.6261 37.7L342.6261 37.528126Q342.53235 35.8875 341.73547 34.98125Q340.9386 34.059376 339.57922 34.059376ZM349.6261 32.5125L349.70422 34.10625Q351.15735 32.278126 353.5011 32.278126Q357.51672 32.278126 357.54797 36.825L357.54797 45.2L355.39172 45.2L355.39172 36.809376Q355.3761 35.434376 354.7511 34.778126Q354.14172 34.121876 352.84485 34.121876Q351.78235 34.121876 350.98547 34.684376Q350.1886 35.246876 349.7511 36.16875L349.7511 45.2L347.57922 45.2L347.57922 32.5125L349.6261 32.5125ZM363.51672 29.45L363.51672 32.5125L365.89172 32.5125L365.89172 34.2L363.51672 34.2L363.51672 42.059376Q363.51672 42.825 363.82922 43.2Q364.15735 43.575 364.92297 43.575Q365.29797 43.575 365.95422 43.434376L365.95422 45.2Q365.09485 45.434376 364.28235 45.434376Q362.82922 45.434376 362.09485 44.559376Q361.36047 43.66875 361.36047 42.059376L361.36047 34.2L359.04797 34.2L359.04797 32.5125L361.36047 32.5125L361.36047 29.45L363.51672 29.45ZM384.32922 37.66875L377.17297 37.66875L377.17297 45.2L374.92297 45.2L374.92297 28.1375L385.48547 28.1375L385.48547 29.98125L377.17297 29.98125L377.17297 35.825L384.32922 35.825L384.32922 37.66875ZM387.0011 38.746876Q387.0011 36.871876 387.73547 35.3875Q388.46985 33.903126 389.76672 33.090626Q391.07922 32.278126 392.76672 32.278126Q395.34485 32.278126 396.9386 34.075Q398.54797 35.871876 398.54797 38.840626L398.54797 38.996876Q398.54797 40.85625 397.82922 42.325Q397.1261 43.79375 395.8136 44.621876Q394.5011 45.434376 392.78235 45.434376Q390.20422 45.434376 388.59485 43.6375Q387.0011 41.840626 387.0011 38.8875L387.0011 38.746876ZM389.1886 38.996876Q389.1886 41.10625 390.15735 42.3875Q391.14172 43.66875 392.78235 43.66875Q394.4386 43.66875 395.40735 42.371876Q396.3761 41.075 396.3761 38.746876Q396.3761 36.653126 395.39172 35.35625Q394.40735 34.059376 392.76672 34.059376Q391.15735 34.059376 390.17297 35.340626Q389.1886 36.621876 389.1886 38.996876ZM406.67297 43.66875Q407.82922 43.66875 408.6886 42.965626Q409.5636 42.2625 409.65735 41.2L411.70422 41.2Q411.64172 42.29375 410.95422 43.278126Q410.26672 44.2625 409.11047 44.85625Q407.95422 45.434376 406.67297 45.434376Q404.07922 45.434376 402.54797 43.715626Q401.01672 41.98125 401.01672 38.98125L401.01672 38.60625Q401.01672 36.7625 401.6886 35.325Q402.3761 33.871876 403.64172 33.075Q404.92297 32.278126 406.65735 32.278126Q408.78235 32.278126 410.1886 33.559376Q411.61047 34.840626 411.70422 36.871876L409.65735 36.871876Q409.5636 35.653126 408.71985 34.85625Q407.89172 34.059376 406.65735 34.059376Q405.0011 34.059376 404.09485 35.2625Q403.1886 36.45 403.1886 38.7L403.1886 39.10625Q403.1886 41.29375 404.07922 42.48125Q404.98547 43.66875 406.67297 43.66875ZM422.40735 43.95Q421.14172 45.434376 418.6886 45.434376Q416.67297 45.434376 415.61047 44.2625Q414.54797 43.075 414.53235 40.7625L414.53235 32.5125L416.70422 32.5125L416.70422 40.715626Q416.70422 43.590626 419.04797 43.590626Q421.53235 43.590626 422.34485 41.746876L422.34485 32.5125L424.51672 32.5125L424.51672 45.2L422.45422 45.2L422.40735 43.95ZM434.96985 41.840626Q434.96985 40.95 434.29797 40.465626Q433.64172 39.98125 431.98547 39.6375Q430.34485 39.278126 429.3761 38.79375Q428.40735 38.29375 427.9386 37.621876Q427.48547 36.934376 427.48547 35.996876Q427.48547 34.434376 428.79797 33.35625Q430.1261 32.278126 432.17297 32.278126Q434.32922 32.278126 435.67297 33.403126Q437.01672 34.5125 437.01672 36.246876L434.82922 36.246876Q434.82922 35.35625 434.07922 34.715626Q433.32922 34.059376 432.17297 34.059376Q430.98547 34.059376 430.3136 34.575Q429.65735 35.090626 429.65735 35.934376Q429.65735 36.715626 430.26672 37.121876Q430.89172 37.5125 432.51672 37.871876Q434.14172 38.23125 435.14172 38.746876Q436.15735 39.246876 436.64172 39.965626Q437.1261 40.66875 437.1261 41.684376Q437.1261 43.3875 435.76672 44.41875Q434.40735 45.434376 432.2511 45.434376Q430.71985 45.434376 429.54797 44.903126Q428.3761 44.35625 427.70422 43.3875Q427.04797 42.41875 427.04797 41.29375L429.21985 41.29375Q429.28235 42.3875 430.09485 43.028126Q430.90735 43.66875 432.2511 43.66875Q433.46985 43.66875 434.21985 43.16875Q434.96985 42.66875 434.96985 41.840626Z" fill-rule="nonzero"/></svg>