<svg version="1.1" viewBox="0.0 0.0 598.0 473.0" fill="none" stroke="none" stroke-linecap="square" stroke-miterlimit="10" width="598" height="473" xmlns:xlink="http://www.w3.org/1999/xlink" xmlns="http://www.w3.org/2000/svg"><path fill="#ffffff" d="M0 0L598.0 0L598.0 473.0L0 473.0L0 0Z" fill-rule="nonzero"/><path stroke="#333333" stroke-width="1.0" stroke-linecap="butt" d="M79.5 360.5L579.5 360.5" fill-rule="nonzero"/><path stroke="#cccccc" stroke-width="1.0" stroke-linecap="butt" d="M79.5 267.5L579.5 267.5" fill-rule="nonzero"/><path stroke="#cccccc" stroke-width="1.0" stroke-linecap="butt" d="M79.5 174.5L579.5 174.5" fill-rule="nonzero"/><path stroke="#cccccc" stroke-width="1.0" stroke-linecap="butt" d="M79.5 80.5L579.5 80.5" fill-rule="nonzero"/><clipPath id="id_0"><path d="M79.35723 80.85866L579.57104 80.85866L579.57104 360.824L79.35723 360.824L79.35723 80.85866Z" clip-rule="nonzero"/></clipPath><path stroke="#4285f4" stroke-width="2.0" stroke-linecap="butt" clip-path="url(#id_0)" d="M115.08679 103.0485C115.08679 103.0485 162.72621 350.35123 186.54591 350.35123C210.36562 350.35123 234.18532 123.52745 258.00504 103.0485C281.82474 82.56956 305.64444 226.95909 329.46414 227.47755C353.28384 227.996 377.10358 85.68028 400.92328 106.15923C424.74298 126.638176 448.56268 323.91006 472.3824 350.35123C496.2021 376.7924 543.8415 264.80627 543.8415 264.80627" fill-rule="nonzero"/><path fill="#4285f4" clip-path="url(#id_0)" d="M119.58679 103.0485C119.58679 105.53378 117.572075 107.5485 115.08679 107.5485C112.60151 107.5485 110.58679 105.53378 110.58679 103.0485C110.58679 100.563225 112.60151 98.5485 115.08679 98.5485C117.572075 98.5485 119.58679 100.563225 119.58679 103.0485Z" fill-rule="nonzero"/><path fill="#4285f4" clip-path="url(#id_0)" d="M191.04591 350.35123C191.04591 352.83652 189.03119 354.85123 186.54591 354.85123C184.06062 354.85123 182.04591 352.83652 182.04591 350.35123C182.04591 347.86594 184.06062 345.85123 186.54591 345.85123C189.03119 345.85123 191.04591 347.86594 191.04591 350.35123Z" fill-rule="nonzero"/><path fill="#4285f4" clip-path="url(#id_0)" d="M262.50504 103.0485C262.50504 105.53378 260.49033 107.5485 258.00504 107.5485C255.51974 107.5485 253.50504 105.53378 253.50504 103.0485C253.50504 100.563225 255.51974 98.5485 258.00504 98.5485C260.49033 98.5485 262.50504 100.563225 262.50504 103.0485Z" fill-rule="nonzero"/><path fill="#4285f4" clip-path="url(#id_0)" d="M333.96414 227.47755C333.96414 229.96283 331.94943 231.97755 329.46414 231.97755C326.97888 231.97755 324.96414 229.96283 324.96414 227.47755C324.96414 224.99226 326.97888 222.97755 329.46414 222.97755C331.94943 222.97755 333.96414 224.99226 333.96414 227.47755Z" fill-rule="nonzero"/><path fill="#4285f4" clip-path="url(#id_0)" d="M405.42328 106.15923C405.42328 108.64451 403.40854 110.65923 400.92328 110.65923C398.438 110.65923 396.42328 108.64451 396.42328 106.15923C396.42328 103.67395 398.438 101.65923 400.92328 101.65923C403.40854 101.65923 405.42328 103.67395 405.42328 106.15923Z" fill-rule="nonzero"/><path fill="#4285f4" clip-path="url(#id_0)" d="M476.8824 350.35123C476.8824 352.83652 474.86768 354.85123 472.3824 354.85123C469.8971 354.85123 467.8824 352.83652 467.8824 350.35123C467.8824 347.86594 469.8971 345.85123 472.3824 345.85123C474.86768 345.85123 476.8824 347.86594 476.8824 350.35123Z" fill-rule="nonzero"/><path fill="#4285f4" clip-path="url(#id_0)" d="M548.3415 264.80627C548.3415 267.29153 546.3268 269.30627 543.8415 269.30627C541.3562 269.30627 539.3415 267.29153 539.3415 264.80627C539.3415 262.32098 541.3562 260.30627 543.8415 260.30627C546.3268 260.30627 548.3415 262.32098 548.3415 264.80627Z" fill-rule="nonzero"/><path fill="#424242" d="M28.755978 287.9168L20.193478 283.46368L20.193478 280.9168L30.896603 286.7918L37.255978 286.7918L37.255978 289.0418L30.896603 289.0418L20.193478 294.93243L20.193478 292.3543L28.755978 287.9168ZM37.490353 274.19806Q37.490353 276.77618 35.802853 278.40118Q34.099728 280.01056 31.271603 280.01056L30.865353 280.01056Q28.974728 280.01056 27.505978 279.2918Q26.021603 278.57306 25.177853 277.27618Q24.334103 275.9793 24.334103 274.46368Q24.334103 271.99493 25.974728 270.63556Q27.599728 269.26056 30.630978 269.26056L31.537228 269.26056L31.537228 277.83868Q33.412228 277.7918 34.568478 276.74493Q35.724728 275.69806 35.724728 274.08868Q35.724728 272.93243 35.255978 272.13556Q34.787228 271.33868 34.005978 270.74493L35.037228 269.4168Q37.490353 271.01056 37.490353 274.19806ZM26.115353 274.46368Q26.115353 275.77618 27.084103 276.6668Q28.037228 277.55743 29.755978 277.77618L29.755978 271.4168L29.584103 271.4168Q27.943478 271.51056 27.037228 272.30743Q26.115353 273.1043 26.115353 274.46368ZM37.255978 258.63556Q36.880978 258.82306 35.912228 258.93243Q37.490353 260.44806 37.490353 262.5418Q37.490353 264.4168 36.427853 265.61993Q35.365353 266.82306 33.740353 266.82306Q31.755978 266.82306 30.662228 265.32306Q29.568478 263.80743 29.568478 261.08868L29.568478 258.9793L28.568478 258.9793Q27.427853 258.9793 26.755978 259.6668Q26.084103 260.33868 26.084103 261.65118Q26.084103 262.82306 26.677853 263.6043Q27.255978 264.38556 28.084103 264.38556L28.084103 266.57306Q27.146603 266.57306 26.255978 265.90118Q25.365353 265.21368 24.849728 264.07306Q24.334103 262.9168 24.334103 261.52618Q24.334103 259.33868 25.443478 258.1043Q26.537228 256.8543 28.459103 256.80743L34.287228 256.80743Q36.037228 256.80743 37.068478 256.3543L37.255978 256.3543L37.255978 258.63556ZM35.599728 262.2293Q35.599728 261.21368 35.084103 260.30743Q34.552853 259.38556 33.709103 258.9793L31.099728 258.9793L31.099728 260.6668Q31.099728 264.65118 33.427853 264.65118Q34.459103 264.65118 35.037228 263.9793Q35.599728 263.2918 35.599728 262.2293ZM26.521603 247.3387Q26.443478 247.82307 26.443478 248.4012Q26.443478 250.5262 28.255978 251.29182L37.255978 251.29182L37.255978 253.4637L24.568478 253.4637L24.568478 251.35432L26.037228 251.32307Q24.334103 250.24495 24.334103 248.29182Q24.334103 247.66682 24.505978 247.3387L26.521603 247.3387ZM33.896603 238.07307Q33.005978 238.07307 32.521603 238.74495Q32.037228 239.4012 31.693478 241.05745Q31.334103 242.69807 30.849728 243.66682Q30.349728 244.63557 29.677853 245.10432Q28.990353 245.55745 28.052853 245.55745Q26.490353 245.55745 25.412228 244.24495Q24.334103 242.91682 24.334103 240.86995Q24.334103 238.7137 25.459103 237.36995Q26.568478 236.0262 28.302853 236.0262L28.302853 238.2137Q27.412228 238.2137 26.771603 238.9637Q26.115353 239.7137 26.115353 240.86995Q26.115353 242.05745 26.630978 242.72932Q27.146603 243.38557 27.990353 243.38557Q28.771603 243.38557 29.177853 242.7762Q29.568478 242.1512 29.927853 240.5262Q30.287228 238.9012 30.802853 237.9012Q31.302853 236.88557 32.021603 236.4012Q32.724728 235.91682 33.740353 235.91682Q35.443478 235.91682 36.474728 237.2762Q37.490353 238.63557 37.490353 240.79182Q37.490353 242.32307 36.959103 243.49495Q36.412228 244.66682 35.443478 245.3387Q34.474728 245.99495 33.349728 245.99495L33.349728 243.82307Q34.443478 243.76057 35.084103 242.94807Q35.724728 242.13557 35.724728 240.79182Q35.724728 239.57307 35.224728 238.82307Q34.724728 238.07307 33.896603 238.07307Z" fill-rule="nonzero"/><path fill="#757575" d="M68.45098 361.7615Q68.45098 364.93338 67.372856 366.48026Q66.29473 368.02713 63.98223 368.02713Q61.70098 368.02713 60.60723 366.5115Q59.51348 364.99588 59.48223 361.99588L59.48223 359.58963Q59.48223 356.449 60.560356 354.93338Q61.654106 353.40213 63.966606 353.40213Q66.26348 353.40213 67.341606 354.8865Q68.41973 356.35526 68.45098 359.41776L68.45098 361.7615ZM66.654106 359.29276Q66.654106 356.99588 65.997856 355.949Q65.35723 354.8865 63.966606 354.8865Q62.57598 354.8865 61.935356 355.93338Q61.310356 356.98026 61.29473 359.15213L61.29473 362.04276Q61.29473 364.33963 61.95098 365.449Q62.622856 366.54276 63.98223 366.54276Q65.32598 366.54276 65.966606 365.5115Q66.622856 364.48026 66.654106 362.24588L66.654106 359.29276Z" fill-rule="nonzero"/><path fill="#757575" d="M60.372856 267.37723L61.091606 260.28348L68.372856 260.28348L68.372856 261.95535L62.622856 261.95535L62.20098 265.83035Q63.247856 265.22098 64.57598 265.22098Q66.51348 265.22098 67.654106 266.50223Q68.79473 267.78348 68.79473 269.97098Q68.79473 272.1741 67.60723 273.43973Q66.41973 274.70535 64.29473 274.70535Q62.404106 274.70535 61.216606 273.65848Q60.029106 272.6116 59.85723 270.76785L61.57598 270.76785Q61.73223 271.9866 62.435356 272.6116Q63.13848 273.22098 64.29473 273.22098Q65.560356 273.22098 66.279106 272.3616Q66.997856 271.50223 66.997856 269.9866Q66.997856 268.56473 66.216606 267.70535Q65.435356 266.83035 64.154106 266.83035Q62.966606 266.83035 62.29473 267.34598L61.810356 267.7366L60.372856 267.37723Z" fill-rule="nonzero"/><path fill="#757575" d="M54.48223 181.18044L52.654106 181.18044L52.654106 169.13356L49.01348 170.47731L49.01348 168.83669L54.20098 166.89919L54.48223 166.89919L54.48223 181.18044ZM68.45098 175.11794Q68.45098 178.28981 67.372856 179.83669Q66.29473 181.38356 63.98223 181.38356Q61.70098 181.38356 60.60723 179.86794Q59.51348 178.35231 59.48223 175.35231L59.48223 172.94606Q59.48223 169.80544 60.560356 168.28981Q61.654106 166.75856 63.966606 166.75856Q66.26348 166.75856 67.341606 168.24294Q68.41973 169.71169 68.45098 172.77419L68.45098 175.11794ZM66.654106 172.64919Q66.654106 170.35231 65.997856 169.30544Q65.35723 168.24294 63.966606 168.24294Q62.57598 168.24294 61.935356 169.28981Q61.310356 170.33669 61.29473 172.50856L61.29473 175.39919Q61.29473 177.69606 61.95098 178.80544Q62.622856 179.89919 63.98223 179.89919Q65.32598 179.89919 65.966606 178.86794Q66.622856 177.83669 66.654106 175.60231L66.654106 172.64919Z" fill-rule="nonzero"/><path fill="#757575" d="M54.48223 87.85866L52.654106 87.85866L52.654106 75.81178L49.01348 77.15553L49.01348 75.51491L54.20098 73.57741L54.48223 73.57741L54.48223 87.85866ZM60.372856 80.73366L61.091606 73.63991L68.372856 73.63991L68.372856 75.31178L62.622856 75.31178L62.20098 79.18678Q63.247856 78.57741 64.57598 78.57741Q66.51348 78.57741 67.654106 79.85866Q68.79473 81.13991 68.79473 83.32741Q68.79473 85.53053 67.60723 86.79616Q66.41973 88.06178 64.29473 88.06178Q62.404106 88.06178 61.216606 87.01491Q60.029106 85.96803 59.85723 84.12428L61.57598 84.12428Q61.73223 85.34303 62.435356 85.96803Q63.13848 86.57741 64.29473 86.57741Q65.560356 86.57741 66.279106 85.71803Q66.997856 84.85866 66.997856 83.34303Q66.997856 81.92116 66.216606 81.06178Q65.435356 80.18678 64.154106 80.18678Q62.966606 80.18678 62.29473 80.70241L61.810356 81.09303L60.372856 80.73366Z" fill-rule="nonzero"/><path fill="#757575" d="M99.232124 413.54874L97.895256 414.8856L93.24382 410.23416L88.183586 415.2944L92.83502 419.94583L91.50919 421.27167L81.455025 411.21747L82.780846 409.89166L87.10083 414.21164L92.16106 409.1514L87.84108 404.83142L89.177956 403.49454L99.232124 413.54874ZM99.38681 395.4733L96.16063 398.6995L105.121 407.65985L103.80622 408.97464L94.845856 400.01425L91.61968 403.24042L90.52588 402.14664L98.293 394.3795L99.38681 395.4733ZM101.55232 391.12018L113.03176 396.03677L108.126205 384.5463L109.83873 382.83377L119.89291 392.88794L118.56708 394.21378L114.65589 390.30258L110.556885 385.93842L115.39615 397.3847L114.379684 398.40118L102.96654 393.57297L107.30862 397.64987L111.219795 401.56107L109.893974 402.88687L99.8398 392.8327L101.55232 391.12018ZM122.15785 388.4575L126.930824 383.6845L128.01358 384.76727L121.91479 390.86606L111.86061 380.8119L113.18644 379.48605L122.15785 388.4575Z" fill-rule="nonzero"/><path fill="#757575" d="M157.31146 426.9285L147.2573 416.87433L150.09677 414.03485Q151.4005 412.73114 152.99149 412.31128Q154.58247 411.86935 156.19556 412.39966Q157.8197 412.91895 159.2118 414.28897L159.85263 414.92978Q161.2779 416.35504 161.79716 417.9792Q162.31645 419.60333 161.87451 421.1943Q161.43257 422.7853 160.0957 424.1443L157.31146 426.9285ZM149.67693 416.6423L157.55453 424.51993L158.94664 423.1278Q160.48239 421.59207 160.38297 419.79114Q160.27248 417.9792 158.51575 416.22247L157.93018 415.6369Q156.21765 413.92438 154.46094 413.78073Q152.70422 413.63712 151.22371 415.09552L149.67693 416.6423ZM160.15094 409.1514L168.48154 417.482Q170.636 419.63647 168.68042 421.59207Q168.26057 422.0119 167.77443 422.25497L166.74692 421.22745Q167.02313 421.06174 167.38774 420.69714Q167.81863 420.26624 167.80757 419.81323Q167.80757 419.3713 167.23305 418.79678L158.86931 410.43304L160.15094 409.1514ZM156.74799 408.57687Q156.44968 408.27856 156.41653 407.86978Q156.39444 407.44992 156.75903 407.08533Q157.13469 406.7097 157.54349 406.74283Q157.95229 406.75388 158.26164 407.06323Q158.571 407.3726 158.58205 407.78137Q158.60414 408.17914 158.22849 408.55478Q157.85284 408.93042 157.4551 408.90833Q157.05734 408.88623 156.74799 408.57687ZM174.44775 409.7922Q174.1163 409.68173 173.48653 409.18454Q173.51967 411.00757 172.28224 412.245Q171.17738 413.34985 169.84052 413.4272Q168.50363 413.50452 167.54242 412.5433Q166.38232 411.3832 166.62538 409.85852Q166.86845 408.3117 168.47049 406.7097L169.71898 405.46118L169.1334 404.8756Q168.45944 404.20166 167.6529 404.2127Q166.8574 404.2127 166.084 404.9861Q165.399 405.6711 165.28851 406.4887Q165.16698 407.29526 165.6531 407.78137L164.37148 409.06302Q163.81906 408.5106 163.69753 407.59357Q163.56494 406.66547 163.94058 405.6932Q164.31624 404.69885 165.13383 403.88126Q166.42651 402.58856 167.80757 402.51123Q169.1776 402.42285 170.34874 403.52768L173.78484 406.96378Q174.81236 407.9913 175.67415 408.34485L175.78462 408.45535L174.44775 409.7922ZM171.35416 410.94125Q171.96184 410.3336 172.1828 409.4939Q172.41483 408.64316 172.1607 407.90292L170.62495 406.36716L169.61954 407.3726Q167.27725 409.71487 168.64726 411.0849Q169.25494 411.69257 169.9952 411.63733Q170.7244 411.57104 171.35416 410.94125ZM171.35416 397.94818L172.33748 398.8431Q172.10547 396.9096 173.48653 395.52853Q175.86197 393.1531 178.54677 395.8158L183.48546 400.75452L182.21487 402.0251L177.26514 397.07535Q176.44754 396.27985 175.69624 396.25775Q174.956 396.2246 174.18259 396.99802Q173.56387 397.61673 173.42024 398.42328Q173.28766 399.21875 173.56387 400.0253L178.88927 405.3507L177.61868 406.62128L170.14987 399.15247L171.35416 397.94818ZM181.2868 395.35178Q179.54114 393.6061 179.32016 391.77203Q179.08813 389.92694 180.42502 388.59006Q181.79503 387.22003 183.52966 387.42996L182.7673 386.53503L183.9274 385.37494L191.21944 392.66696Q192.66681 394.11432 192.63365 395.80475Q192.6226 397.49518 191.1642 398.95358Q190.35765 399.76013 189.24176 400.19104Q188.12585 400.62192 187.10939 400.42307L187.00995 398.9978Q188.85506 399.1856 190.03725 398.00342Q190.97638 397.0643 190.96533 396.01468Q190.96533 394.9761 190.01515 394.02594L189.36328 393.37408Q189.49586 395.03137 188.17004 396.35718Q186.85527 397.67197 184.97702 397.4289Q183.10982 397.17477 181.2868 395.35178ZM182.71207 394.21378Q183.98265 395.48434 185.22008 395.68323Q186.45752 395.8821 187.3856 394.954Q188.60094 393.73868 188.0706 392.0814L184.6566 388.6674Q182.99933 388.18127 181.82819 389.35242Q180.88905 390.29153 181.08792 391.5511Q181.29785 392.79956 182.71207 394.21378ZM189.03183 387.60675Q187.92697 386.5019 187.48503 385.19815Q187.03204 383.8834 187.3193 382.64594Q187.61761 381.39746 188.61198 380.40308Q190.13669 378.8784 192.13647 378.99994Q194.13626 379.09937 195.89297 380.85608L195.98137 380.94446Q197.07516 382.03827 197.52817 383.33096Q197.97011 384.61258 197.6718 385.88318Q197.38454 387.1427 196.37912 388.14813Q194.86546 389.66177 192.85463 389.5513Q190.85484 389.42975 189.12022 387.69513L189.03183 387.60675ZM190.45709 386.46875Q191.70558 387.71722 193.0314 387.894Q194.36827 388.05972 195.3295 387.0985Q196.30177 386.12625 196.11395 384.78937Q195.92612 383.45248 194.5561 382.08246Q193.31866 380.84503 191.97075 380.66824Q190.62282 380.4915 189.66159 381.4527Q188.71143 382.40286 188.87715 383.73975Q189.05392 385.06558 190.45709 386.46875Z" fill-rule="nonzero"/><path fill="#757575" d="M250.6467 398.66632Q252.06091 400.4562 251.93938 402.3234Q251.81784 404.16852 250.17162 405.81473Q248.39279 407.59357 246.02841 407.39468Q243.67506 407.18475 241.53165 405.04135L240.57043 404.0801Q239.16727 402.67694 238.60379 401.1191Q238.05136 399.5502 238.39386 398.05865Q238.73637 396.5671 239.9517 395.35178Q241.55374 393.74973 243.4099 393.68344Q245.27711 393.6061 247.01173 395.03137L245.67485 396.36823Q244.31589 395.34073 243.18893 395.38492Q242.07303 395.41806 241.04552 396.4456Q239.77493 397.71616 239.98485 399.3845Q240.20583 401.04178 241.94044 402.7764L242.91272 403.74866Q244.5479 405.38385 246.20518 405.6711Q247.85143 405.94733 249.0778 404.72095Q250.18266 403.6161 250.27104 402.53333Q250.37048 401.4395 249.30983 400.0032L250.6467 398.66632ZM254.11594 392.61172Q251.91728 393.8381 250.43678 393.90442Q248.94522 393.95966 247.89561 392.91003Q246.70238 391.7168 246.87915 389.99323Q247.04488 388.2586 248.55853 386.74496Q249.59709 385.7064 250.81242 385.30865Q252.02777 384.8888 253.17682 385.15396Q254.31482 385.40808 255.15451 386.24777L253.82867 387.5736Q252.9227 386.6676 251.81784 386.73392Q250.713 386.7781 249.65233 387.83875Q248.669 388.82208 248.54747 389.8054Q248.437 390.77768 249.21039 391.55106Q249.81805 392.15875 250.76823 392.07034Q251.70737 391.97092 253.3094 391.076Q254.92249 390.17 256.0605 389.8938Q257.18744 389.60654 258.0934 389.82748Q258.9994 390.04846 259.7728 390.82187Q260.98813 392.0372 260.77823 393.72763Q260.5683 395.41806 258.96625 397.0201Q257.93875 398.0476 256.635 398.55585Q255.34233 399.05304 254.17119 398.85416Q252.989 398.64423 252.1051 397.76035L253.44199 396.4235Q254.35901 397.3405 255.56331 397.19687Q256.75653 397.0422 257.87244 395.9263Q258.92206 394.87668 259.0657 393.89337Q259.19827 392.899 258.458 392.15875Q257.71777 391.4185 256.80075 391.54Q255.87267 391.6505 254.11594 392.61172ZM262.60123 384.12643Q260.40256 385.35284 258.92206 385.41913Q257.4305 385.47437 256.3809 384.42477Q255.18765 383.2315 255.36443 381.50793Q255.53015 379.77332 257.0438 378.25967Q258.08237 377.2211 259.2977 376.82336Q260.51306 376.4035 261.6621 376.66867Q262.8001 376.9228 263.6398 377.76248L262.31396 379.08832Q261.408 378.18234 260.30313 378.24863Q259.19827 378.29282 258.1376 379.3535Q257.1543 380.3368 257.03275 381.32013Q256.92227 382.2924 257.69568 383.0658Q258.30334 383.67346 259.2535 383.58508Q260.19263 383.48563 261.79468 382.5907Q263.40778 381.68472 264.54578 381.4085Q265.67273 381.12125 266.5787 381.34222Q267.48468 381.56317 268.2581 382.33658Q269.47342 383.5519 269.2635 385.24234Q269.05356 386.93277 267.45154 388.53482Q266.424 389.56232 265.1203 390.07056Q263.8276 390.56775 262.65646 390.36887Q261.47427 390.15897 260.5904 389.27505L261.92728 387.9382Q262.8443 388.85522 264.04858 388.7116Q265.24182 388.55692 266.35773 387.441Q267.40735 386.3914 267.55096 385.40808Q267.68356 384.4137 266.9433 383.67346Q266.20306 382.9332 265.286 383.05475Q264.35794 383.16522 262.60123 384.12643Z" fill-rule="nonzero"/><path fill="#757575" d="M297.41232 414.80826L305.74292 423.13885Q307.89737 425.29333 305.9418 427.24893Q305.52194 427.66876 305.0358 427.91183L304.0083 426.8843Q304.28452 426.7186 304.6491 426.354Q305.08002 425.9231 305.06897 425.4701Q305.06897 425.02817 304.49445 424.45364L296.13068 416.0899L297.41232 414.80826ZM294.00937 414.23373Q293.71106 413.93542 293.67792 413.52664Q293.65582 413.10678 294.02042 412.7422Q294.39606 412.36655 294.80487 412.3997Q295.21365 412.41074 295.523 412.7201Q295.83237 413.02945 295.8434 413.43823Q295.8655 413.836 295.48987 414.21164Q295.11423 414.58728 294.71646 414.5652Q294.31873 414.5431 294.00937 414.23373ZM310.27283 407.47202Q311.73123 408.93045 312.32785 410.45514Q312.91342 411.96878 312.67035 413.4051L315.87442 413.00735L315.80814 414.75302L311.9964 415.1839Q311.6318 415.8137 311.07938 416.36612Q309.89716 417.5483 308.3835 417.8908Q306.88092 418.22226 305.28992 417.64774Q303.69894 417.0732 302.26263 415.659L301.54446 414.94086Q300.0971 413.4935 299.4784 411.8804Q298.87073 410.25626 299.20218 408.75366Q299.53363 407.22897 300.72687 406.0357Q301.94223 404.82037 303.45587 404.49997Q304.9695 404.15747 306.57156 404.76514Q308.16254 405.36176 309.63202 406.8312L310.27283 407.47202ZM308.30618 408.15704Q306.52737 406.37823 304.85904 406.1241Q303.1907 405.87 301.87592 407.18475Q300.62744 408.43326 300.85947 410.1237Q301.0915 411.79202 302.7598 413.50455L303.50006 414.24478Q305.23468 415.9794 306.9472 416.2556Q308.67078 416.52078 309.95242 415.23917Q311.23404 413.95752 311.002 412.31128Q310.77002 410.66507 309.04642 408.89728L308.30618 408.15704ZM320.86838 404.80933Q321.012 406.43347 319.56464 407.88083Q318.3714 409.07407 317.04556 409.00778Q315.7308 408.93045 314.36078 407.58252L309.49942 402.72116L310.78107 401.4395L315.60925 406.26773Q317.29968 407.95816 318.68076 406.5771Q320.13916 405.11868 319.54254 403.5498L314.10666 398.11392L315.3883 396.83228L322.85712 404.3011L321.64178 405.51645L320.86838 404.80933ZM328.01678 399.42868Q326.50314 400.94235 324.54755 400.9092Q322.59195 400.85394 320.9236 399.1856L320.68054 398.94257Q319.57568 397.8377 319.1227 396.545Q318.68076 395.2413 318.94592 393.98175Q319.2111 392.72223 320.10602 391.8273Q321.56442 390.3689 323.33218 390.52356Q325.09998 390.67825 326.88983 392.4681L327.42017 392.99844L322.35992 398.0587Q323.48688 399.14142 324.79062 399.20773Q326.08328 399.26297 327.03345 398.31277Q327.71848 397.62778 327.90628 396.8875Q328.10516 396.13623 328.00574 395.32968L329.3868 395.16394Q329.89502 397.55045 328.01678 399.42868ZM321.15564 392.8769Q320.38223 393.6503 320.41537 394.7441Q320.45956 395.82687 321.35452 396.96487L325.08893 393.23047L324.98947 393.131Q323.96198 392.214 322.95654 392.15875Q321.95114 392.08142 321.15564 392.8769ZM329.82874 384.66785Q329.49728 384.91092 329.16583 385.24237Q327.90628 386.5019 328.52502 388.02658L333.8283 393.3299L332.55774 394.60046L325.08893 387.13165L326.32635 385.89423L327.21024 386.73392Q326.8346 385.09872 327.98364 383.94968Q328.35928 383.57404 328.64655 383.48566L329.82874 384.66785ZM338.082 385.3418L334.21503 378.00555L335.58502 376.63556L341.1977 388.2586Q342.36884 390.82187 340.8552 392.33554L340.59003 392.5565L340.02655 392.9432L338.98798 391.90463L339.36365 391.59528Q340.0155 390.94342 340.10388 390.32468Q340.20334 389.69492 339.7393 388.76685L339.2642 387.71722L329.22107 382.9995L330.6132 381.6074L338.082 385.3418Z" fill-rule="nonzero"/><path fill="#757575" d="M342.5096 435.99936L343.8465 434.66248L350.96176 441.77774Q352.40912 443.2251 352.35388 444.91553Q352.3097 446.5949 350.86234 448.04227Q349.3597 449.54486 347.7577 449.62222Q346.15564 449.67746 344.77457 448.2964L346.1004 446.97055Q346.9622 447.83234 347.9234 447.84338Q348.8736 447.84338 349.76852 446.94846Q350.58612 446.13086 350.58612 445.1144Q350.57507 444.08688 349.64697 443.13672L342.5096 435.99936ZM360.54083 438.07648Q360.20938 437.966 359.57962 437.4688Q359.61276 439.2918 358.37534 440.52927Q357.27048 441.63412 355.9336 441.71146Q354.59674 441.7888 353.6355 440.82758Q352.4754 439.66748 352.71848 438.14276Q352.96155 436.59598 354.5636 434.99393L355.81207 433.74545L355.2265 433.15988Q354.55252 432.48593 353.746 432.49698Q352.9505 432.49698 352.1771 433.27036Q351.4921 433.95538 351.3816 434.77298Q351.26007 435.5795 351.74622 436.06564L350.46457 437.3473Q349.91214 436.79486 349.79062 435.87784Q349.65802 434.94974 350.0337 433.97748Q350.40933 432.9831 351.22693 432.16553Q352.5196 430.87283 353.90067 430.7955Q355.2707 430.7071 356.44183 431.81195L359.87793 435.24805Q360.90546 436.27557 361.76724 436.62912L361.87772 436.73962L360.54083 438.07648ZM357.44727 439.22552Q358.05493 438.61786 358.2759 437.77817Q358.5079 436.92743 358.25378 436.1872L356.71805 434.65143L355.71265 435.65686Q353.37033 437.99915 354.74036 439.36917Q355.34802 439.97684 356.0883 439.9216Q356.81747 439.8553 357.44727 439.22552ZM364.44098 430.7071L360.55188 423.1278L361.85562 421.82407L366.6507 431.96664L365.6784 432.9389L355.50272 428.177L356.80643 426.87326L364.44098 430.7071ZM375.39008 423.22723Q375.05862 423.11676 374.42886 422.61957Q374.462 424.44257 373.22458 425.68002Q372.11972 426.78488 370.78284 426.8622Q369.44598 426.93954 368.48474 425.97833Q367.32465 424.81824 367.56772 423.29352Q367.8108 421.74673 369.4128 420.14468L370.66132 418.8962L370.07574 418.31064Q369.40176 417.6367 368.59525 417.64774Q367.79974 417.64774 367.02634 418.4211Q366.34134 419.10614 366.23083 419.92374Q366.1093 420.73026 366.59546 421.2164L365.3138 422.49805Q364.76138 421.94562 364.63986 421.0286Q364.50726 420.1005 364.88293 419.12823Q365.25858 418.13385 366.07617 417.31628Q367.36884 416.0236 368.7499 415.94626Q370.11993 415.85785 371.29108 416.9627L374.72717 420.3988Q375.7547 421.42633 376.6165 421.77988L376.72696 421.89038L375.39008 423.22723ZM372.2965 424.37628Q372.90417 423.76862 373.12512 422.92892Q373.35715 422.0782 373.10303 421.33795L371.5673 419.8022L370.5619 420.80762Q368.21957 423.1499 369.5896 424.51993Q370.19727 425.1276 370.93753 425.07236Q371.66672 425.00604 372.2965 424.37628ZM377.2352 412.4107Q375.03653 413.63712 373.55603 413.7034Q372.06448 413.75864 371.01486 412.709Q369.82162 411.51578 369.9984 409.7922Q370.16412 408.0576 371.67776 406.54395Q372.71634 405.50537 373.93167 405.10764Q375.14703 404.68777 376.29608 404.95294Q377.43408 405.20706 378.27374 406.04675L376.94794 407.3726Q376.04196 406.4666 374.9371 406.5329Q373.83224 406.5771 372.77158 407.63776Q371.78827 408.62106 371.66672 409.6044Q371.55624 410.57666 372.32965 411.35007Q372.93732 411.95773 373.88748 411.86932Q374.8266 411.7699 376.42865 410.87497Q378.04175 409.969 379.17975 409.69278Q380.3067 409.40552 381.21268 409.6265Q382.11865 409.84744 382.89206 410.62085Q384.1074 411.83618 383.89746 413.5266Q383.68753 415.21704 382.0855 416.8191Q381.05798 417.8466 379.75427 418.35483Q378.46158 418.85202 377.29044 418.65314Q376.10825 418.4432 375.22437 417.55933L376.56125 416.22247Q377.47827 417.1395 378.68256 416.99585Q379.8758 416.8412 380.9917 415.72528Q382.04132 414.67566 382.18494 413.69235Q382.31754 412.69797 381.57727 411.95773Q380.837 411.21747 379.91998 411.33902Q378.9919 411.4495 377.2352 412.4107ZM389.1345 407.6709Q389.8195 406.98587 389.9189 406.06885Q390.00732 405.14078 389.44385 404.46683L390.65918 403.25146Q391.2558 403.9365 391.4326 404.93085Q391.60934 405.90314 391.2779 406.94168Q390.94644 407.95816 390.18408 408.7205Q388.6594 410.2452 386.73694 410.1347Q384.81448 410.00214 383.04672 408.23438L382.8368 408.02444Q381.743 406.93063 381.29 405.68216Q380.837 404.43365 381.12427 403.21832Q381.40048 401.99194 382.41696 400.97546Q383.67648 399.71594 385.25644 399.6386Q386.84744 399.5502 388.10696 400.69925L386.89163 401.9146Q386.11823 401.25168 385.157 401.28482Q384.19577 401.29587 383.46658 402.0251Q382.4943 402.99734 382.66003 404.24585Q382.82574 405.47223 384.15158 406.79807L384.39465 407.04114Q385.68732 408.3338 386.91373 408.49954Q388.1401 408.66525 389.1345 407.6709ZM391.38837 394.56732Q391.05692 394.8104 390.72546 395.14185Q389.46594 396.40137 390.08466 397.9261L395.38794 403.22937L394.11737 404.49997L386.64856 397.03116L387.886 395.7937L388.76987 396.6334Q388.39423 394.9982 389.54327 393.84915Q389.9189 393.4735 390.20618 393.38513L391.38837 394.56732ZM400.44818 398.16916L399.1776 399.43973L391.7088 391.97092L392.97937 390.70032L400.44818 398.16916ZM389.60956 390.09265Q389.3002 389.7833 389.2781 389.38556Q389.256 388.9657 389.6206 388.6011Q389.99628 388.22546 390.40506 388.2586Q390.81384 388.26965 391.1232 388.579Q391.4326 388.88837 391.44363 389.29715Q391.46573 389.69492 391.09006 390.07056Q390.72546 390.43515 390.31668 390.4241Q389.9189 390.402 389.60956 390.09265ZM405.2543 386.0489Q406.96683 387.7614 407.232 389.5955Q407.49716 391.40744 406.16028 392.74432Q404.8013 394.10327 403.14404 394.0149L406.74585 397.61673L405.47528 398.8873L395.13385 388.54587L396.29395 387.38577L397.18887 388.1481Q396.99 386.40244 398.3821 385.0103Q399.73004 383.6624 401.53094 383.89444Q403.33185 384.12643 405.14383 385.93842L405.2543 386.0489ZM403.82904 387.1869Q402.56952 385.92737 401.29892 385.73953Q400.02835 385.5296 399.0892 386.46875Q397.9291 387.62885 398.37106 389.2419L401.95078 392.82166Q403.54178 393.26358 404.72397 392.0814Q405.641 391.16437 405.4532 389.8938Q405.26535 388.6232 403.82904 387.1869ZM402.8236 377.23215L404.6356 379.04413L406.03876 377.64096L407.02206 378.62427L405.6189 380.02744L410.24823 384.65677Q410.70123 385.10977 411.12106 385.15396Q411.52988 385.1871 411.98285 384.7341Q412.20383 384.51315 412.50214 384.03806L413.5407 385.07663Q413.17612 385.7285 412.70102 386.20358Q411.85028 387.05432 410.88907 386.97696Q409.93887 386.88858 408.97766 385.92737L404.34833 381.298L402.98935 382.65698L402.00604 381.67368L403.365 380.3147L401.55304 378.50275L402.8236 377.23215Z" fill-rule="nonzero"/><path fill="#757575" d="M440.54047 421.6694L444.47375 425.6027L443.14795 426.9285L433.09375 416.87433L436.795 413.17307Q438.4523 411.5158 440.22006 411.4274Q441.9989 411.32797 443.391 412.7201Q444.86047 414.18954 444.73892 415.90207Q444.60635 417.60355 442.90488 419.30502L440.54047 421.6694ZM439.45773 420.58664L441.83316 418.2112Q442.90488 417.1395 442.97116 416.07886Q443.0264 415.00714 442.07623 414.05695Q441.1813 413.16202 440.0875 413.19516Q438.98264 413.21725 437.96616 414.18954L435.5134 416.6423L439.45773 420.58664ZM452.71597 413.62607L448.849 406.28983L450.219 404.9198L455.83167 416.54288Q457.0028 419.10614 455.48917 420.61978L455.224 420.84076L454.66052 421.22748L453.62195 420.1889L453.99762 419.87955Q454.64948 419.2277 454.73785 418.60895Q454.83728 417.9792 454.37326 417.05112L453.89816 416.0015L443.85504 411.28378L445.24716 409.89166L452.71597 413.62607ZM450.9482 400.56668L452.76016 402.37866L454.16333 400.9755L455.14667 401.9588L453.7435 403.36197L458.37283 407.9913Q458.8258 408.4443 459.24567 408.4885Q459.65445 408.52164 460.10745 408.06863Q460.32843 407.8477 460.62674 407.3726L461.66528 408.41116Q461.3007 409.06302 460.8256 409.53812Q459.97485 410.38885 459.01364 410.3115Q458.06348 410.2231 457.10223 409.2619L452.4729 404.63254L451.11392 405.99152L450.1306 405.0082L451.4896 403.64923L449.6776 401.83728L450.9482 400.56668ZM458.1629 398.78787Q457.96402 396.8875 459.323 395.52856Q461.69846 393.1531 464.38324 395.81583L469.32193 400.75452L468.05136 402.0251L463.1016 397.07535Q462.28403 396.27985 461.5327 396.25775Q460.79245 396.2246 460.01907 396.99802Q459.40033 397.61673 459.2567 398.42328Q459.1241 399.21875 459.40033 400.0253L464.72574 405.3507L463.45517 406.62128L452.84857 396.01468L454.11914 394.7441L458.1629 398.78787ZM467.09012 395.38492Q465.9853 394.28006 465.54333 392.97635Q465.09033 391.66156 465.3776 390.42413Q465.6759 389.17563 466.6703 388.18127Q468.19498 386.6566 470.19476 386.7781Q472.19455 386.87753 473.95126 388.63425L474.03967 388.72266Q475.13348 389.81647 475.58646 391.10913Q476.0284 392.39078 475.7301 393.66135Q475.44284 394.92087 474.4374 395.9263Q472.92377 397.43994 470.91293 397.32947Q468.91315 397.20792 467.17853 395.4733L467.09012 395.38492ZM468.51538 394.24692Q469.7639 395.4954 471.0897 395.67218Q472.42657 395.83792 473.3878 394.87668Q474.36008 393.90442 474.17224 392.56754Q473.98444 391.23068 472.6144 389.86066Q471.37695 388.6232 470.02905 388.44644Q468.68112 388.26965 467.7199 389.2309Q466.7697 390.18106 466.93546 391.51794Q467.1122 392.84375 468.51538 394.24692ZM472.74698 382.39185L473.73032 383.28677Q473.4983 381.35327 474.87936 379.9722Q477.2548 377.59677 479.93958 380.25946L484.8783 385.19815L483.6077 386.46875L478.65796 381.519Q477.84036 380.7235 477.08905 380.70142Q476.34882 380.66827 475.5754 381.44165Q474.9567 382.06036 474.81305 382.8669Q474.68048 383.6624 474.9567 384.46896L480.2821 389.79437L479.0115 391.06494L471.5427 383.59613L472.74698 382.39185Z" fill-rule="nonzero"/><path fill="#757575" d="M483.30655 438.12067L484.64343 436.7838L491.75867 443.89905Q493.20602 445.34644 493.1508 447.03683Q493.1066 448.71622 491.65924 450.16357Q490.15665 451.6662 488.5546 451.74353Q486.95258 451.79877 485.5715 450.4177L486.8973 449.0919Q487.7591 449.95367 488.72034 449.96472Q489.6705 449.96472 490.56543 449.0698Q491.38303 448.2522 491.38303 447.23572Q491.37198 446.20822 490.4439 445.25803L483.30655 438.12067ZM495.4047 437.15945Q493.20602 438.38583 491.72552 438.45212Q490.23398 438.5074 489.18436 437.45776Q487.99112 436.26453 488.1679 434.54095Q488.33362 432.80634 489.8473 431.29266Q490.88583 430.25412 492.1012 429.85635Q493.31653 429.43652 494.46558 429.7017Q495.60358 429.9558 496.44327 430.7955L495.11743 432.1213Q494.21146 431.21533 493.1066 431.28162Q492.00174 431.3258 490.9411 432.38647Q489.95776 433.3698 489.83624 434.35312Q489.72574 435.32538 490.49915 436.0988Q491.1068 436.70645 492.05698 436.61807Q492.99612 436.51865 494.59814 435.62372Q496.21124 434.7177 497.34924 434.4415Q498.4762 434.15424 499.38217 434.3752Q500.28815 434.5962 501.06155 435.3696Q502.2769 436.58493 502.067 438.27536Q501.85706 439.9658 500.255 441.5678Q499.2275 442.59534 497.92377 443.10358Q496.63107 443.60074 495.45993 443.4019Q494.27774 443.19196 493.39386 442.30807L494.73074 440.9712Q495.64777 441.8882 496.85205 441.7446Q498.0453 441.5899 499.1612 440.474Q500.21082 439.4244 500.35446 438.44107Q500.48703 437.44672 499.74677 436.70645Q499.00653 435.96622 498.0895 436.08774Q497.1614 436.19824 495.4047 437.15945ZM508.442 423.68024Q509.9225 425.16074 510.53015 426.76276Q511.12677 428.35376 510.79532 429.85635Q510.4749 431.34793 509.25958 432.56326Q508.06635 433.7565 506.56372 434.08795Q505.06113 434.4194 503.47012 433.84488Q501.87915 433.27036 500.44284 431.85614L499.72467 431.138Q498.2773 429.69064 497.6586 428.07755Q497.05093 426.4534 497.3824 424.9508Q497.71384 423.42612 498.89603 422.24393Q500.1114 421.02856 501.61398 420.6971Q503.12762 420.3546 504.74072 420.97333Q506.34274 421.581 507.81223 423.05048L508.442 423.68024ZM506.47534 424.36523Q504.6855 422.57538 503.01715 422.34335Q501.33777 422.10028 500.04507 423.39297Q498.7966 424.64145 499.02863 426.33188Q499.26065 428.0002 500.929 429.71274L501.66922 430.45297Q503.40384 432.1876 505.1274 432.45276Q506.85098 432.71793 508.13263 431.4363Q509.41425 430.15466 509.17117 428.5195Q508.93918 426.87326 507.2156 425.1055L506.47534 424.36523ZM523.0371 418.49847L521.70026 419.83533L508.89496 417.15054L516.64 424.89557L515.31415 426.2214L505.26 416.1672L506.58582 414.8414L519.44635 417.53723L511.66815 409.75906L512.9829 408.44427L523.0371 418.49847ZM526.1307 417.12845L525.0258 418.2333L518.30835 403.1189L519.40216 402.0251L526.1307 417.12845ZM533.78735 402.48914L529.5778 406.6986L531.2572 410.27835L529.89825 411.63733L523.6779 397.7493L524.838 396.5892L538.73706 402.7985L537.3781 404.15744L533.78735 402.48914ZM528.8928 405.2181L532.3179 401.79306L525.8987 398.79892L528.8928 405.2181ZM533.71 392.88794L542.0406 401.21854Q544.19507 403.37302 542.2395 405.32858Q541.81964 405.74844 541.3335 405.99152L540.30597 404.964Q540.5822 404.79828 540.9468 404.43365Q541.3777 404.00278 541.36664 403.54977Q541.36664 403.10785 540.7921 402.53333L532.42834 394.16956L533.71 392.88794ZM530.30707 392.31342Q530.0087 392.0151 529.9756 391.6063Q529.9535 391.18646 530.3181 390.82187Q530.6937 390.4462 531.10254 390.47934Q531.51135 390.49042 531.8207 390.79977Q532.13007 391.10913 532.1411 391.5179Q532.1632 391.91568 531.78754 392.29132Q531.4119 392.66696 531.01416 392.64487Q530.6164 392.62277 530.30707 392.31342ZM548.00684 393.52875Q547.67535 393.41827 547.0456 392.92108Q547.07874 394.74408 545.8413 395.98154Q544.73645 397.0864 543.3996 397.16373Q542.0627 397.24106 541.1015 396.27985Q539.9414 395.11975 540.18445 393.59503Q540.4275 392.04825 542.02954 390.4462L543.278 389.19772L542.69244 388.61215Q542.0185 387.9382 541.212 387.94925Q540.41644 387.94925 539.64307 388.72263Q538.95807 389.40765 538.8476 390.22525Q538.726 391.03177 539.21216 391.5179L537.93054 392.79956Q537.3781 392.24713 537.2566 391.33008Q537.124 390.402 537.49963 389.42975Q537.8753 388.43536 538.6929 387.61777Q539.9856 386.3251 541.36664 386.24777Q542.73663 386.15936 543.9078 387.26422L547.3439 390.70032Q548.3714 391.72784 549.2332 392.0814L549.3437 392.19186L548.00684 393.52875ZM544.9132 394.6778Q545.5209 394.07013 545.7419 393.23044Q545.9739 392.3797 545.7198 391.63947L544.184 390.1037L543.1786 391.10913Q540.8363 393.45142 542.20636 394.82144Q542.814 395.4291 543.55426 395.37387Q544.28345 395.30756 544.9132 394.6778ZM548.9349 383.12103L547.86316 378.73474L549.35474 377.2432L550.6032 383.37515L556.9009 384.63467L555.43146 386.10413L550.90155 385.04346L551.97327 389.56232L550.49274 391.04282L549.2332 384.74515L543.10126 383.49667L544.57074 382.02722L548.9349 383.12103Z" fill-rule="nonzero"/><path fill="#1e375f" d="M240.94476 41.228127Q240.63226 43.946877 238.94476 45.415627Q237.27289 46.884377 234.47601 46.884377Q231.46039 46.884377 229.63226 44.7125Q227.80414 42.540627 227.80414 38.915627L227.80414 37.275Q227.80414 34.9 228.64789 33.103127Q229.50726 31.290627 231.06976 30.321877Q232.63226 29.353127 234.67914 29.353127Q237.39789 29.353127 239.03851 30.868752Q240.67914 32.384377 240.94476 35.071877L238.67914 35.071877Q238.39789 33.025 237.41351 32.11875Q236.42914 31.196877 234.67914 31.196877Q232.52289 31.196877 231.28851 32.790627Q230.06976 34.384377 230.06976 37.3375L230.06976 38.978127Q230.06976 41.759377 231.22601 43.4Q232.39789 45.040627 234.47601 45.040627Q236.35101 45.040627 237.35101 44.196877Q238.35101 43.3375 238.67914 41.228127L240.94476 41.228127ZM251.88226 45.4Q250.61664 46.884377 248.16351 46.884377Q246.14789 46.884377 245.08539 45.7125Q244.02289 44.525 244.00726 42.2125L244.00726 33.9625L246.17914 33.9625L246.17914 42.165627Q246.17914 45.040627 248.52289 45.040627Q251.00726 45.040627 251.81976 43.196877L251.81976 33.9625L253.99164 33.9625L253.99164 46.65L251.92914 46.65L251.88226 45.4ZM263.17914 35.915627Q262.69476 35.8375 262.11664 35.8375Q259.99164 35.8375 259.226 37.65L259.226 46.65L257.05414 46.65L257.05414 33.9625L259.1635 33.9625L259.19476 35.43125Q260.2729 33.728127 262.226 33.728127Q262.851 33.728127 263.17914 33.9L263.17914 35.915627ZM271.17914 35.915627Q270.69476 35.8375 270.11664 35.8375Q267.99164 35.8375 267.226 37.65L267.226 46.65L265.05414 46.65L265.05414 33.9625L267.1635 33.9625L267.19476 35.43125Q268.2729 33.728127 270.226 33.728127Q270.851 33.728127 271.17914 33.9L271.17914 35.915627ZM278.31976 46.884377Q275.74164 46.884377 274.11664 45.196877Q272.50726 43.49375 272.50726 40.665627L272.50726 40.259377Q272.50726 38.36875 273.226 36.9Q273.94476 35.415627 275.24164 34.571877Q276.5385 33.728127 278.05414 33.728127Q280.5229 33.728127 281.88226 35.36875Q283.25726 36.99375 283.25726 40.025L283.25726 40.93125L274.67914 40.93125Q274.726 42.80625 275.7729 43.9625Q276.81976 45.11875 278.42914 45.11875Q279.5854 45.11875 280.38226 44.65Q281.17914 44.18125 281.7729 43.4L283.101 44.43125Q281.50726 46.884377 278.31976 46.884377ZM278.05414 35.509377Q276.74164 35.509377 275.851 36.478127Q274.9604 37.43125 274.74164 39.15L281.101 39.15L281.101 38.978127Q281.00726 37.3375 280.2104 36.43125Q279.4135 35.509377 278.05414 35.509377ZM288.101 33.9625L288.17914 35.55625Q289.63226 33.728127 291.976 33.728127Q295.99164 33.728127 296.0229 38.275L296.0229 46.65L293.86664 46.65L293.86664 38.259377Q293.851 36.884377 293.226 36.228127Q292.61664 35.571877 291.31976 35.571877Q290.25726 35.571877 289.4604 36.134377Q288.6635 36.696877 288.226 37.61875L288.226 46.65L286.05414 46.65L286.05414 33.9625L288.101 33.9625ZM301.99164 30.900002L301.99164 33.9625L304.36664 33.9625L304.36664 35.65L301.99164 35.65L301.99164 43.509377Q301.99164 44.275 302.30414 44.65Q302.63226 45.025 303.3979 45.025Q303.7729 45.025 304.42914 44.884377L304.42914 46.65Q303.56976 46.884377 302.75726 46.884377Q301.30414 46.884377 300.56976 46.009377Q299.8354 45.11875 299.8354 43.509377L299.8354 35.65L297.5229 35.65L297.5229 33.9625L299.8354 33.9625L299.8354 30.900002L301.99164 30.900002ZM318.42914 39.040627Q315.5229 38.2125 314.2104 37.009377Q312.8979 35.790627 312.8979 34.009377Q312.8979 31.993752 314.50726 30.681252Q316.11664 29.353127 318.69476 29.353127Q320.44476 29.353127 321.81976 30.040627Q323.2104 30.712502 323.9604 31.915627Q324.7104 33.103127 324.7104 34.525L322.4604 34.525Q322.4604 32.978127 321.476 32.0875Q320.49164 31.196877 318.69476 31.196877Q317.0229 31.196877 316.0854 31.931252Q315.1635 32.665627 315.1635 33.9625Q315.1635 35.009377 316.0385 35.728127Q316.92914 36.446877 319.05414 37.05625Q321.19476 37.65 322.38226 38.36875Q323.5854 39.0875 324.1635 40.05625Q324.75726 41.009377 324.75726 42.30625Q324.75726 44.384377 323.13226 45.634377Q321.5229 46.884377 318.80414 46.884377Q317.05414 46.884377 315.5229 46.2125Q314.00726 45.540627 313.17914 44.36875Q312.351 43.196877 312.351 41.696877L314.61664 41.696877Q314.61664 43.24375 315.75726 44.15Q316.8979 45.040627 318.80414 45.040627Q320.5854 45.040627 321.5385 44.321877Q322.49164 43.5875 322.49164 42.3375Q322.49164 41.0875 321.601 40.4Q320.726 39.7125 318.42914 39.040627ZM330.601 40.775L329.24164 42.196877L329.24164 46.65L327.06976 46.65L327.06976 28.650002L329.24164 28.650002L329.24164 39.540627L330.3979 38.134377L334.351 33.9625L336.976 33.9625L332.05414 39.259377L337.55414 46.65L335.00726 46.65L330.601 40.775ZM341.4135 46.65L339.24164 46.65L339.24164 33.9625L341.4135 33.9625L341.4135 46.65ZM339.06976 30.603127Q339.06976 30.071877 339.38226 29.712502Q339.7104 29.353127 340.3354 29.353127Q340.976 29.353127 341.30414 29.712502Q341.63226 30.071877 341.63226 30.603127Q341.63226 31.134377 341.30414 31.493752Q340.976 31.837502 340.3354 31.837502Q339.7104 31.837502 339.38226 31.493752Q339.06976 31.134377 339.06976 30.603127ZM347.4135 46.65L345.24164 46.65L345.24164 28.650002L347.4135 28.650002L347.4135 46.65ZM353.4135 46.65L351.24164 46.65L351.24164 28.650002L353.4135 28.650002L353.4135 46.65ZM364.44476 43.290627Q364.44476 42.4 363.7729 41.915627Q363.11664 41.43125 361.4604 41.0875Q359.81976 40.728127 358.851 40.24375Q357.88226 39.74375 357.4135 39.071877Q356.9604 38.384377 356.9604 37.446877Q356.9604 35.884377 358.2729 34.80625Q359.601 33.728127 361.6479 33.728127Q363.80414 33.728127 365.1479 34.853127Q366.49164 35.9625 366.49164 37.696877L364.30414 37.696877Q364.30414 36.80625 363.55414 36.165627Q362.80414 35.509377 361.6479 35.509377Q360.4604 35.509377 359.7885 36.025Q359.13226 36.540627 359.13226 37.384377Q359.13226 38.165627 359.74164 38.571877Q360.36664 38.9625 361.99164 39.321877Q363.61664 39.68125 364.61664 40.196877Q365.63226 40.696877 366.11664 41.415627Q366.601 42.11875 366.601 43.134377Q366.601 44.8375 365.24164 45.86875Q363.88226 46.884377 361.726 46.884377Q360.19476 46.884377 359.0229 46.353127Q357.851 45.80625 357.17914 44.8375Q356.5229 43.86875 356.5229 42.74375L358.69476 42.74375Q358.75726 43.8375 359.56976 44.478127Q360.38226 45.11875 361.726 45.11875Q362.94476 45.11875 363.69476 44.61875Q364.44476 44.11875 364.44476 43.290627Z" fill-rule="nonzero"/></svg>