<svg version="1.1" viewBox="0.0 0.0 600.0 547.0" fill="none" stroke="none" stroke-linecap="square" stroke-miterlimit="10" width="600" height="547" xmlns:xlink="http://www.w3.org/1999/xlink" xmlns="http://www.w3.org/2000/svg"><path fill="#ffffff" d="M0 0L600.0 0L600.0 547.0L0 547.0L0 0Z" fill-rule="nonzero"/><path stroke="#333333" stroke-width="1.0" stroke-linecap="butt" d="M100.5 429.5L534.5 429.5" fill-rule="nonzero"/><path stroke="#cccccc" stroke-width="1.0" stroke-linecap="butt" d="M100.5 363.5L534.5 363.5" fill-rule="nonzero"/><path stroke="#cccccc" stroke-width="1.0" stroke-linecap="butt" d="M100.5 298.5L534.5 298.5" fill-rule="nonzero"/><path stroke="#cccccc" stroke-width="1.0" stroke-linecap="butt" d="M100.5 232.5L534.5 232.5" fill-rule="nonzero"/><path stroke="#cccccc" stroke-width="1.0" stroke-linecap="butt" d="M100.5 167.5L534.5 167.5" fill-rule="nonzero"/><path stroke="#cccccc" stroke-width="1.0" stroke-linecap="butt" d="M100.5 101.5L534.5 101.5" fill-rule="nonzero"/><clipPath id="id_0"><path d="M100.5 101.57239L534.5 101.57239L534.5 429.5L100.5 429.5L100.5 101.57239Z" clip-rule="nonzero"/></clipPath><path stroke="#000000" stroke-width="0.0" stroke-linecap="butt" stroke-opacity="0.0" clip-path="url(#id_0)" d="M147.0 430.0L117.0 430.0L117.0 389.0L147.0 389.0Z" fill-rule="nonzero"/><path fill="#4285f4" clip-path="url(#id_0)" d="M147.0 430.0L117.0 430.0L117.0 389.0L147.0 389.0Z" fill-rule="nonzero"/><path stroke="#000000" stroke-width="0.0" stroke-linecap="butt" stroke-opacity="0.0" clip-path="url(#id_0)" d="M193.0 430.0L163.0 430.0L163.0 424.0L193.0 424.0Z" fill-rule="nonzero"/><path fill="#4285f4" clip-path="url(#id_0)" d="M193.0 430.0L163.0 430.0L163.0 424.0L193.0 424.0Z" fill-rule="nonzero"/><path stroke="#000000" stroke-width="0.0" stroke-linecap="butt" stroke-opacity="0.0" clip-path="url(#id_0)" d="M240.0 430.0L210.0 430.0L210.0 390.0L240.0 390.0Z" fill-rule="nonzero"/><path fill="#4285f4" clip-path="url(#id_0)" d="M240.0 430.0L210.0 430.0L210.0 390.0L240.0 390.0Z" fill-rule="nonzero"/><path stroke="#000000" stroke-width="0.0" stroke-linecap="butt" stroke-opacity="0.0" clip-path="url(#id_0)" d="M286.0 430.0L256.0 430.0L256.0 350.0L286.0 350.0Z" fill-rule="nonzero"/><path fill="#4285f4" clip-path="url(#id_0)" d="M286.0 430.0L256.0 430.0L256.0 350.0L286.0 350.0Z" fill-rule="nonzero"/><path stroke="#000000" stroke-width="0.0" stroke-linecap="butt" stroke-opacity="0.0" clip-path="url(#id_0)" d="M333.0 430.0L303.0 430.0L303.0 367.0L333.0 367.0Z" fill-rule="nonzero"/><path fill="#4285f4" clip-path="url(#id_0)" d="M333.0 430.0L303.0 430.0L303.0 367.0L333.0 367.0Z" fill-rule="nonzero"/><path stroke="#000000" stroke-width="0.0" stroke-linecap="butt" stroke-opacity="0.0" clip-path="url(#id_0)" d="M379.0 430.0L349.0 430.0L349.0 356.0L379.0 356.0Z" fill-rule="nonzero"/><path fill="#4285f4" clip-path="url(#id_0)" d="M379.0 430.0L349.0 430.0L349.0 356.0L379.0 356.0Z" fill-rule="nonzero"/><path stroke="#000000" stroke-width="0.0" stroke-linecap="butt" stroke-opacity="0.0" clip-path="url(#id_0)" d="M425.0 430.0L395.0 430.0L395.0 423.0L425.0 423.0Z" fill-rule="nonzero"/><path fill="#4285f4" clip-path="url(#id_0)" d="M425.0 430.0L395.0 430.0L395.0 423.0L425.0 423.0Z" fill-rule="nonzero"/><path stroke="#000000" stroke-width="0.0" stroke-linecap="butt" stroke-opacity="0.0" clip-path="url(#id_0)" d="M472.0 430.0L442.0 430.0L442.0 399.0L472.0 399.0Z" fill-rule="nonzero"/><path fill="#4285f4" clip-path="url(#id_0)" d="M472.0 430.0L442.0 430.0L442.0 399.0L472.0 399.0Z" fill-rule="nonzero"/><path stroke="#000000" stroke-width="0.0" stroke-linecap="butt" stroke-opacity="0.0" clip-path="url(#id_0)" d="M518.0 430.0L488.0 430.0L488.0 321.0L518.0 321.0Z" fill-rule="nonzero"/><path fill="#4285f4" clip-path="url(#id_0)" d="M518.0 430.0L488.0 430.0L488.0 321.0L518.0 321.0Z" fill-rule="nonzero"/><path stroke="#000000" stroke-width="0.0" stroke-linecap="butt" stroke-opacity="0.0" clip-path="url(#id_0)" d="M147.0 389.0L117.0 389.0L117.0 210.0C117.0 208.89543 117.89543 208.0 119.0 208.0L145.0 208.0C146.10457 208.0 147.0 208.89543 147.0 210.0Z" fill-rule="nonzero"/><path fill="#b7b7b7" clip-path="url(#id_0)" d="M147.0 389.0L117.0 389.0L117.0 210.0C117.0 208.89543 117.89543 208.0 119.0 208.0L145.0 208.0C146.10457 208.0 147.0 208.89543 147.0 210.0Z" fill-rule="nonzero"/><path stroke="#000000" stroke-width="0.0" stroke-linecap="butt" stroke-opacity="0.0" clip-path="url(#id_0)" d="M193.0 424.0L163.0 424.0L163.0 391.0C163.0 389.89542 163.89543 389.0 165.0 389.0L191.0 389.0C192.10457 389.0 193.0 389.89542 193.0 391.0Z" fill-rule="nonzero"/><path fill="#b7b7b7" clip-path="url(#id_0)" d="M193.0 424.0L163.0 424.0L163.0 391.0C163.0 389.89542 163.89543 389.0 165.0 389.0L191.0 389.0C192.10457 389.0 193.0 389.89542 193.0 391.0Z" fill-rule="nonzero"/><path stroke="#000000" stroke-width="0.0" stroke-linecap="butt" stroke-opacity="0.0" clip-path="url(#id_0)" d="M240.0 390.0L210.0 390.0L210.0 211.0C210.0 209.89543 210.89543 209.0 212.0 209.0L238.0 209.0C239.10457 209.0 240.0 209.89543 240.0 211.0Z" fill-rule="nonzero"/><path fill="#b7b7b7" clip-path="url(#id_0)" d="M240.0 390.0L210.0 390.0L210.0 211.0C210.0 209.89543 210.89543 209.0 212.0 209.0L238.0 209.0C239.10457 209.0 240.0 209.89543 240.0 211.0Z" fill-rule="nonzero"/><path stroke="#000000" stroke-width="0.0" stroke-linecap="butt" stroke-opacity="0.0" clip-path="url(#id_0)" d="M286.0 350.0L256.0 350.0L256.0 170.0C256.0 168.89543 256.89542 168.0 258.0 168.0L284.0 168.0C285.10458 168.0 286.0 168.89543 286.0 170.0Z" fill-rule="nonzero"/><path fill="#b7b7b7" clip-path="url(#id_0)" d="M286.0 350.0L256.0 350.0L256.0 170.0C256.0 168.89543 256.89542 168.0 258.0 168.0L284.0 168.0C285.10458 168.0 286.0 168.89543 286.0 170.0Z" fill-rule="nonzero"/><path stroke="#000000" stroke-width="0.0" stroke-linecap="butt" stroke-opacity="0.0" clip-path="url(#id_0)" d="M333.0 367.0L303.0 367.0L303.0 362.0C303.0 360.89542 303.89542 360.0 305.0 360.0L331.0 360.0C332.10458 360.0 333.0 360.89542 333.0 362.0Z" fill-rule="nonzero"/><path fill="#b7b7b7" clip-path="url(#id_0)" d="M333.0 367.0L303.0 367.0L303.0 362.0C303.0 360.89542 303.89542 360.0 305.0 360.0L331.0 360.0C332.10458 360.0 333.0 360.89542 333.0 362.0Z" fill-rule="nonzero"/><path stroke="#000000" stroke-width="0.0" stroke-linecap="butt" stroke-opacity="0.0" clip-path="url(#id_0)" d="M379.0 356.0L349.0 356.0L349.0 351.0C349.0 349.89542 349.89542 349.0 351.0 349.0L377.0 349.0C378.10458 349.0 379.0 349.89542 379.0 351.0Z" fill-rule="nonzero"/><path fill="#b7b7b7" clip-path="url(#id_0)" d="M379.0 356.0L349.0 356.0L349.0 351.0C349.0 349.89542 349.89542 349.0 351.0 349.0L377.0 349.0C378.10458 349.0 379.0 349.89542 379.0 351.0Z" fill-rule="nonzero"/><path stroke="#000000" stroke-width="0.0" stroke-linecap="butt" stroke-opacity="0.0" clip-path="url(#id_0)" d="M425.0 423.0L395.0 423.0L395.0 172.0C395.0 170.89543 395.89542 170.0 397.0 170.0L423.0 170.0C424.10458 170.0 425.0 170.89543 425.0 172.0Z" fill-rule="nonzero"/><path fill="#b7b7b7" clip-path="url(#id_0)" d="M425.0 423.0L395.0 423.0L395.0 172.0C395.0 170.89543 395.89542 170.0 397.0 170.0L423.0 170.0C424.10458 170.0 425.0 170.89543 425.0 172.0Z" fill-rule="nonzero"/><path stroke="#000000" stroke-width="0.0" stroke-linecap="butt" stroke-opacity="0.0" clip-path="url(#id_0)" d="M472.0 399.0L442.0 399.0L442.0 139.0C442.0 137.89543 442.89542 137.0 444.0 137.0L470.0 137.0C471.10458 137.0 472.0 137.89543 472.0 139.0Z" fill-rule="nonzero"/><path fill="#b7b7b7" clip-path="url(#id_0)" d="M472.0 399.0L442.0 399.0L442.0 139.0C442.0 137.89543 442.89542 137.0 444.0 137.0L470.0 137.0C471.10458 137.0 472.0 137.89543 472.0 139.0Z" fill-rule="nonzero"/><path stroke="#000000" stroke-width="0.0" stroke-linecap="butt" stroke-opacity="0.0" clip-path="url(#id_0)" d="M518.0 321.0L488.0 321.0L488.0 142.0C488.0 140.89543 488.89542 140.0 490.0 140.0L516.0 140.0C517.10455 140.0 518.0 140.89543 518.0 142.0Z" fill-rule="nonzero"/><path fill="#b7b7b7" clip-path="url(#id_0)" d="M518.0 321.0L488.0 321.0L488.0 142.0C488.0 140.89543 488.89542 140.0 490.0 140.0L516.0 140.0C517.10455 140.0 518.0 140.89543 518.0 142.0Z" fill-rule="nonzero"/><path fill="#424242" d="M34.02624 328.6365L26.885616 324.91776L26.885616 322.79276L35.80749 327.699L41.104366 327.699L41.104366 329.574L35.80749 329.574L26.885616 334.48026L26.885616 332.324L34.02624 328.6365ZM41.30749 316.87088Q41.30749 319.0115 39.90124 320.37088Q38.479366 321.71463 36.11999 321.71463L35.77624 321.71463Q34.21374 321.71463 32.979366 321.12088Q31.744991 320.5115 31.041866 319.43338Q30.338741 318.35526 30.338741 317.08963Q30.338741 315.02713 31.698116 313.8865Q33.05749 312.74588 35.58874 312.74588L36.33874 312.74588L36.33874 319.90213Q37.90124 319.87088 38.86999 318.99588Q39.823116 318.12088 39.823116 316.77713Q39.823116 315.80838 39.43249 315.15213Q39.041866 314.48026 38.40124 313.98026L39.260616 312.8865Q41.30749 314.21463 41.30749 316.87088ZM31.823116 317.08963Q31.823116 318.18338 32.61999 318.93338Q33.416866 319.66776 34.854366 319.83963L34.854366 314.55838L34.71374 314.55838Q33.33874 314.6365 32.58874 315.30838Q31.823116 315.96463 31.823116 317.08963ZM41.104366 303.73026Q40.791866 303.8865 39.99499 303.98026Q41.30749 305.24588 41.30749 306.99588Q41.30749 308.55838 40.416866 309.55838Q39.52624 310.55838 38.166866 310.55838Q36.52624 310.55838 35.61999 309.30838Q34.698116 308.04276 34.698116 305.77713L34.698116 304.0115L33.86999 304.0115Q32.916866 304.0115 32.354366 304.58963Q31.791866 305.15213 31.791866 306.24588Q31.791866 307.21463 32.291866 307.87088Q32.77624 308.52713 33.46374 308.52713L33.46374 310.33963Q32.68249 310.33963 31.948116 309.77713Q31.198116 309.21463 30.776241 308.2615Q30.338741 307.29276 30.338741 306.1365Q30.338741 304.30838 31.260616 303.27713Q32.166866 302.24588 33.77624 302.199L38.635616 302.199Q40.08874 302.199 40.948116 301.83963L41.104366 301.83963L41.104366 303.73026ZM39.729366 306.73026Q39.729366 305.87088 39.291866 305.12088Q38.854366 304.35526 38.15124 304.0115L35.979366 304.0115L35.979366 305.43338Q35.979366 308.74588 37.916866 308.74588Q38.77624 308.74588 39.260616 308.18338Q39.729366 307.62088 39.729366 306.73026ZM32.15124 294.15213Q32.08874 294.55838 32.08874 295.02713Q32.08874 296.80838 33.604366 297.449L41.104366 297.449L41.104366 299.24588L30.541866 299.24588L30.541866 297.49588L31.760616 297.46463Q30.338741 296.574 30.338741 294.949Q30.338741 294.41776 30.479366 294.15213L32.15124 294.15213ZM38.30749 286.10526Q37.573116 286.10526 37.166866 286.65213Q36.760616 287.199 36.46374 288.574Q36.166866 289.949 35.760616 290.7615Q35.354366 291.55838 34.791866 291.949Q34.21374 292.324 33.43249 292.324Q32.135616 292.324 31.244991 291.23026Q30.338741 290.1365 30.338741 288.41776Q30.338741 286.62088 31.276241 285.51147Q32.198116 284.38647 33.635616 284.38647L33.635616 286.21463Q32.90124 286.21463 32.36999 286.83963Q31.823116 287.46463 31.823116 288.41776Q31.823116 289.41776 32.260616 289.98026Q32.68249 290.52713 33.385616 290.52713Q34.02624 290.52713 34.36999 290.0115Q34.698116 289.49588 35.010616 288.1365Q35.30749 286.77713 35.729366 285.949Q36.135616 285.10522 36.729366 284.69897Q37.323116 284.29272 38.166866 284.29272Q39.58874 284.29272 40.448116 285.43335Q41.30749 286.55838 41.30749 288.37088Q41.30749 289.6365 40.854366 290.62088Q40.40124 291.58963 39.604366 292.15213Q38.791866 292.699 37.854366 292.699L37.854366 290.8865Q38.760616 290.83963 39.291866 290.16776Q39.823116 289.48026 39.823116 288.37088Q39.823116 287.33963 39.416866 286.73026Q38.99499 286.10526 38.30749 286.10526Z" fill-rule="nonzero"/><path fill="#757575" d="M89.59375 430.4375Q89.59375 433.60938 88.515625 435.15625Q87.4375 436.70312 85.125 436.70312Q82.84375 436.70312 81.75 435.1875Q80.65625 433.67188 80.625 430.67188L80.625 428.26562Q80.625 425.125 81.703125 423.60938Q82.796875 422.07812 85.109375 422.07812Q87.40625 422.07812 88.484375 423.5625Q89.5625 425.03125 89.59375 428.09375L89.59375 430.4375ZM87.796875 427.96875Q87.796875 425.67188 87.140625 424.625Q86.5 423.5625 85.109375 423.5625Q83.71875 423.5625 83.078125 424.60938Q82.453125 425.65625 82.4375 427.82812L82.4375 430.71875Q82.4375 433.01562 83.09375 434.125Q83.765625 435.21875 85.125 435.21875Q86.46875 435.21875 87.109375 434.1875Q87.765625 433.15625 87.796875 430.92188L87.796875 427.96875Z" fill-rule="nonzero"/><path fill="#757575" d="M81.515625 363.7895L82.234375 356.69574L89.515625 356.69574L89.515625 358.3676L83.765625 358.3676L83.34375 362.2426Q84.390625 361.63324 85.71875 361.63324Q87.65625 361.63324 88.796875 362.9145Q89.9375 364.19574 89.9375 366.38324Q89.9375 368.58636 88.75 369.852Q87.5625 371.1176 85.4375 371.1176Q83.546875 371.1176 82.359375 370.07074Q81.171875 369.02386 81.0 367.1801L82.71875 367.1801Q82.875 368.39886 83.578125 369.02386Q84.28125 369.63324 85.4375 369.63324Q86.703125 369.63324 87.421875 368.77386Q88.140625 367.9145 88.140625 366.39886Q88.140625 364.977 87.359375 364.1176Q86.578125 363.2426 85.296875 363.2426Q84.109375 363.2426 83.4375 363.75824L82.953125 364.14886L81.515625 363.7895Z" fill-rule="nonzero"/><path fill="#757575" d="M75.625 305.32895L73.796875 305.32895L73.796875 293.28207L70.15625 294.62582L70.15625 292.9852L75.34375 291.0477L75.625 291.0477L75.625 305.32895ZM89.59375 299.26645Q89.59375 302.43832 88.515625 303.9852Q87.4375 305.53207 85.125 305.53207Q82.84375 305.53207 81.75 304.01645Q80.65625 302.50082 80.625 299.50082L80.625 297.09457Q80.625 293.95395 81.703125 292.43832Q82.796875 290.90707 85.109375 290.90707Q87.40625 290.90707 88.484375 292.39145Q89.5625 293.8602 89.59375 296.9227L89.59375 299.26645ZM87.796875 296.7977Q87.796875 294.50082 87.140625 293.45395Q86.5 292.39145 85.109375 292.39145Q83.71875 292.39145 83.078125 293.43832Q82.453125 294.4852 82.4375 296.65707L82.4375 299.5477Q82.4375 301.84457 83.09375 302.95395Q83.765625 304.0477 85.125 304.0477Q86.46875 304.0477 87.109375 303.01645Q87.765625 301.9852 87.796875 299.75082L87.796875 296.7977Z" fill-rule="nonzero"/><path fill="#757575" d="M75.625 239.74344L73.796875 239.74344L73.796875 227.69656L70.15625 229.04031L70.15625 227.39969L75.34375 225.46219L75.625 225.46219L75.625 239.74344ZM81.515625 232.61844L82.234375 225.52469L89.515625 225.52469L89.515625 227.19656L83.765625 227.19656L83.34375 231.07156Q84.390625 230.46219 85.71875 230.46219Q87.65625 230.46219 88.796875 231.74344Q89.9375 233.02469 89.9375 235.21219Q89.9375 237.41531 88.75 238.68094Q87.5625 239.94656 85.4375 239.94656Q83.546875 239.94656 82.359375 238.89969Q81.171875 237.85281 81.0 236.00906L82.71875 236.00906Q82.875 237.22781 83.578125 237.85281Q84.28125 238.46219 85.4375 238.46219Q86.703125 238.46219 87.421875 237.60281Q88.140625 236.74344 88.140625 235.22781Q88.140625 233.80594 87.359375 232.94656Q86.578125 232.07156 85.296875 232.07156Q84.109375 232.07156 83.4375 232.58719L82.953125 232.97781L81.515625 232.61844Z" fill-rule="nonzero"/><path fill="#757575" d="M79.0 174.15791L69.6875 174.15791L69.6875 172.86104L74.609375 167.39229Q75.703125 166.14229 76.109375 165.37666Q76.53125 164.59541 76.53125 163.76729Q76.53125 162.65791 75.859375 161.93916Q75.1875 161.22041 74.0625 161.22041Q72.703125 161.22041 71.953125 162.00166Q71.21875 162.76729 71.21875 164.12666L69.40625 164.12666Q69.40625 162.15791 70.671875 160.95479Q71.9375 159.73604 74.0625 159.73604Q76.046875 159.73604 77.1875 160.78291Q78.34375 161.82979 78.34375 163.54854Q78.34375 165.65791 75.671875 168.54854L71.859375 172.68916L79.0 172.68916L79.0 174.15791ZM89.59375 168.09541Q89.59375 171.26729 88.515625 172.81416Q87.4375 174.36104 85.125 174.36104Q82.84375 174.36104 81.75 172.84541Q80.65625 171.32979 80.625 168.32979L80.625 165.92354Q80.625 162.78291 81.703125 161.26729Q82.796875 159.73604 85.109375 159.73604Q87.40625 159.73604 88.484375 161.22041Q89.5625 162.68916 89.59375 165.75166L89.59375 168.09541ZM87.796875 165.62666Q87.796875 163.32979 87.140625 162.28291Q86.5 161.22041 85.109375 161.22041Q83.71875 161.22041 83.078125 162.26729Q82.453125 163.31416 82.4375 165.48604L82.4375 168.37666Q82.4375 170.67354 83.09375 171.78291Q83.765625 172.87666 85.125 172.87666Q86.46875 172.87666 87.109375 171.84541Q87.765625 170.81416 87.796875 168.57979L87.796875 165.62666Z" fill-rule="nonzero"/><path fill="#757575" d="M79.0 108.57239L69.6875 108.57239L69.6875 107.27551L74.609375 101.80676Q75.703125 100.55676 76.109375 99.79114Q76.53125 99.00989 76.53125 98.18176Q76.53125 97.07239 75.859375 96.35364Q75.1875 95.63489 74.0625 95.63489Q72.703125 95.63489 71.953125 96.41614Q71.21875 97.18176 71.21875 98.54114L69.40625 98.54114Q69.40625 96.57239 70.671875 95.36926Q71.9375 94.15051 74.0625 94.15051Q76.046875 94.15051 77.1875 95.19739Q78.34375 96.24426 78.34375 97.96301Q78.34375 100.07239 75.671875 102.96301L71.859375 107.10364L79.0 107.10364L79.0 108.57239ZM81.515625 101.44739L82.234375 94.35364L89.515625 94.35364L89.515625 96.02551L83.765625 96.02551L83.34375 99.90051Q84.390625 99.29114 85.71875 99.29114Q87.65625 99.29114 88.796875 100.57239Q89.9375 101.85364 89.9375 104.04114Q89.9375 106.24426 88.75 107.50989Q87.5625 108.77551 85.4375 108.77551Q83.546875 108.77551 82.359375 107.72864Q81.171875 106.68176 81.0 104.83801L82.71875 104.83801Q82.875 106.05676 83.578125 106.68176Q84.28125 107.29114 85.4375 107.29114Q86.703125 107.29114 87.421875 106.43176Q88.140625 105.57239 88.140625 104.05676Q88.140625 102.63489 87.359375 101.77551Q86.578125 100.90051 85.296875 100.90051Q84.109375 100.90051 83.4375 101.41614L82.953125 101.80676L81.515625 101.44739Z" fill-rule="nonzero"/><path fill="#757575" d="M108.916885 482.89868Q110.3311 484.68854 110.209564 486.55576Q110.08803 488.40085 108.441795 490.0471Q106.66298 491.8259 104.29859 491.62704Q101.94525 491.4171 99.801834 489.2737L98.840614 488.31247Q97.43745 486.9093 96.87397 485.35147Q96.32155 483.78256 96.66405 482.29102Q97.00655 480.79947 98.22189 479.58414Q99.82394 477.9821 101.68009 477.9158Q103.547295 477.83844 105.28191 479.2637L103.94504 480.6006Q102.58607 479.5731 101.459114 479.61728Q100.343216 479.65042 99.3157 480.67792Q98.04512 481.94852 98.25504 483.61685Q98.47601 485.27414 100.21063 487.00876L101.18291 487.98102Q102.81809 489.6162 104.47537 489.90347Q106.121605 490.1797 107.34799 488.95328Q108.45284 487.84845 108.54124 486.7657Q108.64067 485.67188 107.58001 484.23557L108.916885 482.89868ZM115.19246 477.35233L113.369446 479.17532L115.64545 482.55618L114.662125 483.5395L112.38612 480.15866L110.72884 481.81592L109.77867 480.86575L111.61273 479.0317L109.64609 476.11487L107.86727 477.8937L106.90605 476.93246L108.87269 474.96582L106.563545 471.52972L107.557915 470.53537L109.85601 473.9825L111.67902 472.15952L109.38092 468.71237L110.37529 467.718L112.673386 471.16513L114.0876 469.75092L115.04883 470.71216L113.45783 472.30313L115.41343 475.231L116.971275 473.67316L117.92145 474.62332L116.18683 476.35794L118.46283 479.7388L117.46846 480.7332L115.19246 477.35233ZM112.59605 478.04837L114.41906 476.22537L112.46347 473.29752L110.64046 475.1205L112.59605 478.04837ZM121.54537 475.30835Q121.21391 474.97687 121.19182 474.55704Q121.169716 474.1372 121.55642 473.7505Q121.95416 473.35275 122.37401 473.37485Q122.8049 473.3859 123.13636 473.71735Q123.456764 474.03775 123.46782 474.46866Q123.47887 474.87744 123.081116 475.2752Q122.69442 475.6619 122.28562 475.65085Q121.865776 475.62875 121.54537 475.30835ZM119.46825 463.79575L120.45156 464.69067Q120.21954 462.7572 121.60061 461.37613Q123.97605 459.0007 126.66084 461.6634L131.59955 466.60208L130.32896 467.87268L125.37921 462.9229Q124.56162 462.1274 123.81032 462.10532Q123.07007 462.07217 122.29667 462.84558Q121.677956 463.4643 121.534325 464.27084Q121.40174 465.06635 121.677956 465.8729L127.00335 471.19827L125.732765 472.46887L118.263954 465.00006L119.46825 463.79575ZM136.74817 461.74072Q135.23451 463.25436 133.27892 463.22122Q131.32333 463.166 129.655 461.49765L129.41193 461.25458Q128.30708 460.14975 127.85409 458.85706Q127.41215 457.5533 127.677315 456.2938Q127.942474 455.03427 128.8374 454.13934Q130.29582 452.6809 132.06358 452.8356Q133.83134 452.9903 135.62122 454.78015L136.15155 455.3105L131.09131 460.3707Q132.21826 461.45346 133.52199 461.51974Q134.81467 461.575 135.76485 460.62482Q136.44986 459.93982 136.63768 459.19955Q136.83655 458.44827 136.73712 457.64172L138.11818 457.47598Q138.62642 459.8625 136.74817 461.74072ZM129.88702 455.18893Q129.11362 455.96234 129.14677 457.05615Q129.19096 458.13892 130.08589 459.27692L133.8203 455.54248L133.72087 455.44305Q132.69334 454.52603 131.68793 454.4708Q130.68251 454.39343 129.88702 455.18893ZM133.73192 445.90817L135.54387 447.72012L136.94704 446.31696L137.93036 447.3003L136.52719 448.70343L141.15654 453.3328Q141.60953 453.78577 142.02937 453.82996Q142.43817 453.86313 142.89116 453.41013Q143.11212 453.18915 143.41043 452.71408L144.449 453.75262Q144.0844 454.40448 143.60931 454.87958Q142.75858 455.73032 141.79735 455.65298Q140.84717 455.5646 139.88596 454.60336L135.2566 449.97403L133.89764 451.333L132.91432 450.34967L134.27328 448.99072L132.46133 447.17874L133.73192 445.90817Z" fill-rule="nonzero"/><path fill="#757575" d="M127.182304 512.1773L122.97281 516.38684L124.65219 519.96655L123.29322 521.3255L117.07288 507.4375L118.23299 506.2774L132.13205 512.4867L130.77309 513.84564L127.182304 512.1773ZM122.287796 514.9063L125.712845 511.48126L119.29365 508.48712L122.287796 514.9063ZM126.99448 502.68665L127.9778 503.58157Q127.74579 501.64807 129.12685 500.267Q131.50229 497.89157 134.18709 500.55426L139.12578 505.49295L137.85521 506.76355L132.90546 501.81378Q132.08786 501.0183 131.33656 500.9962Q130.59631 500.96304 129.8229 501.73645Q129.2042 502.35516 129.06056 503.1617Q128.92798 503.9572 129.2042 504.76376L134.52959 510.08914L133.259 511.35974L125.790184 503.89093L126.99448 502.68665ZM134.88315 494.79797L143.21375 503.12857Q145.36821 505.28302 143.41261 507.23862Q142.99278 507.65848 142.50664 507.90155L141.47913 506.87402Q141.75534 506.70828 142.11993 506.3437Q142.55083 505.9128 142.53978 505.4598Q142.53978 505.01788 141.96526 504.44336L133.60152 496.0796L134.88315 494.79797ZM131.4802 494.22345Q131.18188 493.92514 131.14874 493.51633Q131.12663 493.0965 131.49124 492.7319Q131.8669 492.35623 132.27568 492.38937Q132.68448 492.40042 132.99385 492.70978Q133.3032 493.01917 133.31425 493.42795Q133.33635 493.82568 132.9607 494.20135Q132.58505 494.577 132.1873 494.5549Q131.78955 494.5328 131.4802 494.22345ZM148.43971 494.69852Q148.58334 496.32266 147.13599 497.77002Q145.94273 498.96326 144.61691 498.89697Q143.30214 498.81964 141.93211 497.4717L137.07076 492.61035L138.35239 491.32874L143.1806 496.15695Q144.87103 497.84735 146.25209 496.4663Q147.71051 495.0079 147.11388 493.439L141.678 488.0031L142.95963 486.7215L150.42845 494.1903L149.2131 495.40564L148.43971 494.69852ZM153.73196 490.88678L152.46138 492.15738L141.85478 481.55075L143.12535 480.28018L153.73196 490.88678ZM160.49367 484.12506Q160.16222 484.0146 159.53244 483.5174Q159.5656 485.34042 158.32816 486.57785Q157.2233 487.6827 155.88643 487.76004Q154.54955 487.83737 153.58833 486.87616Q152.42824 485.71606 152.6713 484.19138Q152.91437 482.64456 154.5164 481.04254L155.7649 479.79404L155.17932 479.20847Q154.50536 478.53452 153.6988 478.54556Q152.90332 478.54556 152.12991 479.31897Q151.44492 480.00397 151.33443 480.82156Q151.21289 481.6281 151.69902 482.11423L150.41739 483.39587Q149.86497 482.84344 149.74344 481.92642Q149.61086 480.99832 149.9865 480.02606Q150.36215 479.0317 151.17975 478.2141Q152.47243 476.92142 153.8535 476.8441Q155.22351 476.7557 156.39465 477.86057L159.83075 481.29666Q160.85828 482.32416 161.72006 482.6777L161.83054 482.7882L160.49367 484.12506ZM157.40007 485.2741Q158.00775 484.66644 158.22871 483.82675Q158.46074 482.976 158.20662 482.23578L156.67087 480.7L155.66545 481.70544Q153.32317 484.04773 154.69318 485.41776Q155.30086 486.02542 156.0411 485.97018Q156.77031 485.9039 157.40007 485.2741ZM160.93561 471.0215Q160.60416 471.26456 160.27269 471.59604Q159.01317 472.85556 159.63188 474.38025L164.93518 479.68356L163.6646 480.95413L156.19579 473.48532L157.43323 472.2479L158.31711 473.0876Q157.94145 471.4524 159.0905 470.30334Q159.46616 469.9277 159.75342 469.8393L160.93561 471.0215ZM175.0667 469.55203L168.48177 476.13696L167.56474 475.21994L167.17804 467.87268Q167.06755 466.2154 166.81343 465.38675Q166.55931 464.536 165.97374 463.95044Q165.1893 463.166 164.20598 463.13284Q163.22266 463.0997 162.42717 463.8952Q161.46594 464.8564 161.48804 465.93918Q161.51013 466.99982 162.47136 467.96106L161.18973 469.24268Q159.7976 467.85056 159.8418 466.1049Q159.87495 464.34818 161.37755 462.84558Q162.78072 461.4424 164.32751 461.37613Q165.88536 461.2988 167.1007 462.51413Q168.59225 464.00568 168.74693 467.93896L168.97894 473.56265L174.02814 468.5135L175.0667 469.55203ZM170.74672 453.76367L172.08359 452.4268L179.19885 459.54205Q180.64621 460.9894 180.59097 462.67984Q180.54677 464.35922 179.09941 465.80658Q177.59682 467.3092 175.99478 467.38654Q174.39273 467.44177 173.01167 466.0607L174.3375 464.7349Q175.19928 465.59668 176.1605 465.60773Q177.11067 465.60773 178.00562 464.71277Q178.8232 463.8952 178.8232 462.87872Q178.81215 461.8512 177.88408 460.90103L170.74672 453.76367ZM182.84486 452.80246Q180.64621 454.02884 179.16571 454.09512Q177.67415 454.1504 176.62454 453.10077Q175.4313 451.90753 175.60808 450.18396Q175.7738 448.44934 177.28746 446.93567Q178.32602 445.89713 179.54135 445.49936Q180.7567 445.07953 181.90575 445.3447Q183.04375 445.59882 183.88344 446.4385L182.5576 447.7643Q181.65163 446.85834 180.54677 446.92462Q179.44193 446.9688 178.38126 448.02948Q177.39793 449.01282 177.27641 449.99612Q177.16592 450.96838 177.93932 451.7418Q178.54698 452.34946 179.49716 452.26108Q180.4363 452.16165 182.03833 451.2667Q183.65141 450.36072 184.78941 450.0845Q185.91637 449.79724 186.82234 450.01822Q187.72833 450.2392 188.50172 451.0126Q189.71707 452.22794 189.50714 453.91837Q189.29723 455.6088 187.69518 457.21082Q186.66766 458.23834 185.36394 458.74658Q184.07126 459.24374 182.90012 459.0449Q181.71793 458.83496 180.83403 457.95108L182.17091 456.6142Q183.08794 457.53122 184.29224 457.3876Q185.48547 457.2329 186.60138 456.117Q187.65099 455.0674 187.79462 454.08408Q187.9272 453.08972 187.18695 452.34946Q186.4467 451.60922 185.52966 451.73074Q184.6016 451.84122 182.84486 452.80246Z" fill-rule="nonzero"/><path fill="#757575" d="M202.65709 484.86533L197.23225 473.69525L198.67961 472.2479L205.01044 486.02542L203.82823 487.2076L190.06175 480.86575L191.49806 479.42944L202.65709 484.86533ZM207.36377 471.2756L205.91641 465.01108L207.47426 463.45325L209.27518 471.61813L217.60577 473.43008L216.02583 475.01L209.63977 473.5516L211.07608 479.95978L209.50719 481.52866L207.69522 473.19806L199.53035 471.39716L201.07715 469.85034L207.36377 471.2756ZM211.13133 459.79617L222.61076 464.71277L217.70522 453.2223L219.41774 451.50977L229.47191 461.56393L228.14609 462.88977L224.2349 458.97858L220.1359 454.6144L224.97514 466.0607L223.95868 467.07718L212.54553 462.24896L216.88762 466.32587L220.7988 470.23706L219.47298 471.56287L209.41881 461.5087L211.13133 459.79617ZM231.73686 457.13348L236.50983 452.3605L237.59259 453.44327L231.49379 459.54205L221.43962 449.48788L222.76544 448.16208L231.73686 457.13348Z" fill-rule="nonzero"/><path fill="#757575" d="M225.67339 506.52048L221.46388 510.72998L223.14326 514.3097L221.78429 515.6687L215.56396 501.78064L216.72406 500.62054L230.62312 506.82983L229.26416 508.1888L225.67339 506.52048ZM220.77887 509.24948L224.20392 505.82443L217.78471 502.83026L220.77887 509.24948ZM232.47928 501.50446L228.5902 493.92514L229.89392 492.6214L234.689 502.76398L233.71672 503.73624L223.54102 498.97433L224.84474 497.6706L232.47928 501.50446ZM243.42839 494.02457Q243.09694 493.9141 242.46716 493.4169Q242.5003 495.23993 241.26288 496.47736Q240.15802 497.5822 238.82115 497.65955Q237.48427 497.73688 236.52306 496.77567Q235.36295 495.61557 235.60602 494.09088Q235.84909 492.54407 237.45113 490.94205L238.69962 489.69354L238.11404 489.10797Q237.44008 488.43402 236.63353 488.44507Q235.83804 488.44507 235.06464 489.21848Q234.37964 489.90347 234.26915 490.72107Q234.14761 491.52762 234.63374 492.01373L233.35211 493.29538Q232.7997 492.74295 232.67816 491.82593Q232.54558 490.89783 232.92122 489.92557Q233.29688 488.9312 234.11447 488.11362Q235.40715 486.82092 236.78821 486.7436Q238.15823 486.6552 239.32938 487.76004L242.76547 491.19614Q243.793 492.22366 244.65479 492.5772L244.76526 492.6877L243.42839 494.02457ZM240.3348 495.1736Q240.94247 494.56595 241.16344 493.72626Q241.39546 492.87552 241.14134 492.13528L239.60559 490.59952L238.60017 491.60495Q236.25789 493.94724 237.6279 495.31726Q238.23558 495.92493 238.97583 495.8697Q239.70503 495.8034 240.3348 495.1736ZM247.17384 486.5447L243.30685 479.20847L244.67688 477.83847L250.28954 489.46152Q251.46068 492.02478 249.94704 493.53845L249.68187 493.7594L249.1184 494.14612L248.07983 493.10754L248.45547 492.7982Q249.10735 492.14633 249.19572 491.52762Q249.29517 490.89783 248.83113 489.96976L248.35603 488.92014L238.31291 484.20242L239.70503 482.8103L247.17384 486.5447ZM257.57053 479.88242Q257.23907 479.77194 256.6093 479.27475Q256.64246 481.09778 255.40501 482.3352Q254.30017 483.44006 252.96329 483.5174Q251.6264 483.59476 250.66519 482.6335Q249.50508 481.47342 249.74817 479.94873Q249.99124 478.40192 251.59328 476.7999L252.84177 475.5514L252.25618 474.96582Q251.58223 474.29187 250.77568 474.30292Q249.9802 474.30292 249.20679 475.07632Q248.52177 475.76132 248.4113 476.57892Q248.28976 477.38547 248.7759 477.87158L247.49426 479.15323Q246.94183 478.6008 246.8203 477.68378Q246.68771 476.7557 247.06337 475.78342Q247.43903 474.78906 248.2566 473.97147Q249.5493 472.67877 250.93036 472.60144Q252.30038 472.51306 253.47153 473.61792L256.90762 477.05402Q257.93515 478.0815 258.79694 478.43506L258.9074 478.54556L257.57053 479.88242ZM254.47694 481.0315Q255.08461 480.4238 255.30559 479.5841Q255.5376 478.73337 255.2835 477.99313L253.74774 476.4574L252.74232 477.4628Q250.40002 479.80508 251.77005 481.1751Q252.37772 481.78278 253.11797 481.72754Q253.84718 481.66125 254.47694 481.0315ZM265.89008 471.56287L264.56427 472.8887L254.51009 462.83453L255.83592 461.5087L265.89008 471.56287ZM269.5803 464.35922L264.15546 453.18915L265.6028 451.7418L271.93365 465.51932L270.75143 466.7015L256.98495 460.35965L258.42126 458.92334L269.5803 464.35922ZM276.8171 452.50415L274.46375 454.85748L278.52963 458.92334L277.19275 460.26022L267.13858 450.20605L270.46417 446.88043Q272.16565 445.17896 273.85608 445.03534Q275.5465 444.8917 277.027 446.3722Q277.96616 447.3113 278.15396 448.51562Q278.3418 449.7199 277.77832 450.96838L284.40744 452.86874L284.49585 452.95712L283.0706 454.3824L276.8171 452.50415ZM273.381 453.77472L275.41394 451.7418Q276.39725 450.75848 276.47458 449.66467Q276.5409 448.5598 275.69016 447.70908Q274.751 446.76996 273.69037 446.83624Q272.64075 446.89148 271.59113 447.9411L269.56924 449.96298L273.381 453.77472Z" fill-rule="nonzero"/><path fill="#757575" d="M269.96918 508.64178L265.7597 512.85126L267.43906 516.431L266.08008 517.79L259.85977 503.90198L261.01987 502.74185L274.91895 508.95114L273.55997 510.31012L269.96918 508.64178ZM265.07468 511.3708L268.49973 507.94574L262.08054 504.95157L265.07468 511.3708ZM269.78137 499.1511L270.76468 500.04602Q270.53265 498.11252 271.91373 496.73145Q274.28915 494.35602 276.97397 497.0187L281.91266 501.95743L280.6421 503.228L275.69232 498.27826Q274.87473 497.48276 274.12344 497.46066Q273.38318 497.42752 272.60977 498.20093Q271.99106 498.81964 271.84744 499.6262Q271.71484 500.42166 271.99106 501.2282L277.31647 506.55362L276.0459 507.8242L268.57706 500.35538L269.78137 499.1511ZM279.714 496.5547Q277.96832 494.80902 277.74734 492.97495Q277.51535 491.12985 278.8522 489.79297Q280.22223 488.42294 281.95685 488.63287L281.19452 487.73795L282.3546 486.57785L289.64664 493.86987Q291.094 495.31723 291.06085 497.00766Q291.0498 498.6981 289.5914 500.1565Q288.78485 500.96304 287.66895 501.39395Q286.55304 501.82483 285.5366 501.62598L285.43713 500.2007Q287.28226 500.38852 288.46445 499.20633Q289.40356 498.2672 289.39252 497.2176Q289.39252 496.17902 288.44235 495.22885L287.7905 494.577Q287.92307 496.23428 286.59723 497.5601Q285.28247 498.87488 283.4042 498.6318Q281.53702 498.3777 279.714 496.5547ZM281.13925 495.4167Q282.40985 496.68726 283.64728 496.88614Q284.8847 497.08502 285.8128 496.15692Q287.02814 494.9416 286.4978 493.2843L283.0838 489.8703Q281.4265 489.3842 280.25537 490.55533Q279.31625 491.49445 279.51514 492.754Q279.72504 494.00247 281.13925 495.4167ZM295.4692 486.92035Q295.61285 488.5445 294.1655 489.99185Q292.97226 491.1851 291.64642 491.1188Q290.33167 491.04147 288.96164 489.69354L284.10028 484.83218L285.3819 483.55054L290.2101 488.37875Q291.90054 490.06918 293.28162 488.6881Q294.74002 487.2297 294.1434 485.66083L288.70752 480.22495L289.98914 478.9433L297.45795 486.4121L296.2426 487.62747L295.4692 486.92035ZM300.76147 483.1086L299.4909 484.37918L288.88428 473.77258L290.15488 472.502L300.76147 483.1086ZM307.5232 476.3469Q307.19174 476.23642 306.56195 475.73923Q306.5951 477.56223 305.35767 478.79968Q304.2528 479.90454 302.91595 479.98187Q301.57907 480.0592 300.61786 479.098Q299.45773 477.9379 299.7008 476.41318Q299.94388 474.8664 301.54593 473.26434L302.7944 472.01587L302.20883 471.4303Q301.53488 470.75635 300.72833 470.7674Q299.93283 470.7674 299.15942 471.54077Q298.47443 472.2258 298.36395 473.0434Q298.2424 473.8499 298.72855 474.33606L297.4469 475.6177Q296.89447 475.06528 296.77295 474.14822Q296.64038 473.22015 297.01602 472.2479Q297.39166 471.2535 298.20926 470.4359Q299.50195 469.14325 300.883 469.06592Q302.25302 468.9775 303.42416 470.08237L306.86026 473.51846Q307.8878 474.546 308.74957 474.89954L308.86005 475.01L307.5232 476.3469ZM304.4296 477.49594Q305.03726 476.88828 305.25824 476.04858Q305.49026 475.19785 305.23615 474.45758L303.70038 472.92184L302.69498 473.92728Q300.3527 476.26956 301.7227 477.6396Q302.33038 478.24725 303.07062 478.19202Q303.79984 478.1257 304.4296 477.49594ZM307.96512 463.24332Q307.63367 463.4864 307.30222 463.81784Q306.0427 465.0774 306.6614 466.60208L311.9647 471.9054L310.69412 473.17596L303.2253 465.70715L304.46274 464.46973L305.34662 465.3094Q304.97098 463.67422 306.12003 462.52518Q306.49567 462.1495 306.78293 462.06113L307.96512 463.24332ZM309.99805 453.76367L311.33493 452.4268L318.4502 459.54205Q319.89755 460.9894 319.84232 462.67984Q319.79813 464.35922 318.35077 465.80658Q316.84814 467.30917 315.24612 467.38654Q313.64407 467.44177 312.263 466.0607L313.58884 464.73486Q314.45062 465.59665 315.41183 465.6077Q316.36203 465.6077 317.25696 464.71277Q318.07455 463.89517 318.07455 462.87872Q318.0635 461.8512 317.1354 460.90103L309.99805 453.76367ZM322.09622 452.80246Q319.89755 454.02884 318.41705 454.09512Q316.9255 454.15036 315.8759 453.10077Q314.68265 451.90753 314.8594 450.18393Q315.02515 448.4493 316.5388 446.93567Q317.57736 445.8971 318.7927 445.49936Q320.00803 445.07953 321.15707 445.3447Q322.29507 445.5988 323.13477 446.43848L321.80896 447.7643Q320.90298 446.85834 319.79813 446.92462Q318.69327 446.9688 317.6326 448.02948Q316.6493 449.0128 316.52774 449.99612Q316.41727 450.96838 317.19067 451.7418Q317.79834 452.34946 318.7485 452.26108Q319.68762 452.16162 321.28967 451.2667Q322.90277 450.36072 324.04074 450.0845Q325.1677 449.79724 326.0737 450.01822Q326.97968 450.2392 327.75305 451.01257Q328.9684 452.22794 328.75848 453.91837Q328.54855 455.60876 326.94653 457.21082Q325.919 458.23834 324.6153 458.74655Q323.3226 459.24374 322.15146 459.0449Q320.96927 458.83496 320.0854 457.95108L321.42224 456.6142Q322.3393 457.53122 323.54358 457.3876Q324.73682 457.2329 325.85272 456.117Q326.90234 455.0674 327.04596 454.08408Q327.17853 453.08972 326.4383 452.34946Q325.69803 451.6092 324.781 451.73074Q323.85294 451.84122 322.09622 452.80246Z" fill-rule="nonzero"/><path fill="#757575" d="M317.005 513.28217L306.95084 503.228L310.23227 499.9466Q311.86743 498.3114 313.37006 498.1567Q314.87265 498.00204 316.1985 499.32785Q316.90558 500.03497 317.03818 500.98514Q317.1818 501.9243 316.7951 502.9076Q317.83365 502.33307 318.94955 502.4988Q320.0544 502.65347 320.9383 503.53735Q322.29727 504.89633 322.1868 506.55362Q322.08734 508.19986 320.48532 509.80188L317.005 513.28217ZM313.62418 507.24966L317.24808 510.8736L319.4357 508.68597Q320.36377 507.7579 320.419 506.75247Q320.4632 505.73602 319.62354 504.89633Q317.8005 503.07333 315.83386 505.03995L313.62418 507.24966ZM312.5635 506.189L314.5633 504.1892Q315.43613 503.31638 315.5245 502.3662Q315.60184 501.405 314.8616 500.66473Q314.03296 499.8361 313.17117 499.9466Q312.32043 500.04602 311.32608 501.04037L309.37048 502.99597L312.5635 506.189ZM321.14822 501.53757Q320.04337 500.4327 319.6014 499.129Q319.14844 497.8142 319.4357 496.57678Q319.734 495.32828 320.72836 494.33392Q322.25308 492.80923 324.25287 492.93076Q326.25266 493.03018 328.00937 494.78693L328.09775 494.8753Q329.19156 495.96912 329.64456 497.26178Q330.0865 498.54343 329.78818 499.814Q329.50092 501.07355 328.4955 502.07895Q326.98184 503.5926 324.971 503.48212Q322.97122 503.3606 321.2366 501.62598L321.14822 501.53757ZM322.5735 500.39957Q323.82196 501.64807 325.1478 501.82483Q326.48468 501.99057 327.4459 501.02933Q328.41815 500.05707 328.23035 498.72018Q328.0425 497.38333 326.6725 496.0133Q325.43506 494.77588 324.08713 494.5991Q322.7392 494.4223 321.77798 495.38354Q320.82782 496.3337 320.99353 497.6706Q321.17032 498.9964 322.5735 500.39957ZM328.9264 493.7594Q327.82153 492.65454 327.3796 491.35083Q326.9266 490.03604 327.21387 488.7986Q327.51218 487.5501 328.50656 486.55576Q330.03125 485.03104 332.03104 485.1526Q334.03082 485.252 335.78754 487.00873L335.87592 487.09714Q336.96973 488.19092 337.42273 489.4836Q337.86465 490.76523 337.56635 492.03583Q337.27908 493.29535 336.27368 494.30078Q334.76004 495.81442 332.74918 495.70395Q330.7494 495.5824 329.01477 493.84778L328.9264 493.7594ZM330.35165 492.6214Q331.60013 493.86987 332.92596 494.04666Q334.26285 494.2124 335.22406 493.25116Q336.19635 492.2789 336.0085 490.94202Q335.82068 489.60513 334.45065 488.23514Q333.21323 486.99768 331.8653 486.82092Q330.5174 486.64413 329.55615 487.60535Q328.606 488.55554 328.77173 489.8924Q328.9485 491.21823 330.35165 492.6214ZM333.29056 478.43506L335.10254 480.24704L336.5057 478.84387L337.489 479.82718L336.08585 481.23035L340.71518 485.85968Q341.16818 486.31268 341.588 486.35687Q341.99683 486.39 342.4498 485.93704Q342.67078 485.71606 342.9691 485.24097L344.00766 486.27954Q343.64307 486.9314 343.16797 487.4065Q342.31723 488.25723 341.35602 488.17987Q340.40582 488.0915 339.4446 487.13028L334.81528 482.50095L333.4563 483.8599L332.473 482.8766L333.83194 481.5176L332.02 479.70566L333.29056 478.43506ZM348.1619 478.1699Q347.64264 477.65063 346.96866 477.75006Q346.2947 477.8495 345.11252 478.61185Q343.93033 479.3742 343.06854 479.66147Q342.2178 479.93768 341.54382 479.81613Q340.86987 479.67252 340.31744 479.1201Q339.40042 478.20306 339.54404 476.7999Q339.67664 475.38568 340.89197 474.17032Q342.16254 472.89975 343.60992 472.77823Q345.05728 472.63458 346.07373 473.65106L344.78107 474.94373Q344.26178 474.42444 343.44418 474.49075Q342.61554 474.546 341.9416 475.21994Q341.23447 475.92706 341.1461 476.63416Q341.0577 477.31915 341.55487 477.81635Q342.00787 478.26935 342.61554 478.1478Q343.21216 478.01523 344.39435 477.27496Q345.5655 476.52368 346.44937 476.23642Q347.33328 475.92706 348.04037 476.05963Q348.74747 476.1922 349.34412 476.78885Q350.34952 477.79425 350.15063 479.20847Q349.96283 480.61163 348.68118 481.89325Q347.78625 482.7882 346.7698 483.16385Q345.76437 483.52844 344.80316 483.36273Q343.84192 483.1749 343.17902 482.512L344.46063 481.23035Q345.1346 481.838 345.98535 481.7386Q346.84714 481.6281 347.6316 480.84366Q348.36078 480.11444 348.50443 479.3963Q348.64804 478.65604 348.1619 478.1699ZM345.31137 466.41425L347.12335 468.22623L348.52652 466.82306L349.50983 467.80637L348.10666 469.20953L352.736 473.83887Q353.189 474.29187 353.60886 474.33606Q354.01764 474.3692 354.47064 473.91623Q354.6916 473.69525 354.9899 473.22015L356.02847 474.25873Q355.66388 474.91058 355.18878 475.38568Q354.33804 476.23642 353.37683 476.15906Q352.42664 476.07068 351.46542 475.10947L346.8361 470.4801L345.4771 471.83908L344.4938 470.85577L345.85275 469.4968L344.0408 467.68484L345.31137 466.41425ZM355.08936 462.53622Q354.7579 462.7793 354.42642 463.11075Q353.1669 464.37027 353.7856 465.89496L359.08893 471.19827L357.81833 472.46884L350.34952 465.00003L351.58694 463.7626L352.47086 464.6023Q352.09518 462.9671 353.24423 461.81805Q353.6199 461.4424 353.90717 461.35403L355.08936 462.53622ZM367.37534 462.91187Q367.04388 462.8014 366.4141 462.3042Q366.44724 464.1272 365.2098 465.36465Q364.10495 466.46948 362.7681 466.54684Q361.4312 466.62418 360.47 465.66296Q359.30988 464.50287 359.55295 462.97815Q359.79602 461.43137 361.39807 459.8293L362.64655 458.58084L362.06097 457.99527Q361.38702 457.3213 360.58047 457.33234Q359.78497 457.33234 359.01157 458.10574Q358.32657 458.79077 358.2161 459.60834Q358.09454 460.4149 358.5807 460.90103L357.29904 462.18265Q356.7466 461.63025 356.6251 460.7132Q356.49252 459.78513 356.86816 458.81287Q357.2438 457.81848 358.0614 457.0009Q359.3541 455.70822 360.73514 455.6309Q362.10516 455.54248 363.2763 456.64734L366.7124 460.08344Q367.73993 461.11096 368.6017 461.4645L368.7122 461.57498L367.37534 462.91187ZM364.28174 464.0609Q364.8894 463.45325 365.11038 462.61356Q365.3424 461.76282 365.0883 461.02255L363.55252 459.48682L362.54712 460.49225Q360.20483 462.83453 361.57483 464.20456Q362.18253 464.81223 362.92276 464.75696Q363.65198 464.69067 364.28174 464.0609ZM373.1979 449.77515Q374.91043 451.48767 375.1756 453.32172Q375.44077 455.1337 374.10388 456.47055Q372.7449 457.82953 371.08765 457.74115L374.68945 461.343L373.41888 462.61356L363.07745 452.27213L364.23755 451.11203L365.13248 451.87436Q364.9336 450.1287 366.3257 448.73657Q367.67365 447.38867 369.47455 447.62067Q371.27545 447.8527 373.08743 449.66467L373.1979 449.77515ZM371.77264 450.91315Q370.51312 449.65363 369.24252 449.4658Q367.97195 449.25586 367.0328 450.19498Q365.8727 451.3551 366.31467 452.96817L369.8944 456.5479Q371.48538 456.98984 372.66757 455.80765Q373.5846 454.89062 373.3968 453.62003Q373.20895 452.34946 371.77264 450.91315Z" fill-rule="nonzero"/><path fill="#757575" d="M404.39014 465.92813Q405.80435 467.718 405.6828 469.58517Q405.56128 471.4303 403.91504 473.07654Q402.13623 474.85535 399.77185 474.65646Q397.4185 474.44653 395.2751 472.30313L394.31384 471.3419Q392.9107 469.93875 392.34723 468.3809Q391.7948 466.812 392.1373 465.32043Q392.4798 463.8289 393.69513 462.61356Q395.29718 461.0115 397.15332 460.94522Q399.02054 460.8679 400.75516 462.29315L399.41827 463.63Q398.05933 462.6025 396.93237 462.6467Q395.81647 462.67984 394.78894 463.70737Q393.51837 464.97794 393.72827 466.64627Q393.94925 468.30356 395.68387 470.03818L396.65616 471.01044Q398.29132 472.64563 399.9486 472.9329Q401.59485 473.2091 402.82123 471.98273Q403.9261 470.87787 404.01447 469.7951Q404.11392 468.7013 403.05325 467.26498L404.39014 465.92813ZM407.45056 458.47034L410.2569 455.66403L411.4612 456.86832L408.65488 459.67465L411.83685 462.85663L410.5552 464.13824L407.37323 460.95627L404.5669 463.7626L403.3626 462.55832L406.16895 459.75198L403.23004 456.81308L404.51166 455.53143L407.45056 458.47034ZM415.22876 450.69217L418.0351 447.88583L419.23938 449.09015L416.43304 451.89645L419.61502 455.07846L418.3334 456.36008L415.1514 453.1781L412.3451 455.98444L411.14078 454.78012L413.9471 451.97382L411.0082 449.03488L412.28983 447.75327L415.22876 450.69217Z" fill-rule="nonzero"/><path fill="#757575" d="M452.26562 470.85577L450.93982 472.1816L440.88562 462.12744L442.21146 460.8016L452.26562 470.85577ZM454.38696 468.73447L444.33276 458.6803L447.17224 455.84082Q448.47598 454.53708 450.06696 454.11725Q451.65796 453.6753 453.27106 454.20563Q454.89517 454.7249 456.2873 456.09494L456.9281 456.73575Q458.35336 458.161 458.87265 459.78516Q459.39194 461.40927 458.95 463.00027Q458.50806 464.59125 457.17117 465.95023L454.38696 468.73447ZM446.7524 458.44827L454.63 466.3259L456.02213 464.93378Q457.5579 463.398 457.45844 461.5971Q457.34796 459.78516 455.59125 458.02844L455.00568 457.44284Q453.29315 455.73032 451.53644 455.5867Q449.7797 455.44305 448.2992 456.9015L446.7524 458.44827ZM463.82242 457.13348L468.59537 452.36053L469.67813 453.44327L463.57935 459.54208L453.52518 449.4879L454.85098 448.16208L463.82242 457.13348Z" fill-rule="nonzero"/><path fill="#757575" d="M462.50983 498.0573Q460.31116 499.2837 458.83066 499.34998Q457.33908 499.4052 456.2895 498.35562Q455.09625 497.16235 455.273 495.43878Q455.43875 493.70416 456.9524 492.19052Q457.99097 491.15195 459.2063 490.7542Q460.42163 490.33438 461.57068 490.59952Q462.70868 490.85364 463.54837 491.69333L462.22256 493.01917Q461.31656 492.1132 460.2117 492.17947Q459.10687 492.22366 458.0462 493.28433Q457.06287 494.26764 456.94135 495.25098Q456.83087 496.22324 457.60425 496.99664Q458.2119 497.6043 459.1621 497.51593Q460.10123 497.41647 461.70328 496.52155Q463.31635 495.61557 464.45435 495.33936Q465.5813 495.0521 466.48727 495.27307Q467.39328 495.49405 468.16666 496.26743Q469.38202 497.4828 469.1721 499.1732Q468.96216 500.86362 467.3601 502.46567Q466.3326 503.4932 465.02887 504.0014Q463.7362 504.4986 462.56506 504.2997Q461.38287 504.0898 460.49896 503.20593L461.83585 501.86905Q462.75287 502.78607 463.95718 502.64246Q465.15042 502.48776 466.26633 501.37186Q467.31592 500.32227 467.45956 499.33893Q467.59213 498.34457 466.8519 497.6043Q466.11163 496.86404 465.1946 496.9856Q464.26654 497.09607 462.50983 498.0573ZM475.49185 484.63333Q476.95026 486.09174 477.54688 487.61642Q478.13245 489.13007 477.88937 490.56638L481.09348 490.16864L481.02716 491.9143L477.21542 492.3452Q476.85083 492.97498 476.2984 493.5274Q475.1162 494.7096 473.60254 495.0521Q472.09995 495.38354 470.50897 494.80902Q468.91797 494.2345 467.48166 492.82028L466.7635 492.10214Q465.31613 490.6548 464.69742 489.0417Q464.08975 487.41754 464.4212 485.91495Q464.75266 484.39026 465.94592 483.19702Q467.16125 481.98166 468.6749 481.66125Q470.18854 481.31876 471.7906 481.92642Q473.3816 482.52304 474.85104 483.9925L475.49185 484.63333ZM473.5252 485.31833Q471.7464 483.53952 470.07806 483.2854Q468.40973 483.03128 467.09497 484.34607Q465.84647 485.59454 466.0785 487.28497Q466.31052 488.9533 467.97885 490.66583L468.7191 491.40607Q470.4537 493.1407 472.16623 493.4169Q473.8898 493.68207 475.17145 492.40045Q476.45306 491.1188 476.22107 489.4726Q475.98904 487.82635 474.26547 486.0586L473.5252 485.31833ZM482.66235 484.71066L487.43533 479.93768L488.5181 481.02045L482.41928 487.11923L472.3651 477.06506L473.69095 475.73923L482.66235 484.71066ZM487.59 474.08197L491.5233 478.01523L490.19745 479.34106L480.14328 469.2869L483.84454 465.58563Q485.50183 463.92834 487.2696 463.83997Q489.0484 463.7405 490.44052 465.13263Q491.90997 466.60208 491.78845 468.3146Q491.65588 470.01608 489.9544 471.71756L487.59 474.08197ZM486.50726 472.9992L488.8827 470.62378Q489.9544 469.55206 490.0207 468.4914Q490.07593 467.41968 489.12576 466.4695Q488.23083 465.5746 487.13702 465.60773Q486.03217 465.62982 485.0157 466.60208L482.56293 469.05487L486.50726 472.9992ZM500.57205 468.9665L499.30145 470.23706L488.69485 459.63046L489.96545 458.3599L500.57205 468.9665ZM506.59348 461.46454Q506.73712 463.08868 505.28976 464.53604Q504.0965 465.72928 502.7707 465.663Q501.4559 465.58566 500.08588 464.23773L495.22452 459.37637L496.50616 458.09473L501.33438 462.92294Q503.0248 464.61337 504.40585 463.2323Q505.8643 461.7739 505.26764 460.20502L499.83176 454.76913L501.1134 453.4875L508.5822 460.9563L507.36688 462.17166L506.59348 461.46454ZM512.8691 452.7141Q512.3498 452.19482 511.6758 452.29425Q511.00186 452.39368 509.81964 453.15604Q508.63745 453.9184 507.77567 454.20566Q506.92493 454.48187 506.25098 454.36032Q505.57703 454.2167 505.0246 453.66428Q504.10754 452.74725 504.2512 451.3441Q504.38376 449.92987 505.59912 448.71454Q506.8697 447.44394 508.31705 447.32242Q509.7644 447.17877 510.78088 448.19525L509.4882 449.4879Q508.9689 448.96863 508.15134 449.03494Q507.3227 449.09018 506.6487 449.76413Q505.94162 450.47125 505.85324 451.17834Q505.76483 451.86337 506.26202 452.36053Q506.71503 452.81354 507.3227 452.69202Q507.9193 452.55942 509.1015 451.81915Q510.27264 451.06787 511.15652 450.7806Q512.0404 450.47125 512.7475 450.60382Q513.45465 450.73642 514.0513 451.33304Q515.05664 452.33844 514.8578 453.75266Q514.67 455.15582 513.3883 456.43747Q512.4934 457.3324 511.47693 457.70804Q510.47153 458.07263 509.51028 457.90692Q508.54907 457.7191 507.88617 457.05618L509.1678 455.77454Q509.84174 456.3822 510.69247 456.28278Q511.55426 456.1723 512.33875 455.38785Q513.06793 454.65863 513.21155 453.9405Q513.35516 453.20023 512.8691 452.7141Z" fill-rule="nonzero"/><path fill="#b7b7b7" d="M213.87717 72.91879C213.87717 72.36651 214.32489 71.91879 214.87717 71.91879L224.87717 71.91879C225.42946 71.91879 225.87717 72.36651 225.87717 72.91879L225.87717 82.91879C225.87717 83.47108 225.42946 83.91879 224.87717 83.91879L214.87717 83.91879C214.32489 83.91879 213.87717 83.47108 213.87717 82.91879Z" fill-rule="nonzero"/><path fill="#757575" d="M236.00217 81.49692L240.04904 81.49692L240.04904 82.41879L234.86154 82.41879L234.86154 73.88754L236.00217 73.88754L236.00217 81.49692ZM244.61154 82.41879Q244.51779 82.23129 244.45529 81.74692Q243.70529 82.54379 242.65842 82.54379Q241.72092 82.54379 241.11154 82.01254Q240.51779 81.48129 240.51779 80.65317Q240.51779 79.66879 241.26779 79.12192Q242.01779 78.57504 243.39279 78.57504L244.43967 78.57504L244.43967 78.07504Q244.43967 77.51254 244.09592 77.18442Q243.76779 76.84067 243.09592 76.84067Q242.51779 76.84067 242.12717 77.13754Q241.73654 77.41879 241.73654 77.84067L240.64279 77.84067Q240.64279 77.35629 240.97092 76.91879Q241.31467 76.48129 241.89279 76.23129Q242.47092 75.96567 243.15842 75.96567Q244.26779 75.96567 244.87717 76.51254Q245.50217 77.05942 245.53342 78.01254L245.53342 80.93442Q245.53342 81.80942 245.75217 82.32504L245.75217 82.41879L244.61154 82.41879ZM242.81467 81.59067Q243.33029 81.59067 243.78342 81.32504Q244.23654 81.05942 244.43967 80.63754L244.43967 79.34067L243.59592 79.34067Q241.59592 79.34067 241.59592 80.51254Q241.59592 81.01254 241.93967 81.30942Q242.28342 81.59067 242.81467 81.59067ZM251.39279 80.73129Q251.39279 80.29379 251.04904 80.05942Q250.72092 79.80942 249.89279 79.63754Q249.08029 79.46567 248.59592 79.21567Q248.11154 78.96567 247.87717 78.63754Q247.65842 78.29379 247.65842 77.82504Q247.65842 77.04379 248.31467 76.51254Q248.97092 75.96567 250.00217 75.96567Q251.08029 75.96567 251.73654 76.52817Q252.40842 77.07504 252.40842 77.93442L251.33029 77.93442Q251.33029 77.49692 250.93967 77.18442Q250.56467 76.85629 250.00217 76.85629Q249.40842 76.85629 249.06467 77.12192Q248.73654 77.37192 248.73654 77.77817Q248.73654 78.16879 249.04904 78.37192Q249.36154 78.57504 250.17404 78.76254Q250.98654 78.93442 251.48654 79.18442Q251.98654 79.43442 252.22092 79.79379Q252.47092 80.15317 252.47092 80.65317Q252.47092 81.51254 251.78342 82.02817Q251.11154 82.54379 250.03342 82.54379Q249.26779 82.54379 248.67404 82.27817Q248.09592 81.99692 247.76779 81.51254Q247.43967 81.02817 247.43967 80.46567L248.51779 80.46567Q248.54904 81.01254 248.95529 81.34067Q249.36154 81.65317 250.03342 81.65317Q250.64279 81.65317 251.01779 81.40317Q251.39279 81.15317 251.39279 80.73129ZM255.17404 74.54379L255.17404 76.07504L256.34592 76.07504L256.34592 76.91879L255.17404 76.91879L255.17404 80.84067Q255.17404 81.23129 255.33029 81.41879Q255.48654 81.60629 255.86154 81.60629Q256.04904 81.60629 256.37717 81.54379L256.37717 82.41879Q255.95529 82.54379 255.54904 82.54379Q254.83029 82.54379 254.45529 82.10629Q254.08029 81.65317 254.08029 80.84067L254.08029 76.91879L252.92404 76.91879L252.92404 76.07504L254.08029 76.07504L254.08029 74.54379L255.17404 74.54379ZM266.87717 73.88754L266.87717 79.68442Q266.86154 80.88754 266.11154 81.66879Q265.36154 82.43442 264.0803 82.52817L263.7678 82.54379Q262.37717 82.54379 261.53342 81.79379Q260.7053 81.02817 260.7053 79.70004L260.7053 73.88754L261.81467 73.88754L261.81467 79.66879Q261.81467 80.59067 262.31467 81.10629Q262.8303 81.62192 263.7678 81.62192Q264.73654 81.62192 265.23654 81.10629Q265.73654 80.59067 265.73654 79.66879L265.73654 73.88754L266.87717 73.88754ZM272.3928 80.73129Q272.3928 80.29379 272.04904 80.05942Q271.72092 79.80942 270.8928 79.63754Q270.0803 79.46567 269.59592 79.21567Q269.11154 78.96567 268.87717 78.63754Q268.65842 78.29379 268.65842 77.82504Q268.65842 77.04379 269.31467 76.51254Q269.97092 75.96567 271.00217 75.96567Q272.0803 75.96567 272.73654 76.52817Q273.40842 77.07504 273.40842 77.93442L272.3303 77.93442Q272.3303 77.49692 271.93967 77.18442Q271.56467 76.85629 271.00217 76.85629Q270.40842 76.85629 270.06467 77.12192Q269.73654 77.37192 269.73654 77.77817Q269.73654 78.16879 270.04904 78.37192Q270.36154 78.57504 271.17404 78.76254Q271.98654 78.93442 272.48654 79.18442Q272.98654 79.43442 273.22092 79.79379Q273.47092 80.15317 273.47092 80.65317Q273.47092 81.51254 272.78342 82.02817Q272.11154 82.54379 271.03342 82.54379Q270.2678 82.54379 269.67404 82.27817Q269.09592 81.99692 268.7678 81.51254Q268.43967 81.02817 268.43967 80.46567L269.5178 80.46567Q269.54904 81.01254 269.9553 81.34067Q270.36154 81.65317 271.03342 81.65317Q271.6428 81.65317 272.0178 81.40317Q272.3928 81.15317 272.3928 80.73129ZM277.3303 82.54379Q276.03342 82.54379 275.22092 81.70004Q274.42404 80.84067 274.42404 79.41879L274.42404 79.23129Q274.42404 78.27817 274.78342 77.54379Q275.1428 76.79379 275.78342 76.38754Q276.43967 75.96567 277.18967 75.96567Q278.42404 75.96567 279.11154 76.77817Q279.79904 77.59067 279.79904 79.10629L279.79904 79.55942L275.50217 79.55942Q275.53342 80.49692 276.04904 81.07504Q276.5803 81.65317 277.3928 81.65317Q277.9553 81.65317 278.34592 81.41879Q278.75217 81.18442 279.06467 80.79379L279.72092 81.30942Q278.92404 82.54379 277.3303 82.54379ZM277.18967 76.85629Q276.53342 76.85629 276.0803 77.34067Q275.6428 77.80942 275.54904 78.66879L278.72092 78.66879L278.72092 78.59067Q278.67404 77.76254 278.2678 77.30942Q277.87717 76.85629 277.18967 76.85629ZM280.43967 79.20004Q280.43967 77.73129 281.12717 76.85629Q281.81467 75.96567 282.93967 75.96567Q284.04904 75.96567 284.7053 76.71567L284.7053 73.41879L285.78342 73.41879L285.78342 82.41879L284.78342 82.41879L284.73654 81.73129Q284.0803 82.54379 282.92404 82.54379Q281.8303 82.54379 281.12717 81.63754Q280.43967 80.73129 280.43967 79.27817L280.43967 79.20004ZM281.5178 79.32504Q281.5178 80.40317 281.9553 81.01254Q282.40842 81.62192 283.18967 81.62192Q284.22092 81.62192 284.7053 80.68442L284.7053 77.77817Q284.22092 76.88754 283.2053 76.88754Q282.40842 76.88754 281.9553 77.49692Q281.5178 78.10629 281.5178 79.32504Z" fill-rule="nonzero"/><path fill="#4285f4" d="M302.87717 72.91879C302.87717 72.36651 303.3249 71.91879 303.87717 71.91879L313.87717 71.91879C314.42944 71.91879 314.87717 72.36651 314.87717 72.91879L314.87717 82.91879C314.87717 83.47108 314.42944 83.91879 313.87717 83.91879L303.87717 83.91879C303.3249 83.91879 302.87717 83.47108 302.87717 82.91879Z" fill-rule="nonzero"/><path fill="#757575" d="M328.68967 78.48129L324.98654 78.48129L324.98654 81.49692L329.28342 81.49692L329.28342 82.41879L323.86154 82.41879L323.86154 73.88754L329.23654 73.88754L329.23654 74.80942L324.98654 74.80942L324.98654 77.55942L328.68967 77.55942L328.68967 78.48129ZM332.8303 78.38754L334.23654 76.07504L335.50217 76.07504L333.42404 79.21567L335.56467 82.41879L334.31467 82.41879L332.84592 80.04379L331.37717 82.41879L330.11154 82.41879L332.25217 79.21567L330.18967 76.07504L331.43967 76.07504L332.8303 78.38754ZM342.04904 79.32504Q342.04904 80.76254 341.3928 81.65317Q340.73654 82.54379 339.59592 82.54379Q338.43967 82.54379 337.78342 81.80942L337.78342 84.85629L336.7053 84.85629L336.7053 76.07504L337.68967 76.07504L337.73654 76.77817Q338.40842 75.96567 339.5803 75.96567Q340.72092 75.96567 341.37717 76.82504Q342.04904 77.68442 342.04904 79.21567L342.04904 79.32504ZM340.97092 79.20004Q340.97092 78.12192 340.50217 77.51254Q340.04904 76.88754 339.25217 76.88754Q338.2678 76.88754 337.78342 77.74692L337.78342 80.77817Q338.2678 81.65317 339.2678 81.65317Q340.04904 81.65317 340.50217 81.04379Q340.97092 80.41879 340.97092 79.20004ZM346.3303 82.54379Q345.03342 82.54379 344.22092 81.70004Q343.42404 80.84067 343.42404 79.41879L343.42404 79.23129Q343.42404 78.27817 343.78342 77.54379Q344.1428 76.79379 344.78342 76.38754Q345.43967 75.96567 346.18967 75.96567Q347.42404 75.96567 348.11154 76.77817Q348.79904 77.59067 348.79904 79.10629L348.79904 79.55942L344.50217 79.55942Q344.53342 80.49692 345.04904 81.07504Q345.5803 81.65317 346.3928 81.65317Q346.9553 81.65317 347.34592 81.41879Q347.75217 81.18442 348.06467 80.79379L348.72092 81.30942Q347.92404 82.54379 346.3303 82.54379ZM346.18967 76.85629Q345.53342 76.85629 345.0803 77.34067Q344.6428 77.80942 344.54904 78.66879L347.72092 78.66879L347.72092 78.59067Q347.67404 77.76254 347.2678 77.30942Q346.87717 76.85629 346.18967 76.85629ZM352.7678 77.04379Q352.5178 77.01254 352.23654 77.01254Q351.15842 77.01254 350.78342 77.91879L350.78342 82.41879L349.7053 82.41879L349.7053 76.07504L350.75217 76.07504L350.7678 76.80942Q351.29904 75.96567 352.28342 75.96567Q352.59592 75.96567 352.7678 76.04379L352.7678 77.04379ZM354.87717 82.41879L353.79904 82.41879L353.79904 76.07504L354.87717 76.07504L354.87717 82.41879ZM353.7053 74.40317Q353.7053 74.13754 353.86154 73.95004Q354.03342 73.76254 354.34592 73.76254Q354.65842 73.76254 354.81467 73.95004Q354.98654 74.13754 354.98654 74.40317Q354.98654 74.65317 354.81467 74.84067Q354.65842 75.01254 354.34592 75.01254Q354.03342 75.01254 353.86154 74.84067Q353.7053 74.65317 353.7053 74.40317ZM359.3303 82.54379Q358.03342 82.54379 357.22092 81.70004Q356.42404 80.84067 356.42404 79.41879L356.42404 79.23129Q356.42404 78.27817 356.78342 77.54379Q357.1428 76.79379 357.78342 76.38754Q358.43967 75.96567 359.18967 75.96567Q360.42404 75.96567 361.11154 76.77817Q361.79904 77.59067 361.79904 79.10629L361.79904 79.55942L357.50217 79.55942Q357.53342 80.49692 358.04904 81.07504Q358.5803 81.65317 359.3928 81.65317Q359.9553 81.65317 360.34592 81.41879Q360.75217 81.18442 361.06467 80.79379L361.72092 81.30942Q360.92404 82.54379 359.3303 82.54379ZM359.18967 76.85629Q358.53342 76.85629 358.0803 77.34067Q357.6428 77.80942 357.54904 78.66879L360.72092 78.66879L360.72092 78.59067Q360.67404 77.76254 360.2678 77.30942Q359.87717 76.85629 359.18967 76.85629ZM363.72092 76.07504L363.75217 76.87192Q364.48654 75.96567 365.65842 75.96567Q367.67404 75.96567 367.68967 78.23129L367.68967 82.41879L366.59592 82.41879L366.59592 78.21567Q366.59592 77.54379 366.28342 77.21567Q365.98654 76.88754 365.3303 76.88754Q364.79904 76.88754 364.3928 77.16879Q364.00217 77.45004 363.78342 77.90317L363.78342 82.41879L362.7053 82.41879L362.7053 76.07504L363.72092 76.07504ZM372.23654 81.65317Q372.81467 81.65317 373.25217 81.30942Q373.68967 80.95004 373.73654 80.41879L374.7678 80.41879Q374.73654 80.96567 374.37717 81.46567Q374.03342 81.95004 373.4553 82.24692Q372.8928 82.54379 372.23654 82.54379Q370.93967 82.54379 370.17404 81.68442Q369.42404 80.80942 369.42404 79.30942L369.42404 79.12192Q369.42404 78.20004 369.75217 77.48129Q370.09592 76.76254 370.72092 76.37192Q371.36154 75.96567 372.23654 75.96567Q373.29904 75.96567 374.00217 76.60629Q374.72092 77.23129 374.7678 78.26254L373.73654 78.26254Q373.68967 77.63754 373.2678 77.24692Q372.84592 76.85629 372.23654 76.85629Q371.40842 76.85629 370.9553 77.45004Q370.50217 78.04379 370.50217 79.16879L370.50217 79.37192Q370.50217 80.46567 370.9553 81.05942Q371.40842 81.65317 372.23654 81.65317ZM378.3303 82.54379Q377.03342 82.54379 376.22092 81.70004Q375.42404 80.84067 375.42404 79.41879L375.42404 79.23129Q375.42404 78.27817 375.78342 77.54379Q376.1428 76.79379 376.78342 76.38754Q377.43967 75.96567 378.18967 75.96567Q379.42404 75.96567 380.11154 76.77817Q380.79904 77.59067 380.79904 79.10629L380.79904 79.55942L376.50217 79.55942Q376.53342 80.49692 377.04904 81.07504Q377.5803 81.65317 378.3928 81.65317Q378.9553 81.65317 379.34592 81.41879Q379.75217 81.18442 380.06467 80.79379L380.72092 81.30942Q379.92404 82.54379 378.3303 82.54379ZM378.18967 76.85629Q377.53342 76.85629 377.0803 77.34067Q376.6428 77.80942 376.54904 78.66879L379.72092 78.66879L379.72092 78.59067Q379.67404 77.76254 379.2678 77.30942Q378.87717 76.85629 378.18967 76.85629Z" fill-rule="nonzero"/><path fill="#1e375f" d="M215.61154 39.497963L215.61154 46.185463L213.36154 46.185463L213.36154 29.122963L219.65842 29.122963Q222.45529 29.122963 224.03342 30.560463Q225.62717 31.982338 225.62717 34.341713Q225.62717 36.826088 224.06467 38.169838Q222.51779 39.497963 219.62717 39.497963L215.61154 39.497963ZM215.61154 37.669838L219.65842 37.669838Q221.45529 37.669838 222.40842 36.826088Q223.37717 35.966713 223.37717 34.357338Q223.37717 32.841713 222.40842 31.935463Q221.45529 31.013588 219.78342 30.966713L215.61154 30.966713L215.61154 37.669838ZM235.84592 46.185463Q235.65842 45.810463 235.54904 44.841713Q234.03342 46.419838 231.93967 46.419838Q230.06467 46.419838 228.86154 45.357338Q227.65842 44.294838 227.65842 42.669838Q227.65842 40.685463 229.15842 39.591713Q230.67404 38.497963 233.39279 38.497963L235.50217 38.497963L235.50217 37.497963Q235.50217 36.357338 234.81467 35.685463Q234.14279 35.013588 232.83029 35.013588Q231.65842 35.013588 230.87717 35.607338Q230.09592 36.185463 230.09592 37.013588L227.90842 37.013588Q227.90842 36.076088 228.58029 35.185463Q229.26779 34.294838 230.40842 33.779213Q231.56467 33.263588 232.95529 33.263588Q235.14279 33.263588 236.37717 34.372963Q237.62717 35.466713 237.67404 37.388588L237.67404 43.216713Q237.67404 44.966713 238.12717 45.997963L238.12717 46.185463L235.84592 46.185463ZM232.25217 44.529213Q233.26779 44.529213 234.17404 44.013588Q235.09592 43.482338 235.50217 42.638588L235.50217 40.029213L233.81467 40.029213Q229.83029 40.029213 229.83029 42.357338Q229.83029 43.388588 230.50217 43.966713Q231.18967 44.529213 232.25217 44.529213ZM248.40842 42.826088Q248.40842 41.935463 247.73654 41.451088Q247.08029 40.966713 245.42404 40.622963Q243.78342 40.263588 242.81467 39.779213Q241.84592 39.279213 241.37717 38.607338Q240.92404 37.919838 240.92404 36.982338Q240.92404 35.419838 242.23654 34.341713Q243.56467 33.263588 245.61154 33.263588Q247.76779 33.263588 249.11154 34.388588Q250.45529 35.497963 250.45529 37.232338L248.26779 37.232338Q248.26779 36.341713 247.51779 35.701088Q246.76779 35.044838 245.61154 35.044838Q244.42404 35.044838 243.75217 35.560463Q243.09592 36.076088 243.09592 36.919838Q243.09592 37.701088 243.70529 38.107338Q244.33029 38.497963 245.95529 38.857338Q247.58029 39.216713 248.58029 39.732338Q249.59592 40.232338 250.08029 40.951088Q250.56467 41.654213 250.56467 42.669838Q250.56467 44.372963 249.20529 45.404213Q247.84592 46.419838 245.68967 46.419838Q244.15842 46.419838 242.98654 45.888588Q241.81467 45.341713 241.14279 44.372963Q240.48654 43.404213 240.48654 42.279213L242.65842 42.279213Q242.72092 43.372963 243.53342 44.013588Q244.34592 44.654213 245.68967 44.654213Q246.90842 44.654213 247.65842 44.154213Q248.40842 43.654213 248.40842 42.826088ZM255.95529 30.435463L255.95529 33.497963L258.3303 33.497963L258.3303 35.185463L255.95529 35.185463L255.95529 43.044838Q255.95529 43.810463 256.2678 44.185463Q256.59592 44.560463 257.36154 44.560463Q257.73654 44.560463 258.3928 44.419838L258.3928 46.185463Q257.53342 46.419838 256.72092 46.419838Q255.26779 46.419838 254.53342 45.544838Q253.79904 44.654213 253.79904 43.044838L253.79904 35.185463L251.48654 35.185463L251.48654 33.497963L253.79904 33.497963L253.79904 30.435463L255.95529 30.435463ZM277.00217 38.294838L269.61154 38.294838L269.61154 44.341713L278.2053 44.341713L278.2053 46.185463L267.36154 46.185463L267.36154 29.122963L278.0803 29.122963L278.0803 30.966713L269.61154 30.966713L269.61154 36.451088L277.00217 36.451088L277.00217 38.294838ZM285.2678 38.138588L288.0803 33.497963L290.61154 33.497963L286.47092 39.779213L290.75217 46.185463L288.23654 46.185463L285.31467 41.435463L282.37717 46.185463L279.86154 46.185463L284.1428 39.779213L279.98654 33.497963L282.50217 33.497963L285.2678 38.138588ZM303.73654 39.982338Q303.73654 42.872963 302.40842 44.654213Q301.0803 46.419838 298.81467 46.419838Q296.5178 46.419838 295.18967 44.951088L295.18967 51.060463L293.0178 51.060463L293.0178 33.497963L295.00217 33.497963L295.11154 34.904213Q296.42404 33.263588 298.78342 33.263588Q301.06467 33.263588 302.3928 34.997963Q303.73654 36.716713 303.73654 39.779213L303.73654 39.982338ZM301.56467 39.732338Q301.56467 37.591713 300.6428 36.357338Q299.73654 35.107338 298.1428 35.107338Q296.17404 35.107338 295.18967 36.857338L295.18967 42.919838Q296.15842 44.654213 298.15842 44.654213Q299.72092 44.654213 300.6428 43.419838Q301.56467 42.169838 301.56467 39.732338ZM311.28342 46.419838Q308.7053 46.419838 307.0803 44.732338Q305.47092 43.029213 305.47092 40.201088L305.47092 39.794838Q305.47092 37.904213 306.18967 36.435463Q306.90842 34.951088 308.2053 34.107338Q309.50217 33.263588 311.0178 33.263588Q313.48654 33.263588 314.84592 34.904213Q316.22092 36.529213 316.22092 39.560463L316.22092 40.466713L307.6428 40.466713Q307.68967 42.341713 308.73654 43.497963Q309.78342 44.654213 311.3928 44.654213Q312.54904 44.654213 313.34592 44.185463Q314.1428 43.716713 314.73654 42.935463L316.06467 43.966713Q314.47092 46.419838 311.28342 46.419838ZM311.0178 35.044838Q309.7053 35.044838 308.81467 36.013588Q307.92404 36.966713 307.7053 38.685463L314.06467 38.685463L314.06467 38.513588Q313.97092 36.872963 313.17404 35.966713Q312.37717 35.044838 311.0178 35.044838ZM325.1428 35.451088Q324.65842 35.372963 324.0803 35.372963Q321.9553 35.372963 321.18967 37.185463L321.18967 46.185463L319.0178 46.185463L319.0178 33.497963L321.12717 33.497963L321.15842 34.966713Q322.23654 33.263588 324.18967 33.263588Q324.81467 33.263588 325.1428 33.435463L325.1428 35.451088ZM329.37717 46.185463L327.2053 46.185463L327.2053 33.497963L329.37717 33.497963L329.37717 46.185463ZM327.03342 30.138588Q327.03342 29.607338 327.34592 29.247963Q327.67404 28.888588 328.29904 28.888588Q328.93967 28.888588 329.2678 29.247963Q329.59592 29.607338 329.59592 30.138588Q329.59592 30.669838 329.2678 31.029213Q328.93967 31.372963 328.29904 31.372963Q327.67404 31.372963 327.34592 31.029213Q327.03342 30.669838 327.03342 30.138588ZM338.28342 46.419838Q335.7053 46.419838 334.0803 44.732338Q332.47092 43.029213 332.47092 40.201088L332.47092 39.794838Q332.47092 37.904213 333.18967 36.435463Q333.90842 34.951088 335.2053 34.107338Q336.50217 33.263588 338.0178 33.263588Q340.48654 33.263588 341.84592 34.904213Q343.22092 36.529213 343.22092 39.560463L343.22092 40.466713L334.6428 40.466713Q334.68967 42.341713 335.73654 43.497963Q336.78342 44.654213 338.3928 44.654213Q339.54904 44.654213 340.34592 44.185463Q341.1428 43.716713 341.73654 42.935463L343.06467 43.966713Q341.47092 46.419838 338.28342 46.419838ZM338.0178 35.044838Q336.7053 35.044838 335.81467 36.013588Q334.92404 36.966713 334.7053 38.685463L341.06467 38.685463L341.06467 38.513588Q340.97092 36.872963 340.17404 35.966713Q339.37717 35.044838 338.0178 35.044838ZM348.06467 33.497963L348.1428 35.091713Q349.59592 33.263588 351.93967 33.263588Q355.9553 33.263588 355.98654 37.810463L355.98654 46.185463L353.8303 46.185463L353.8303 37.794838Q353.81467 36.419838 353.18967 35.763588Q352.5803 35.107338 351.28342 35.107338Q350.22092 35.107338 349.42404 35.669838Q348.62717 36.232338 348.18967 37.154213L348.18967 46.185463L346.0178 46.185463L346.0178 33.497963L348.06467 33.497963ZM364.11154 44.654213Q365.2678 44.654213 366.12717 43.951088Q367.00217 43.247963 367.09592 42.185463L369.1428 42.185463Q369.0803 43.279213 368.3928 44.263588Q367.7053 45.247963 366.54904 45.841713Q365.3928 46.419838 364.11154 46.419838Q361.5178 46.419838 359.98654 44.701088Q358.4553 42.966713 358.4553 39.966713L358.4553 39.591713Q358.4553 37.747963 359.12717 36.310463Q359.81467 34.857338 361.0803 34.060463Q362.36154 33.263588 364.09592 33.263588Q366.22092 33.263588 367.62717 34.544838Q369.04904 35.826088 369.1428 37.857338L367.09592 37.857338Q367.00217 36.638588 366.15842 35.841713Q365.3303 35.044838 364.09592 35.044838Q362.43967 35.044838 361.53342 36.247963Q360.62717 37.435463 360.62717 39.685463L360.62717 40.091713Q360.62717 42.279213 361.5178 43.466713Q362.42404 44.654213 364.11154 44.654213ZM377.28342 46.419838Q374.7053 46.419838 373.0803 44.732338Q371.47092 43.029213 371.47092 40.201088L371.47092 39.794838Q371.47092 37.904213 372.18967 36.435463Q372.90842 34.951088 374.2053 34.107338Q375.50217 33.263588 377.0178 33.263588Q379.48654 33.263588 380.84592 34.904213Q382.22092 36.529213 382.22092 39.560463L382.22092 40.466713L373.6428 40.466713Q373.68967 42.341713 374.73654 43.497963Q375.78342 44.654213 377.3928 44.654213Q378.54904 44.654213 379.34592 44.185463Q380.1428 43.716713 380.73654 42.935463L382.06467 43.966713Q380.47092 46.419838 377.28342 46.419838ZM377.0178 35.044838Q375.7053 35.044838 374.81467 36.013588Q373.92404 36.966713 373.7053 38.685463L380.06467 38.685463L380.06467 38.513588Q379.97092 36.872963 379.17404 35.966713Q378.37717 35.044838 377.0178 35.044838Z" fill-rule="nonzero"/></svg>