<svg version="1.1" viewBox="0.0 0.0 910.0 547.0" fill="none" stroke="none" stroke-linecap="square" stroke-miterlimit="10" width="910" height="547" xmlns:xlink="http://www.w3.org/1999/xlink" xmlns="http://www.w3.org/2000/svg"><path fill="#ffffff" d="M0 0L910.0 0L910.0 547.0L0 547.0L0 0Z" fill-rule="nonzero"/><path stroke="#333333" stroke-width="1.0" stroke-linecap="butt" d="M152.5 429.5L810.5 429.5" fill-rule="nonzero"/><path stroke="#cccccc" stroke-width="1.0" stroke-linecap="butt" d="M152.5 347.5L810.5 347.5" fill-rule="nonzero"/><path stroke="#cccccc" stroke-width="1.0" stroke-linecap="butt" d="M152.5 265.5L810.5 265.5" fill-rule="nonzero"/><path stroke="#cccccc" stroke-width="1.0" stroke-linecap="butt" d="M152.5 183.5L810.5 183.5" fill-rule="nonzero"/><path stroke="#cccccc" stroke-width="1.0" stroke-linecap="butt" d="M152.5 101.5L810.5 101.5" fill-rule="nonzero"/><clipPath id="id_0"><path d="M152.425 101.57239L810.6583 101.57239L810.6583 429.5L152.425 429.5L152.425 101.57239Z" clip-rule="nonzero"/></clipPath><path stroke="#000000" stroke-width="0.0" stroke-linecap="butt" stroke-opacity="0.0" clip-path="url(#id_0)" d="M212.0 430.0L184.0 430.0L184.0 381.0C184.0 379.89542 184.89543 379.0 186.0 379.0L210.0 379.0C211.10457 379.0 212.0 379.89542 212.0 381.0Z" fill-rule="nonzero"/><path fill="#4285f4" clip-path="url(#id_0)" d="M212.0 430.0L184.0 430.0L184.0 381.0C184.0 379.89542 184.89543 379.0 186.0 379.0L210.0 379.0C211.10457 379.0 212.0 379.89542 212.0 381.0Z" fill-rule="nonzero"/><path stroke="#000000" stroke-width="0.0" stroke-linecap="butt" stroke-opacity="0.0" clip-path="url(#id_0)" d="M301.0 430.0L273.0 430.0L273.0 425.0C273.0 423.89542 273.89542 423.0 275.0 423.0L299.0 423.0C300.10458 423.0 301.0 423.89542 301.0 425.0Z" fill-rule="nonzero"/><path fill="#4285f4" clip-path="url(#id_0)" d="M301.0 430.0L273.0 430.0L273.0 425.0C273.0 423.89542 273.89542 423.0 275.0 423.0L299.0 423.0C300.10458 423.0 301.0 423.89542 301.0 425.0Z" fill-rule="nonzero"/><path stroke="#000000" stroke-width="0.0" stroke-linecap="butt" stroke-opacity="0.0" clip-path="url(#id_0)" d="M391.0 430.0L363.0 430.0L363.0 332.0C363.0 330.89542 363.89542 330.0 365.0 330.0L389.0 330.0C390.10458 330.0 391.0 330.89542 391.0 332.0Z" fill-rule="nonzero"/><path fill="#4285f4" clip-path="url(#id_0)" d="M391.0 430.0L363.0 430.0L363.0 332.0C363.0 330.89542 363.89542 330.0 365.0 330.0L389.0 330.0C390.10458 330.0 391.0 330.89542 391.0 332.0Z" fill-rule="nonzero"/><path stroke="#000000" stroke-width="0.0" stroke-linecap="butt" stroke-opacity="0.0" clip-path="url(#id_0)" d="M481.0 430.0L453.0 430.0L453.0 354.0C453.0 352.89542 453.89542 352.0 455.0 352.0L479.0 352.0C480.10458 352.0 481.0 352.89542 481.0 354.0Z" fill-rule="nonzero"/><path fill="#4285f4" clip-path="url(#id_0)" d="M481.0 430.0L453.0 430.0L453.0 354.0C453.0 352.89542 453.89542 352.0 455.0 352.0L479.0 352.0C480.10458 352.0 481.0 352.89542 481.0 354.0Z" fill-rule="nonzero"/><path stroke="#000000" stroke-width="0.0" stroke-linecap="butt" stroke-opacity="0.0" clip-path="url(#id_0)" d="M570.0 430.0L542.0 430.0L542.0 340.0C542.0 338.89542 542.89545 338.0 544.0 338.0L568.0 338.0C569.10455 338.0 570.0 338.89542 570.0 340.0Z" fill-rule="nonzero"/><path fill="#4285f4" clip-path="url(#id_0)" d="M570.0 430.0L542.0 430.0L542.0 340.0C542.0 338.89542 542.89545 338.0 544.0 338.0L568.0 338.0C569.10455 338.0 570.0 338.89542 570.0 340.0Z" fill-rule="nonzero"/><path stroke="#000000" stroke-width="0.0" stroke-linecap="butt" stroke-opacity="0.0" clip-path="url(#id_0)" d="M660.0 430.0L632.0 430.0L632.0 393.0C632.0 391.89542 632.89545 391.0 634.0 391.0L658.0 391.0C659.10455 391.0 660.0 391.89542 660.0 393.0Z" fill-rule="nonzero"/><path fill="#4285f4" clip-path="url(#id_0)" d="M660.0 430.0L632.0 430.0L632.0 393.0C632.0 391.89542 632.89545 391.0 634.0 391.0L658.0 391.0C659.10455 391.0 660.0 391.89542 660.0 393.0Z" fill-rule="nonzero"/><path stroke="#000000" stroke-width="0.0" stroke-linecap="butt" stroke-opacity="0.0" clip-path="url(#id_0)" d="M749.0 430.0L721.0 430.0L721.0 296.0C721.0 294.89542 721.89545 294.0 723.0 294.0L747.0 294.0C748.10455 294.0 749.0 294.89542 749.0 296.0Z" fill-rule="nonzero"/><path fill="#4285f4" clip-path="url(#id_0)" d="M749.0 430.0L721.0 430.0L721.0 296.0C721.0 294.89542 721.89545 294.0 723.0 294.0L747.0 294.0C748.10455 294.0 749.0 294.89542 749.0 296.0Z" fill-rule="nonzero"/><path stroke="#000000" stroke-width="0.0" stroke-linecap="butt" stroke-opacity="0.0" clip-path="url(#id_0)" d="M241.0 430.0L213.0 430.0L213.0 205.0C213.0 203.89543 213.89543 203.0 215.0 203.0L239.0 203.0C240.10457 203.0 241.0 203.89543 241.0 205.0Z" fill-rule="nonzero"/><path fill="#b7b7b7" clip-path="url(#id_0)" d="M241.0 430.0L213.0 430.0L213.0 205.0C213.0 203.89543 213.89543 203.0 215.0 203.0L239.0 203.0C240.10457 203.0 241.0 203.89543 241.0 205.0Z" fill-rule="nonzero"/><path stroke="#000000" stroke-width="0.0" stroke-linecap="butt" stroke-opacity="0.0" clip-path="url(#id_0)" d="M330.0 430.0L302.0 430.0L302.0 388.0C302.0 386.89542 302.89542 386.0 304.0 386.0L328.0 386.0C329.10458 386.0 330.0 386.89542 330.0 388.0Z" fill-rule="nonzero"/><path fill="#b7b7b7" clip-path="url(#id_0)" d="M330.0 430.0L302.0 430.0L302.0 388.0C302.0 386.89542 302.89542 386.0 304.0 386.0L328.0 386.0C329.10458 386.0 330.0 386.89542 330.0 388.0Z" fill-rule="nonzero"/><path stroke="#000000" stroke-width="0.0" stroke-linecap="butt" stroke-opacity="0.0" clip-path="url(#id_0)" d="M420.0 430.0L392.0 430.0L392.0 205.0C392.0 203.89543 392.89542 203.0 394.0 203.0L418.0 203.0C419.10458 203.0 420.0 203.89543 420.0 205.0Z" fill-rule="nonzero"/><path fill="#b7b7b7" clip-path="url(#id_0)" d="M420.0 430.0L392.0 430.0L392.0 205.0C392.0 203.89543 392.89542 203.0 394.0 203.0L418.0 203.0C419.10458 203.0 420.0 203.89543 420.0 205.0Z" fill-rule="nonzero"/><path stroke="#000000" stroke-width="0.0" stroke-linecap="butt" stroke-opacity="0.0" clip-path="url(#id_0)" d="M510.0 430.0L482.0 430.0L482.0 422.0C482.0 420.89542 482.89542 420.0 484.0 420.0L508.0 420.0C509.10458 420.0 510.0 420.89542 510.0 422.0Z" fill-rule="nonzero"/><path fill="#b7b7b7" clip-path="url(#id_0)" d="M510.0 430.0L482.0 430.0L482.0 422.0C482.0 420.89542 482.89542 420.0 484.0 420.0L508.0 420.0C509.10458 420.0 510.0 420.89542 510.0 422.0Z" fill-rule="nonzero"/><path stroke="#000000" stroke-width="0.0" stroke-linecap="butt" stroke-opacity="0.0" clip-path="url(#id_0)" d="M599.0 430.0L571.0 430.0L571.0 422.0C571.0 420.89542 571.89545 420.0 573.0 420.0L597.0 420.0C598.10455 420.0 599.0 420.89542 599.0 422.0Z" fill-rule="nonzero"/><path fill="#b7b7b7" clip-path="url(#id_0)" d="M599.0 430.0L571.0 430.0L571.0 422.0C571.0 420.89542 571.89545 420.0 573.0 420.0L597.0 420.0C598.10455 420.0 599.0 420.89542 599.0 422.0Z" fill-rule="nonzero"/><path stroke="#000000" stroke-width="0.0" stroke-linecap="butt" stroke-opacity="0.0" clip-path="url(#id_0)" d="M689.0 430.0L661.0 430.0L661.0 104.0C661.0 102.89543 661.89545 102.0 663.0 102.0L687.0 102.0C688.10455 102.0 689.0 102.89543 689.0 104.0Z" fill-rule="nonzero"/><path fill="#b7b7b7" clip-path="url(#id_0)" d="M689.0 430.0L661.0 430.0L661.0 104.0C661.0 102.89543 661.89545 102.0 663.0 102.0L687.0 102.0C688.10455 102.0 689.0 102.89543 689.0 104.0Z" fill-rule="nonzero"/><path stroke="#000000" stroke-width="0.0" stroke-linecap="butt" stroke-opacity="0.0" clip-path="url(#id_0)" d="M778.0 430.0L750.0 430.0L750.0 205.0C750.0 203.89543 750.89545 203.0 752.0 203.0L776.0 203.0C777.10455 203.0 778.0 203.89543 778.0 205.0Z" fill-rule="nonzero"/><path fill="#b7b7b7" clip-path="url(#id_0)" d="M778.0 430.0L750.0 430.0L750.0 205.0C750.0 203.89543 750.89545 203.0 752.0 203.0L776.0 203.0C777.10455 203.0 778.0 203.89543 778.0 205.0Z" fill-rule="nonzero"/><path fill="#424242" d="M39.2719 328.6365L32.131275 324.91776L32.131275 322.79276L41.05315 327.699L46.350025 327.699L46.350025 329.574L41.05315 329.574L32.131275 334.48026L32.131275 332.324L39.2719 328.6365ZM46.55315 316.87088Q46.55315 319.0115 45.1469 320.37088Q43.725025 321.71463 41.36565 321.71463L41.0219 321.71463Q39.4594 321.71463 38.225025 321.12088Q36.99065 320.5115 36.287525 319.43338Q35.5844 318.35526 35.5844 317.08963Q35.5844 315.02713 36.943775 313.8865Q38.30315 312.74588 40.8344 312.74588L41.5844 312.74588L41.5844 319.90213Q43.1469 319.87088 44.11565 318.99588Q45.068775 318.12088 45.068775 316.77713Q45.068775 315.80838 44.67815 315.15213Q44.287525 314.48026 43.6469 313.98026L44.506275 312.8865Q46.55315 314.21463 46.55315 316.87088ZM37.068775 317.08963Q37.068775 318.18338 37.86565 318.93338Q38.662525 319.66776 40.100025 319.83963L40.100025 314.55838L39.9594 314.55838Q38.5844 314.6365 37.8344 315.30838Q37.068775 315.96463 37.068775 317.08963ZM46.350025 303.73026Q46.037525 303.8865 45.24065 303.98026Q46.55315 305.24588 46.55315 306.99588Q46.55315 308.55838 45.662525 309.55838Q44.7719 310.55838 43.412525 310.55838Q41.7719 310.55838 40.86565 309.30838Q39.943775 308.04276 39.943775 305.77713L39.943775 304.0115L39.11565 304.0115Q38.162525 304.0115 37.600025 304.58963Q37.037525 305.15213 37.037525 306.24588Q37.037525 307.21463 37.537525 307.87088Q38.0219 308.52713 38.7094 308.52713L38.7094 310.33963Q37.92815 310.33963 37.193775 309.77713Q36.443775 309.21463 36.0219 308.2615Q35.5844 307.29276 35.5844 306.1365Q35.5844 304.30838 36.506275 303.27713Q37.412525 302.24588 39.0219 302.199L43.881275 302.199Q45.3344 302.199 46.193775 301.83963L46.350025 301.83963L46.350025 303.73026ZM44.975025 306.73026Q44.975025 305.87088 44.537525 305.12088Q44.100025 304.35526 43.3969 304.0115L41.225025 304.0115L41.225025 305.43338Q41.225025 308.74588 43.162525 308.74588Q44.0219 308.74588 44.506275 308.18338Q44.975025 307.62088 44.975025 306.73026ZM37.3969 294.15213Q37.3344 294.55838 37.3344 295.02713Q37.3344 296.80838 38.850025 297.449L46.350025 297.449L46.350025 299.24588L35.787525 299.24588L35.787525 297.49588L37.006275 297.46463Q35.5844 296.574 35.5844 294.949Q35.5844 294.41776 35.725025 294.15213L37.3969 294.15213ZM43.55315 286.10526Q42.818775 286.10526 42.412525 286.65213Q42.006275 287.199 41.7094 288.574Q41.412525 289.949 41.006275 290.7615Q40.600025 291.55838 40.037525 291.949Q39.4594 292.324 38.67815 292.324Q37.381275 292.324 36.49065 291.23026Q35.5844 290.1365 35.5844 288.41776Q35.5844 286.62088 36.5219 285.5115Q37.443775 284.3865 38.881275 284.3865L38.881275 286.21463Q38.1469 286.21463 37.61565 286.83963Q37.068775 287.46463 37.068775 288.41776Q37.068775 289.41776 37.506275 289.98026Q37.92815 290.52713 38.631275 290.52713Q39.2719 290.52713 39.61565 290.0115Q39.943775 289.49588 40.256275 288.1365Q40.55315 286.77713 40.975025 285.949Q41.381275 285.10526 41.975025 284.699Q42.568775 284.29276 43.412525 284.29276Q44.8344 284.29276 45.693775 285.43338Q46.55315 286.55838 46.55315 288.37088Q46.55315 289.6365 46.100025 290.62088Q45.6469 291.58963 44.850025 292.15213Q44.037525 292.699 43.100025 292.699L43.100025 290.8865Q44.006275 290.83963 44.537525 290.16776Q45.068775 289.48026 45.068775 288.37088Q45.068775 287.33963 44.662525 286.73026Q44.24065 286.10526 43.55315 286.10526Z" fill-rule="nonzero"/><path fill="#757575" d="M141.51875 430.4375Q141.51875 433.60938 140.44063 435.15625Q139.3625 436.70312 137.05 436.70312Q134.76875 436.70312 133.675 435.1875Q132.58125 433.67188 132.55 430.67188L132.55 428.26562Q132.55 425.125 133.62813 423.60938Q134.72188 422.07812 137.03438 422.07812Q139.33125 422.07812 140.40938 423.5625Q141.4875 425.03125 141.51875 428.09375L141.51875 430.4375ZM139.72188 427.96875Q139.72188 425.67188 139.06563 424.625Q138.425 423.5625 137.03438 423.5625Q135.64375 423.5625 135.00313 424.60938Q134.37813 425.65625 134.3625 427.82812L134.3625 430.71875Q134.3625 433.01562 135.01875 434.125Q135.69063 435.21875 137.05 435.21875Q138.39375 435.21875 139.03438 434.1875Q139.69063 433.15625 139.72188 430.92188L139.72188 427.96875Z" fill-rule="nonzero"/><path fill="#757575" d="M133.44063 347.3931L134.15938 340.29935L141.44063 340.29935L141.44063 341.97122L135.69063 341.97122L135.26875 345.84622Q136.31563 345.23685 137.64375 345.23685Q139.58125 345.23685 140.72188 346.5181Q141.8625 347.79935 141.8625 349.98685Q141.8625 352.18997 140.675 353.4556Q139.4875 354.72122 137.3625 354.72122Q135.47188 354.72122 134.28438 353.67435Q133.09688 352.62747 132.925 350.78372L134.64375 350.78372Q134.8 352.00247 135.50313 352.62747Q136.20625 353.23685 137.3625 353.23685Q138.62813 353.23685 139.34688 352.37747Q140.06563 351.5181 140.06563 350.00247Q140.06563 348.5806 139.28438 347.72122Q138.50313 346.84622 137.22188 346.84622Q136.03438 346.84622 135.3625 347.36185L134.87813 347.75247L133.44063 347.3931Z" fill-rule="nonzero"/><path fill="#757575" d="M127.55 272.5362L125.72188 272.5362L125.72188 260.48932L122.08125 261.83307L122.08125 260.19244L127.26875 258.25494L127.55 258.25494L127.55 272.5362ZM141.51875 266.4737Q141.51875 269.64557 140.44063 271.19244Q139.3625 272.73932 137.05 272.73932Q134.76875 272.73932 133.675 271.2237Q132.58125 269.70807 132.55 266.70807L132.55 264.30182Q132.55 261.1612 133.62813 259.64557Q134.72188 258.11432 137.03438 258.11432Q139.33125 258.11432 140.40938 259.5987Q141.4875 261.06744 141.51875 264.12994L141.51875 266.4737ZM139.72188 264.00494Q139.72188 261.70807 139.06563 260.6612Q138.425 259.5987 137.03438 259.5987Q135.64375 259.5987 135.00313 260.64557Q134.37813 261.69244 134.3625 263.86432L134.3625 266.75494Q134.3625 269.05182 135.01875 270.1612Q135.69063 271.25494 137.05 271.25494Q138.39375 271.25494 139.03438 270.2237Q139.69063 269.19244 139.72188 266.95807L139.72188 264.00494Z" fill-rule="nonzero"/><path fill="#757575" d="M127.55 190.55429L125.72188 190.55429L125.72188 178.50742L122.08125 179.85117L122.08125 178.21054L127.26875 176.27304L127.55 176.27304L127.55 190.55429ZM133.44063 183.42929L134.15938 176.33554L141.44063 176.33554L141.44063 178.00742L135.69063 178.00742L135.26875 181.88242Q136.31563 181.27304 137.64375 181.27304Q139.58125 181.27304 140.72188 182.55429Q141.8625 183.83554 141.8625 186.02304Q141.8625 188.22617 140.675 189.49179Q139.4875 190.75742 137.3625 190.75742Q135.47188 190.75742 134.28438 189.71054Q133.09688 188.66367 132.925 186.81992L134.64375 186.81992Q134.8 188.03867 135.50313 188.66367Q136.20625 189.27304 137.3625 189.27304Q138.62813 189.27304 139.34688 188.41367Q140.06563 187.55429 140.06563 186.03867Q140.06563 184.61679 139.28438 183.75742Q138.50313 182.88242 137.22188 182.88242Q136.03438 182.88242 135.3625 183.39804L134.87813 183.78867L133.44063 183.42929Z" fill-rule="nonzero"/><path fill="#757575" d="M130.925 108.57239L121.6125 108.57239L121.6125 107.27551L126.53438 101.80676Q127.62813 100.55676 128.03438 99.79114Q128.45625 99.00989 128.45625 98.18176Q128.45625 97.07239 127.78438 96.35364Q127.1125 95.63489 125.9875 95.63489Q124.62813 95.63489 123.87813 96.41614Q123.14375 97.18176 123.14375 98.54114L121.33125 98.54114Q121.33125 96.57239 122.59688 95.36926Q123.8625 94.15051 125.9875 94.15051Q127.97188 94.15051 129.1125 95.19739Q130.26875 96.24426 130.26875 97.96301Q130.26875 100.07239 127.59688 102.96301L123.78438 107.10364L130.925 107.10364L130.925 108.57239ZM141.51875 102.50989Q141.51875 105.68176 140.44063 107.22864Q139.3625 108.77551 137.05 108.77551Q134.76875 108.77551 133.675 107.25989Q132.58125 105.74426 132.55 102.74426L132.55 100.33801Q132.55 97.19739 133.62813 95.68176Q134.72188 94.15051 137.03438 94.15051Q139.33125 94.15051 140.40938 95.63489Q141.4875 97.10364 141.51875 100.16614L141.51875 102.50989ZM139.72188 100.04114Q139.72188 97.74426 139.06563 96.69739Q138.425 95.63489 137.03438 95.63489Q135.64375 95.63489 135.00313 96.68176Q134.37813 97.72864 134.3625 99.90051L134.3625 102.79114Q134.3625 105.08801 135.01875 106.19739Q135.69063 107.29114 137.05 107.29114Q138.39375 107.29114 139.03438 106.25989Q139.69063 105.22864 139.72188 102.99426L139.72188 100.04114Z" fill-rule="nonzero"/><path fill="#757575" d="M189.96033 482.89868Q191.37454 484.68857 191.253 486.55576Q191.13147 488.40088 189.48524 490.0471Q187.70642 491.82593 185.34204 491.62704Q182.9887 491.4171 180.84528 489.2737L179.88406 488.31247Q178.4809 486.9093 177.91742 485.35147Q177.36499 483.78256 177.70749 482.29102Q178.05 480.79947 179.26534 479.58414Q180.86737 477.9821 182.72353 477.9158Q184.59074 477.83847 186.32536 479.26373L184.98848 480.6006Q183.62952 479.5731 182.50256 479.61728Q181.38666 479.65042 180.35915 480.67795Q179.08856 481.94852 179.29848 483.61685Q179.51945 485.27414 181.25407 487.00876L182.22635 487.98102Q183.86153 489.6162 185.51881 489.90347Q187.16505 490.1797 188.39143 488.9533Q189.49629 487.84845 189.58467 486.7657Q189.68411 485.67188 188.62346 484.23557L189.96033 482.89868ZM196.2359 477.35233L194.41289 479.17532L196.68889 482.55618L195.70557 483.53952L193.42957 480.15866L191.7723 481.81595L190.82211 480.86575L192.65617 479.0317L190.68953 476.1149L188.91072 477.8937L187.9495 476.93246L189.91614 474.96585L187.607 471.52975L188.60136 470.53537L190.89946 473.9825L192.72246 472.15952L190.42436 468.71237L191.41873 467.718L193.71683 471.16513L195.13104 469.75092L196.09227 470.71216L194.50128 472.30313L196.45688 475.23102L198.01471 473.67316L198.96489 474.62332L197.23027 476.35794L199.50627 479.7388L198.5119 480.7332L196.2359 477.35233ZM193.6395 478.04837L195.46251 476.22537L193.50691 473.29752L191.6839 475.1205L193.6395 478.04837ZM202.5888 475.30835Q202.25735 474.9769 202.23526 474.55704Q202.21317 474.1372 202.59987 473.7505Q202.9976 473.35275 203.41745 473.37485Q203.84834 473.3859 204.17981 473.71735Q204.50021 474.03775 204.51126 474.46866Q204.52231 474.87744 204.12456 475.2752Q203.73787 475.6619 203.32907 475.65085Q202.90923 475.62875 202.5888 475.30835ZM200.51169 463.79575L201.49501 464.6907Q201.26299 462.7572 202.64406 461.37613Q205.0195 459.0007 207.70428 461.6634L212.64299 466.60208L211.3724 467.87268L206.42265 462.9229Q205.60507 462.12744 204.85376 462.10535Q204.11351 462.07217 203.34012 462.84558Q202.72139 463.4643 202.57776 464.27084Q202.44518 465.06635 202.72139 465.8729L208.0468 471.19827L206.77621 472.46887L199.3074 465.00006L200.51169 463.79575ZM217.79161 461.74072Q216.27795 463.2544 214.32237 463.22122Q212.36678 463.166 210.69844 461.49765L210.45538 461.2546Q209.35052 460.14975 208.89754 458.85706Q208.4556 457.55334 208.72075 456.2938Q208.98592 455.03427 209.88086 454.13934Q211.33926 452.68094 213.10703 452.8356Q214.8748 452.9903 216.66466 454.78015L217.19499 455.3105L212.13475 460.37073Q213.2617 461.45346 214.56543 461.51978Q215.85811 461.575 216.80829 460.62482Q217.4933 459.93982 217.68112 459.19955Q217.88 458.44827 217.78056 457.64172L219.16164 457.47598Q219.66986 459.8625 217.79161 461.74072ZM210.93047 455.18893Q210.15706 455.96234 210.19022 457.05615Q210.2344 458.13892 211.12933 459.27692L214.86374 455.5425L214.76431 455.44305Q213.7368 454.52603 212.73137 454.4708Q211.72595 454.39346 210.93047 455.18893ZM214.77536 445.90817L216.58731 447.72012L217.99048 446.31696L218.9738 447.3003L217.57063 448.70346L222.19998 453.3328Q222.65297 453.78577 223.07281 453.83Q223.48161 453.86313 223.9346 453.41013Q224.15556 453.18915 224.45389 452.71408L225.49245 453.75262Q225.12784 454.4045 224.65276 454.87958Q223.80202 455.73032 222.84079 455.65298Q221.89062 455.5646 220.9294 454.60336L216.30005 449.97403L214.94109 451.333L213.95776 450.34967L215.31674 448.99072L213.50478 447.17874L214.77536 445.90817Z" fill-rule="nonzero"/><path fill="#757575" d="M251.3642 512.1773L247.15471 516.38684L248.83408 519.96655L247.47511 521.3255L241.25478 507.4375L242.41487 506.2774L256.31393 512.4867L254.95497 513.84564L251.3642 512.1773ZM246.4697 514.9063L249.89474 511.48126L243.47554 508.48712L246.4697 514.9063ZM251.17638 502.68665L252.1597 503.58157Q251.92767 501.64807 253.30875 500.267Q255.68417 497.89157 258.369 500.55426L263.30768 505.49295L262.03708 506.76355L257.08734 501.8138Q256.26974 501.0183 255.51845 500.99622Q254.7782 500.96307 254.00479 501.73645Q253.38608 502.35516 253.24245 503.1617Q253.10986 503.9572 253.38608 504.76376L258.7115 510.08914L257.4409 511.35974L249.97208 503.89093L251.17638 502.68665ZM259.06503 494.79797L267.39563 503.12857Q269.5501 505.28305 267.5945 507.23865Q267.17465 507.65848 266.68854 507.90155L265.661 506.87402Q265.93723 506.7083 266.30182 506.3437Q266.73273 505.9128 266.72168 505.4598Q266.72168 505.01788 266.14716 504.44336L257.7834 496.0796L259.06503 494.79797ZM255.66208 494.22345Q255.36377 493.92514 255.33063 493.51633Q255.30853 493.0965 255.67313 492.7319Q256.04877 492.35623 256.45758 492.3894Q256.86636 492.40045 257.17572 492.7098Q257.48508 493.01917 257.49612 493.42795Q257.51825 493.8257 257.14258 494.20135Q256.76694 494.577 256.3692 494.5549Q255.97144 494.5328 255.66208 494.22345ZM272.62158 494.69855Q272.76523 496.32266 271.31787 497.77002Q270.12463 498.9633 268.7988 498.89697Q267.484 498.81964 266.114 497.4717L261.25266 492.61035L262.53427 491.32874L267.3625 496.15695Q269.05292 497.84738 270.434 496.4663Q271.8924 495.0079 271.29578 493.439L265.8599 488.0031L267.1415 486.7215L274.61032 494.1903L273.395 495.40564L272.62158 494.69855ZM277.91385 490.88678L276.64325 492.15738L266.03665 481.55078L267.30725 480.28018L277.91385 490.88678ZM284.67557 484.1251Q284.3441 484.0146 283.71432 483.5174Q283.74747 485.34042 282.51004 486.57785Q281.40518 487.6827 280.0683 487.76004Q278.73145 487.8374 277.7702 486.87616Q276.6101 485.71606 276.85318 484.19138Q277.09625 482.64456 278.6983 481.04254L279.94678 479.79404L279.3612 479.20847Q278.68726 478.53452 277.8807 478.54556Q277.0852 478.54556 276.3118 479.31897Q275.6268 480.00397 275.51633 480.82156Q275.39478 481.6281 275.88092 482.11426L274.59927 483.39587Q274.04684 482.84344 273.92532 481.92642Q273.79272 480.99835 274.1684 480.02606Q274.54404 479.0317 275.36163 478.2141Q276.65433 476.92142 278.03537 476.8441Q279.4054 476.7557 280.57654 477.86057L284.01263 481.29666Q285.04016 482.32416 285.90195 482.67773L286.01242 482.7882L284.67557 484.1251ZM281.58197 485.27414Q282.18964 484.66647 282.4106 483.82678Q282.6426 482.97604 282.38852 482.23578L280.85275 480.70004L279.84735 481.70544Q277.50504 484.04773 278.87506 485.41776Q279.48273 486.02542 280.223 485.97018Q280.9522 485.9039 281.58197 485.27414ZM285.1175 471.0215Q284.78604 471.2646 284.4546 471.59604Q283.19504 472.85556 283.81378 474.38028L289.11707 479.68356L287.8465 480.95416L280.3777 473.48532L281.6151 472.2479L282.499 473.0876Q282.12335 471.4524 283.2724 470.30334Q283.64804 469.9277 283.9353 469.83932L285.1175 471.0215ZM299.2486 469.55206L292.66367 476.137L291.7466 475.21994L291.35992 467.87268Q291.24945 466.2154 290.99533 465.38675Q290.7412 464.536 290.15564 463.95044Q289.3712 463.166 288.38788 463.13284Q287.40454 463.0997 286.60904 463.8952Q285.64783 464.8564 285.66992 465.93918Q285.69202 466.99985 286.65326 467.96106L285.3716 469.2427Q283.9795 467.8506 284.02368 466.10492Q284.05682 464.34818 285.55945 462.84558Q286.96262 461.4424 288.5094 461.37613Q290.06723 461.2988 291.2826 462.51413Q292.77414 464.00568 292.9288 467.93896L293.16083 473.56268L298.21002 468.5135L299.2486 469.55206ZM294.9286 453.76367L296.26547 452.42682L303.38074 459.54208Q304.8281 460.98944 304.77286 462.67987Q304.72867 464.35922 303.2813 465.80658Q301.7787 467.3092 300.17667 467.38654Q298.57462 467.44177 297.19354 466.0607L298.51938 464.7349Q299.38116 465.59668 300.34238 465.60773Q301.29257 465.60773 302.1875 464.7128Q303.0051 463.8952 303.0051 462.87872Q302.99405 461.85123 302.06595 460.90103L294.9286 453.76367ZM307.02676 452.80246Q304.8281 454.02884 303.3476 454.09515Q301.85605 454.1504 300.80643 453.10077Q299.6132 451.90753 299.78995 450.18396Q299.9557 448.44934 301.46933 446.93567Q302.5079 445.89713 303.72324 445.49936Q304.9386 445.07953 306.08765 445.3447Q307.22565 445.59882 308.0653 446.4385L306.7395 447.7643Q305.83353 446.85834 304.72867 446.92462Q303.6238 446.96884 302.56314 448.02948Q301.57983 449.01282 301.45828 449.99612Q301.3478 450.9684 302.12122 451.7418Q302.72888 452.34946 303.67905 452.26108Q304.61816 452.16165 306.2202 451.26672Q307.8333 450.36072 308.9713 450.0845Q310.09827 449.79724 311.00424 450.01822Q311.91022 450.2392 312.68362 451.0126Q313.89896 452.22794 313.68903 453.91837Q313.4791 455.6088 311.87708 457.21082Q310.84955 458.23834 309.54584 458.74658Q308.25314 459.24377 307.082 459.0449Q305.8998 458.83496 305.01593 457.95108L306.35278 456.6142Q307.26984 457.53125 308.47412 457.3876Q309.66736 457.2329 310.78326 456.11703Q311.8329 455.0674 311.9765 454.08408Q312.1091 453.08972 311.36884 452.34946Q310.62857 451.60922 309.71155 451.73074Q308.78348 451.84125 307.02676 452.80246Z" fill-rule="nonzero"/><path fill="#757575" d="M346.57663 506.52048L342.36713 510.72995L344.0465 514.3097L342.68753 515.66864L336.4672 501.78064L337.6273 500.62054L351.52637 506.82983L350.1674 508.18878L346.57663 506.52048ZM341.6821 509.24945L345.10715 505.8244L338.68796 502.83026L341.6821 509.24945ZM353.3825 501.50443L349.49344 493.92514L350.79715 492.6214L355.59222 502.76395L354.61996 503.73624L344.44424 498.9743L345.748 497.6706L353.3825 501.50443ZM364.33163 494.02457Q364.00018 493.91406 363.3704 493.4169Q363.40356 495.2399 362.1661 496.47733Q361.06125 497.58218 359.7244 497.65955Q358.3875 497.73688 357.4263 496.77563Q356.2662 495.61554 356.50925 494.09085Q356.75232 492.54407 358.35437 490.94202L359.60284 489.69354L359.01727 489.10797Q358.34332 488.434 357.53677 488.44504Q356.74127 488.44504 355.9679 489.21844Q355.28287 489.90344 355.1724 490.72104Q355.05084 491.5276 355.537 492.01373L354.25537 493.29535Q353.70294 492.74292 353.5814 491.8259Q353.44882 490.89783 353.82446 489.92557Q354.2001 488.93118 355.0177 488.1136Q356.3104 486.82092 357.69147 486.74356Q359.06146 486.65518 360.2326 487.76004L363.6687 491.19614Q364.69623 492.22366 365.558 492.5772L365.6685 492.68768L364.33163 494.02457ZM361.23804 495.1736Q361.8457 494.56595 362.06668 493.72626Q362.2987 492.87552 362.0446 492.13525L360.50882 490.59952L359.50342 491.60492Q357.16113 493.94724 358.53113 495.31723Q359.13882 495.92493 359.87906 495.86966Q360.60828 495.80338 361.23804 495.1736ZM368.0771 486.5447L364.21008 479.20847L365.5801 477.83844L371.19278 489.46152Q372.36392 492.02478 370.85028 493.53842L370.5851 493.7594L370.02164 494.1461L368.98306 493.10754L369.3587 492.7982Q370.0106 492.1463 370.09897 491.5276Q370.1984 490.89783 369.73438 489.96976L369.25928 488.92014L359.21616 484.2024L360.60828 482.8103L368.0771 486.5447ZM378.47375 479.88242Q378.1423 479.77194 377.51254 479.27475Q377.5457 481.09778 376.30826 482.3352Q375.2034 483.44006 373.86652 483.5174Q372.52963 483.59473 371.56842 482.6335Q370.40833 481.47342 370.6514 479.94873Q370.89447 478.40192 372.4965 476.7999L373.745 475.5514L373.15942 474.96582Q372.48544 474.29187 371.6789 474.30292Q370.88342 474.30292 370.11002 475.07632Q369.42502 475.76132 369.3145 476.57892Q369.193 477.38547 369.6791 477.87158L368.3975 479.15323Q367.84506 478.6008 367.72354 477.68378Q367.59094 476.75568 367.9666 475.78342Q368.34225 474.78906 369.15985 473.97147Q370.4525 472.67877 371.8336 472.60144Q373.2036 472.51306 374.37476 473.6179L377.81085 477.054Q378.83838 478.0815 379.70016 478.43506L379.81064 478.54556L378.47375 479.88242ZM375.38016 481.03146Q375.98785 480.4238 376.2088 479.5841Q376.44083 478.73337 376.1867 477.99313L374.65097 476.45737L373.64554 477.4628Q371.30325 479.80508 372.67328 481.1751Q373.28094 481.78278 374.0212 481.72754Q374.7504 481.66125 375.38016 481.03146ZM386.7933 471.56287L385.4675 472.8887L375.41333 462.83453L376.73914 461.5087L386.7933 471.56287ZM390.48352 464.35922L385.0587 453.18915L386.50604 451.7418L392.83688 465.51932L391.65466 466.7015L377.88818 460.35965L379.3245 458.92334L390.48352 464.35922ZM397.72034 452.50415L395.36697 454.85748L399.43286 458.92334L398.09598 460.26022L388.0418 450.20602L391.3674 446.88043Q393.06888 445.17896 394.7593 445.0353Q396.44974 444.8917 397.93024 446.3722Q398.8694 447.3113 399.0572 448.51562Q399.24503 449.7199 398.68155 450.96838L405.31067 452.86874L405.39908 452.95712L403.97382 454.3824L397.72034 452.50415ZM394.28424 453.77472L396.31717 451.7418Q397.30048 450.75845 397.3778 449.66467Q397.44412 448.5598 396.59338 447.70908Q395.65424 446.76993 394.5936 446.83624Q393.54398 446.89148 392.49435 447.9411L390.47247 449.96298L394.28424 453.77472Z" fill-rule="nonzero"/><path fill="#757575" d="M434.01083 508.64178L429.80136 512.8513L431.4807 516.431L430.12177 517.79L423.90143 503.90198L425.06152 502.74188L438.9606 508.95114L437.60162 510.31012L434.01083 508.64178ZM429.11633 511.3708L432.54138 507.94574L426.1222 504.95157L429.11633 511.3708ZM433.82303 499.1511L434.80634 500.04602Q434.5743 498.11252 435.95538 496.73148Q438.3308 494.35602 441.01562 497.01874L445.9543 501.95743L444.68375 503.228L439.73398 498.27826Q438.9164 497.48276 438.1651 497.46066Q437.42484 497.42752 436.65146 498.20093Q436.0327 498.81964 435.8891 499.6262Q435.7565 500.4217 436.0327 501.2282L441.35812 506.55362L440.08755 507.8242L432.6187 500.35538L433.82303 499.1511ZM443.75565 496.5547Q442.00998 494.80902 441.78903 492.97498Q441.557 491.12985 442.89386 489.79297Q444.2639 488.42297 445.9985 488.63287L445.23618 487.73795L446.39627 486.57785L453.6883 493.8699Q455.13565 495.31726 455.1025 497.0077Q455.09146 498.69812 453.63306 500.15652Q452.8265 500.96304 451.7106 501.39395Q450.5947 501.82483 449.57825 501.62598L449.4788 500.2007Q451.3239 500.38852 452.5061 499.20633Q453.44522 498.2672 453.43417 497.2176Q453.43417 496.17905 452.484 495.22885L451.83215 494.577Q451.96472 496.23428 450.63892 497.56012Q449.32413 498.87488 447.44586 498.6318Q445.57867 498.3777 443.75565 496.5547ZM445.1809 495.4167Q446.4515 496.6873 447.68893 496.88614Q448.9264 497.08502 449.85446 496.15695Q451.0698 494.9416 450.53946 493.28433L447.12546 489.87033Q445.46817 489.3842 444.29703 490.55533Q443.3579 491.49445 443.5568 492.754Q443.7667 494.00247 445.1809 495.4167ZM459.5109 486.92035Q459.6545 488.5445 458.20715 489.99185Q457.01392 491.1851 455.68808 491.1188Q454.37332 491.04147 453.0033 489.69354L448.14194 484.83218L449.42355 483.55057L454.25177 488.37875Q455.9422 490.06918 457.32327 488.68814Q458.78168 487.2297 458.18506 485.66083L452.74918 480.22495L454.0308 478.9433L461.49963 486.41214L460.28427 487.62747L459.5109 486.92035ZM464.80313 483.1086L463.53256 484.37918L452.92596 473.77258L454.19653 472.502L464.80313 483.1086ZM471.56485 476.3469Q471.2334 476.23642 470.6036 475.73923Q470.63678 477.56226 469.39932 478.79968Q468.29446 479.90454 466.9576 479.98187Q465.62073 480.0592 464.65952 479.098Q463.49942 477.9379 463.74246 476.4132Q463.98553 474.8664 465.5876 473.26437L466.83606 472.01587L466.2505 471.4303Q465.57654 470.75635 464.77 470.7674Q463.9745 470.7674 463.2011 471.54077Q462.51608 472.2258 462.4056 473.0434Q462.28406 473.84995 462.7702 474.33606L461.4886 475.6177Q460.93616 475.06528 460.8146 474.14825Q460.68204 473.22015 461.05768 472.2479Q461.43332 471.2535 462.25092 470.43594Q463.5436 469.14325 464.92468 469.06592Q466.29468 468.97754 467.46582 470.08237L470.90192 473.51846Q471.92944 474.546 472.79123 474.89954L472.9017 475.01004L471.56485 476.3469ZM468.47125 477.49594Q469.07892 476.88828 469.2999 476.04858Q469.53192 475.19785 469.2778 474.4576L467.74203 472.92184L466.73663 473.92728Q464.39435 476.26956 465.76434 477.6396Q466.37204 478.24725 467.11227 478.19202Q467.8415 478.12573 468.47125 477.49594ZM472.00677 463.24332Q471.67532 463.4864 471.34387 463.81784Q470.08435 465.0774 470.70306 466.60208L476.00635 471.9054L474.73578 473.17596L467.26697 465.70715L468.5044 464.46973L469.38828 465.30942Q469.01263 463.67422 470.16168 462.52518Q470.53732 462.14954 470.8246 462.06113L472.00677 463.24332ZM474.0397 453.76367L475.3766 452.42682L482.49185 459.54205Q483.9392 460.98944 483.88397 462.67984Q483.83978 464.35922 482.39243 465.80658Q480.8898 467.3092 479.28778 467.38654Q477.68573 467.44177 476.30466 466.0607L477.6305 464.7349Q478.49228 465.59668 479.4535 465.60773Q480.4037 465.60773 481.2986 464.7128Q482.1162 463.8952 482.1162 462.87872Q482.10516 461.85123 481.17706 460.90103L474.0397 453.76367ZM486.13788 452.80246Q483.9392 454.02884 482.4587 454.09512Q480.96716 454.1504 479.91754 453.10077Q478.7243 451.90753 478.90106 450.18396Q479.0668 448.44934 480.58044 446.93567Q481.61902 445.89713 482.83435 445.49936Q484.04968 445.07953 485.19876 445.3447Q486.33673 445.59882 487.17642 446.4385L485.85062 447.7643Q484.94464 446.85834 483.83978 446.92462Q482.73492 446.9688 481.67426 448.02948Q480.69095 449.01282 480.5694 449.99612Q480.45892 450.96838 481.23233 451.7418Q481.84 452.34946 482.79016 452.26108Q483.72928 452.16165 485.33133 451.26672Q486.94443 450.36072 488.08243 450.0845Q489.20938 449.79724 490.11536 450.01822Q491.02133 450.2392 491.79474 451.0126Q493.01007 452.22794 492.80014 453.91837Q492.5902 455.6088 490.9882 457.21082Q489.96066 458.23834 488.65695 458.74658Q487.36426 459.24374 486.1931 459.0449Q485.01093 458.83496 484.12704 457.95108L485.4639 456.6142Q486.38095 457.53122 487.58524 457.3876Q488.77847 457.2329 489.89438 456.117Q490.944 455.0674 491.08762 454.08408Q491.2202 453.08972 490.47995 452.34946Q489.7397 451.60922 488.82266 451.73074Q487.8946 451.84125 486.13788 452.80246Z" fill-rule="nonzero"/><path fill="#757575" d="M524.1851 513.28217L514.131 503.228L517.41235 499.9466Q519.04755 498.3114 520.5502 498.1567Q522.05273 498.00204 523.3786 499.32785Q524.0857 500.03497 524.21826 500.98514Q524.3619 501.92426 523.9752 502.9076Q525.0138 502.33307 526.1297 502.49878Q527.23456 502.65347 528.1184 503.53735Q529.47736 504.89633 529.3669 506.55362Q529.26746 508.19983 527.6654 509.80188L524.1851 513.28217ZM520.80426 507.24966L524.4282 510.8736L526.6158 508.68597Q527.5439 507.7579 527.5991 506.75247Q527.6433 505.73602 526.80365 504.89633Q524.98065 503.0733 523.014 505.03995L520.80426 507.24966ZM519.7436 506.189L521.7434 504.1892Q522.6162 503.31638 522.70465 502.3662Q522.782 501.405 522.0417 500.66473Q521.2131 499.8361 520.35126 499.9466Q519.50055 500.04602 518.50616 501.04037L516.5506 502.99597L519.7436 506.189ZM528.3283 501.53757Q527.22345 500.4327 526.78156 499.129Q526.32855 497.8142 526.6158 496.57678Q526.9141 495.32828 527.9085 494.33392Q529.43317 492.80923 531.433 492.93076Q533.43274 493.03018 535.18945 494.7869L535.2779 494.8753Q536.37164 495.96912 536.82465 497.26178Q537.2666 498.54343 536.9683 499.814Q536.681 501.07352 535.6756 502.07895Q534.162 503.5926 532.1511 503.48212Q530.15137 503.36057 528.41675 501.62595L528.3283 501.53757ZM529.7536 500.39957Q531.0021 501.64804 532.3279 501.82483Q533.6648 501.99057 534.626 501.02933Q535.59827 500.05707 535.41046 498.72018Q535.2226 497.38333 533.8526 496.0133Q532.6152 494.77585 531.2673 494.5991Q529.9193 494.4223 528.9581 495.38354Q528.00793 496.3337 528.17365 497.6706Q528.3504 498.9964 529.7536 500.39957ZM536.1065 493.7594Q535.00165 492.65454 534.5597 491.3508Q534.10675 490.03604 534.394 488.79858Q534.6923 487.5501 535.68665 486.55576Q537.21136 485.03104 539.2111 485.1526Q541.21094 485.252 542.96765 487.00873L543.056 487.09714Q544.14984 488.19092 544.60284 489.4836Q545.0448 490.76523 544.74646 492.03583Q544.4592 493.29535 543.4538 494.30078Q541.9401 495.81442 539.9293 495.70395Q537.9295 495.5824 536.1949 493.84778L536.1065 493.7594ZM537.5318 492.6214Q538.7803 493.86987 540.1061 494.04666Q541.44293 494.21237 542.4042 493.25116Q543.37646 492.2789 543.1886 490.94202Q543.0008 489.60513 541.6308 488.23514Q540.3934 486.99768 539.0454 486.82092Q537.6975 486.64413 536.73627 487.60535Q535.7861 488.55554 535.95184 489.8924Q536.1286 491.21823 537.5318 492.6214ZM540.4707 478.43506L542.28265 480.24704L543.6858 478.84387L544.6691 479.82718L543.266 481.23035L547.8953 485.85968Q548.34827 486.31268 548.7681 486.35687Q549.17694 486.39 549.62994 485.937Q549.8509 485.71606 550.14923 485.24097L551.18774 486.27954Q550.8232 486.9314 550.3481 487.4065Q549.4973 488.25723 548.53613 488.17987Q547.58594 488.0915 546.6247 487.13028L541.99536 482.50092L540.6364 483.8599L539.6531 482.8766L541.0121 481.5176L539.2001 479.70566L540.4707 478.43506ZM555.34204 478.1699Q554.82275 477.6506 554.1488 477.75006Q553.4748 477.8495 552.2926 478.61185Q551.1104 479.3742 550.24866 479.66147Q549.3979 479.93765 548.72394 479.81613Q548.05 479.67252 547.49756 479.1201Q546.5805 478.20303 546.7242 476.7999Q546.85675 475.38568 548.0721 474.17032Q549.34265 472.89975 550.79004 472.7782Q552.23737 472.63458 553.25385 473.65103L551.9612 474.94373Q551.4419 474.42444 550.62427 474.49072Q549.79565 474.546 549.1217 475.21994Q548.4146 475.92703 548.3262 476.63416Q548.2378 477.31915 548.735 477.81635Q549.188 478.26935 549.79565 478.1478Q550.3923 478.01523 551.57446 477.27496Q552.7456 476.52368 553.6295 476.23642Q554.51337 475.92703 555.22046 476.05963Q555.9276 476.1922 556.52423 476.78882Q557.52966 477.79425 557.33075 479.20847Q557.14294 480.61163 555.8613 481.89325Q554.9664 482.78818 553.9499 483.16385Q552.9445 483.52844 551.9833 483.3627Q551.02203 483.1749 550.35913 482.51196L551.64075 481.23035Q552.3147 481.838 553.16547 481.7386Q554.0272 481.62808 554.8117 480.84366Q555.5409 480.11444 555.6845 479.3963Q555.8282 478.65604 555.34204 478.1699ZM552.4915 466.41425L554.30347 468.2262L555.7066 466.82306L556.68994 467.80637L555.2868 469.20953L559.91614 473.83887Q560.3691 474.29187 560.78894 474.33606Q561.19775 474.3692 561.65076 473.9162Q561.8717 473.69525 562.17004 473.22015L563.20856 474.25873Q562.844 474.91058 562.3689 475.38568Q561.5182 476.23642 560.55695 476.15906Q559.60675 476.07068 558.6455 475.10947L554.0162 470.4801L552.6572 471.83908L551.6739 470.85577L553.0329 469.4968L551.2209 467.68484L552.4915 466.41425ZM562.2695 462.53622Q561.938 462.77927 561.60657 463.11075Q560.347 464.37027 560.96576 465.89496L566.26904 471.19827L564.9985 472.46884L557.52966 465.00003L558.7671 463.7626L559.65094 464.6023Q559.2753 462.9671 560.4244 461.81805Q560.8 461.4424 561.0873 461.354L562.2695 462.53622ZM574.5554 462.91187Q574.224 462.8014 573.59424 462.3042Q573.6274 464.1272 572.38995 465.36462Q571.2851 466.46948 569.9482 466.54684Q568.6113 466.62418 567.6501 465.66296Q566.49 464.50284 566.7331 462.97815Q566.97614 461.43137 568.5782 459.8293L569.82666 458.58084L569.2411 457.99527Q568.56714 457.3213 567.76056 457.33234Q566.9651 457.33234 566.1917 458.10574Q565.50665 458.79074 565.3962 459.60834Q565.27466 460.4149 565.7608 460.90103L564.4792 462.18265Q563.92676 461.63022 563.80524 460.7132Q563.6726 459.78513 564.0483 458.81287Q564.42395 457.81848 565.2415 457.0009Q566.5342 455.70822 567.9153 455.63086Q569.2853 455.54248 570.4564 456.64734L573.8925 460.08344Q574.92004 461.11096 575.7818 461.4645L575.89233 461.57498L574.5554 462.91187ZM571.46185 464.0609Q572.0695 463.45325 572.29047 462.61356Q572.5225 461.76282 572.2684 461.02255L570.73267 459.48682L569.72723 460.49222Q567.38495 462.83453 568.75494 464.20453Q569.3626 464.81223 570.1029 464.75696Q570.8321 464.69067 571.46185 464.0609ZM580.37805 449.77515Q582.0906 451.48767 582.3557 453.32172Q582.62085 455.1337 581.284 456.47055Q579.92505 457.82953 578.26776 457.74115L581.86957 461.34296L580.599 462.61356L570.25757 452.27213L571.41766 451.11203L572.31256 451.87436Q572.1137 450.1287 573.5058 448.73657Q574.85376 447.38867 576.65466 447.62067Q578.45557 447.8527 580.2675 449.66467L580.37805 449.77515ZM578.95276 450.91315Q577.69324 449.6536 576.42267 449.4658Q575.15204 449.25586 574.21295 450.19498Q573.05286 451.35507 573.49475 452.96817L577.0745 456.5479Q578.6655 456.98984 579.8477 455.80765Q580.7647 454.89062 580.5769 453.62003Q580.3891 452.34946 578.95276 450.91315Z" fill-rule="nonzero"/><path fill="#757575" d="M656.16705 470.85577L654.84125 472.1816L644.7871 462.1274L646.1129 460.8016L656.16705 470.85577ZM658.2884 468.73447L648.23425 458.68027L651.0737 455.8408Q652.37744 454.53708 653.96844 454.11722Q655.5594 453.6753 657.1725 454.20563Q658.79663 454.7249 660.1888 456.0949L660.8296 456.73575Q662.2548 458.161 662.7741 459.78513Q663.2934 461.40927 662.85144 463.00027Q662.4095 464.59125 661.07263 465.95023L658.2884 468.73447ZM650.6539 458.44827L658.5315 466.32587L659.9236 464.93375Q661.45935 463.398 661.3599 461.5971Q661.2494 459.78513 659.4927 458.0284L658.9071 457.44284Q657.1946 455.73032 655.43787 455.5867Q653.68115 455.44305 652.2007 456.90146L650.6539 458.44827ZM667.7239 457.13348L672.4968 452.3605L673.5796 453.44327L667.4808 459.54205L657.42664 449.48788L658.75244 448.16208L667.7239 457.13348Z" fill-rule="nonzero"/><path fill="#757575" d="M709.5497 498.0573Q707.351 499.2837 705.87054 499.34998Q704.37897 499.4052 703.32935 498.35562Q702.1361 497.16235 702.3129 495.43878Q702.47864 493.70416 703.9923 492.19052Q705.0308 491.15195 706.24615 490.7542Q707.46155 490.33438 708.6106 490.59952Q709.7486 490.85364 710.58826 491.69333L709.26245 493.01917Q708.35645 492.1132 707.2516 492.17947Q706.1467 492.22366 705.08606 493.28433Q704.1028 494.26764 703.9812 495.25098Q703.8707 496.22324 704.64417 496.99664Q705.25183 497.6043 706.20197 497.51593Q707.1411 497.41647 708.74316 496.52155Q710.35626 495.61557 711.49426 495.33936Q712.6212 495.0521 713.52716 495.27307Q714.43317 495.49405 715.20654 496.26743Q716.4219 497.4828 716.212 499.1732Q716.0021 500.86362 714.4 502.46567Q713.3725 503.4932 712.0688 504.0014Q710.77606 504.4986 709.6049 504.2997Q708.4227 504.0898 707.5389 503.20593L708.87573 501.86905Q709.7928 502.78607 710.9971 502.64246Q712.1903 502.48776 713.3062 501.37186Q714.35583 500.32224 714.49945 499.33893Q714.632 498.34457 713.8918 497.6043Q713.15155 496.86404 712.2345 496.9856Q711.3064 497.09607 709.5497 498.0573ZM722.53174 484.63333Q723.9902 486.09174 724.5868 487.61642Q725.17236 489.13007 724.92926 490.56638L728.13336 490.16864L728.0671 491.9143L724.2553 492.3452Q723.8907 492.97498 723.33826 493.5274Q722.15607 494.7096 720.64246 495.0521Q719.13983 495.38354 717.5488 494.80902Q715.9578 494.2345 714.52155 492.82028L713.8034 492.10214Q712.356 490.6548 711.7373 489.0417Q711.12964 487.41754 711.4611 485.91495Q711.79254 484.39026 712.9858 483.19702Q714.2011 481.98166 715.7148 481.66125Q717.22845 481.31876 718.83044 481.92642Q720.42145 482.52304 721.8909 483.9925L722.53174 484.63333ZM720.5651 485.31833Q718.78625 483.53952 717.1179 483.2854Q715.44965 483.03128 714.1348 484.34607Q712.88635 485.59454 713.11835 487.28497Q713.3504 488.9533 715.01874 490.66583L715.759 491.40607Q717.4936 493.1407 719.2061 493.4169Q720.9297 493.68207 722.2113 492.40045Q723.493 491.1188 723.2609 489.47256Q723.02893 487.82635 721.30536 486.0586L720.5651 485.31833ZM729.7023 484.71066L734.4752 479.93768L735.558 481.02045L729.45917 487.11923L719.40497 477.06506L720.73083 475.73923L729.7023 484.71066ZM734.6299 474.08197L738.5632 478.01523L737.23737 479.34106L727.18317 469.2869L730.88446 465.58563Q732.5417 463.92834 734.3095 463.83997Q736.0883 463.7405 737.4804 465.13263Q738.9499 466.60208 738.8283 468.3146Q738.69574 470.01608 736.99426 471.71756L734.6299 474.08197ZM733.5471 472.9992L735.92255 470.62378Q736.99426 469.55206 737.06055 468.4914Q737.1158 467.41968 736.16565 466.4695Q735.2707 465.5746 734.1769 465.60773Q733.072 465.62982 732.0556 466.60208L729.6028 469.05487L733.5471 472.9992ZM747.61194 468.9665L746.3414 470.23706L735.73474 459.63046L737.0053 458.3599L747.61194 468.9665ZM753.63336 461.4645Q753.77704 463.08865 752.32965 464.536Q751.1364 465.72925 749.8106 465.66296Q748.4958 465.58563 747.1258 464.2377L742.2644 459.37634L743.5461 458.09473L748.37427 462.92294Q750.0647 464.61334 751.4458 463.2323Q752.9042 461.7739 752.30756 460.205L746.8717 454.7691L748.1533 453.4875L755.62213 460.9563L754.4068 462.17163L753.63336 461.4645ZM759.90894 452.71408Q759.38965 452.1948 758.7157 452.29422Q758.04175 452.39368 756.85956 453.156Q755.67737 453.91837 754.81555 454.20563Q753.96484 454.48184 753.2909 454.36032Q752.61694 454.21667 752.0645 453.66425Q751.14746 452.74722 751.2911 451.34406Q751.4237 449.92984 752.63904 448.7145Q753.9096 447.4439 755.35693 447.3224Q756.8043 447.17874 757.8208 448.19522L756.5281 449.4879Q756.00885 448.96863 755.1912 449.0349Q754.3626 449.09015 753.6886 449.7641Q752.9815 450.47122 752.8931 451.1783Q752.80475 451.86334 753.30194 452.36053Q753.75494 452.8135 754.3626 452.692Q754.9592 452.5594 756.1414 451.81915Q757.31256 451.06784 758.1964 450.78058Q759.0803 450.47122 759.7874 450.6038Q760.4945 450.7364 761.0911 451.333Q762.09656 452.33844 761.8977 453.75262Q761.7099 455.1558 760.4282 456.43744Q759.5333 457.33237 758.51685 457.708Q757.5114 458.07263 756.5502 457.9069Q755.589 457.71906 754.9261 457.05615L756.2077 455.77454Q756.88165 456.3822 757.7324 456.28275Q758.5942 456.17227 759.3786 455.38782Q760.10785 454.65863 760.25146 453.94046Q760.3951 453.20023 759.90894 452.71408Z" fill-rule="nonzero"/><path fill="#4285f4" d="M371.5 72.91879C371.5 72.36651 371.94772 71.91879 372.5 71.91879L382.5 71.91879C383.05228 71.91879 383.5 72.36651 383.5 72.91879L383.5 82.91879C383.5 83.47108 383.05228 83.91879 382.5 83.91879L372.5 83.91879C371.94772 83.91879 371.5 83.47108 371.5 82.91879Z" fill-rule="nonzero"/><path fill="#757575" d="M397.3125 78.48129L393.60938 78.48129L393.60938 81.49692L397.90625 81.49692L397.90625 82.41879L392.48438 82.41879L392.48438 73.88754L397.85938 73.88754L397.85938 74.80942L393.60938 74.80942L393.60938 77.55942L397.3125 77.55942L397.3125 78.48129ZM401.45312 78.38754L402.85938 76.07504L404.125 76.07504L402.04688 79.21567L404.1875 82.41879L402.9375 82.41879L401.46875 80.04379L400.0 82.41879L398.73438 82.41879L400.875 79.21567L398.8125 76.07504L400.0625 76.07504L401.45312 78.38754ZM410.67188 79.32504Q410.67188 80.76254 410.01562 81.65317Q409.35938 82.54379 408.21875 82.54379Q407.0625 82.54379 406.40625 81.80942L406.40625 84.85629L405.32812 84.85629L405.32812 76.07504L406.3125 76.07504L406.35938 76.77817Q407.03125 75.96567 408.20312 75.96567Q409.34375 75.96567 410.0 76.82504Q410.67188 77.68442 410.67188 79.21567L410.67188 79.32504ZM409.59375 79.20004Q409.59375 78.12192 409.125 77.51254Q408.67188 76.88754 407.875 76.88754Q406.89062 76.88754 406.40625 77.74692L406.40625 80.77817Q406.89062 81.65317 407.89062 81.65317Q408.67188 81.65317 409.125 81.04379Q409.59375 80.41879 409.59375 79.20004ZM414.95312 82.54379Q413.65625 82.54379 412.84375 81.70004Q412.04688 80.84067 412.04688 79.41879L412.04688 79.23129Q412.04688 78.27817 412.40625 77.54379Q412.76562 76.79379 413.40625 76.38754Q414.0625 75.96567 414.8125 75.96567Q416.04688 75.96567 416.73438 76.77817Q417.42188 77.59067 417.42188 79.10629L417.42188 79.55942L413.125 79.55942Q413.15625 80.49692 413.67188 81.07504Q414.20312 81.65317 415.01562 81.65317Q415.57812 81.65317 415.96875 81.41879Q416.375 81.18442 416.6875 80.79379L417.34375 81.30942Q416.54688 82.54379 414.95312 82.54379ZM414.8125 76.85629Q414.15625 76.85629 413.70312 77.34067Q413.26562 77.80942 413.17188 78.66879L416.34375 78.66879L416.34375 78.59067Q416.29688 77.76254 415.89062 77.30942Q415.5 76.85629 414.8125 76.85629ZM421.39062 77.04379Q421.14062 77.01254 420.85938 77.01254Q419.78125 77.01254 419.40625 77.91879L419.40625 82.41879L418.32812 82.41879L418.32812 76.07504L419.375 76.07504L419.39062 76.80942Q419.92188 75.96567 420.90625 75.96567Q421.21875 75.96567 421.39062 76.04379L421.39062 77.04379ZM423.5 82.41879L422.42188 82.41879L422.42188 76.07504L423.5 76.07504L423.5 82.41879ZM422.32812 74.40317Q422.32812 74.13754 422.48438 73.95004Q422.65625 73.76254 422.96875 73.76254Q423.28125 73.76254 423.4375 73.95004Q423.60938 74.13754 423.60938 74.40317Q423.60938 74.65317 423.4375 74.84067Q423.28125 75.01254 422.96875 75.01254Q422.65625 75.01254 422.48438 74.84067Q422.32812 74.65317 422.32812 74.40317ZM427.95312 82.54379Q426.65625 82.54379 425.84375 81.70004Q425.04688 80.84067 425.04688 79.41879L425.04688 79.23129Q425.04688 78.27817 425.40625 77.54379Q425.76562 76.79379 426.40625 76.38754Q427.0625 75.96567 427.8125 75.96567Q429.04688 75.96567 429.73438 76.77817Q430.42188 77.59067 430.42188 79.10629L430.42188 79.55942L426.125 79.55942Q426.15625 80.49692 426.67188 81.07504Q427.20312 81.65317 428.01562 81.65317Q428.57812 81.65317 428.96875 81.41879Q429.375 81.18442 429.6875 80.79379L430.34375 81.30942Q429.54688 82.54379 427.95312 82.54379ZM427.8125 76.85629Q427.15625 76.85629 426.70312 77.34067Q426.26562 77.80942 426.17188 78.66879L429.34375 78.66879L429.34375 78.59067Q429.29688 77.76254 428.89062 77.30942Q428.5 76.85629 427.8125 76.85629ZM432.34375 76.07504L432.375 76.87192Q433.10938 75.96567 434.28125 75.96567Q436.29688 75.96567 436.3125 78.23129L436.3125 82.41879L435.21875 82.41879L435.21875 78.21567Q435.21875 77.54379 434.90625 77.21567Q434.60938 76.88754 433.95312 76.88754Q433.42188 76.88754 433.01562 77.16879Q432.625 77.45004 432.40625 77.90317L432.40625 82.41879L431.32812 82.41879L431.32812 76.07504L432.34375 76.07504ZM440.85938 81.65317Q441.4375 81.65317 441.875 81.30942Q442.3125 80.95004 442.35938 80.41879L443.39062 80.41879Q443.35938 80.96567 443.0 81.46567Q442.65625 81.95004 442.07812 82.24692Q441.51562 82.54379 440.85938 82.54379Q439.5625 82.54379 438.79688 81.68442Q438.04688 80.80942 438.04688 79.30942L438.04688 79.12192Q438.04688 78.20004 438.375 77.48129Q438.71875 76.76254 439.34375 76.37192Q439.98438 75.96567 440.85938 75.96567Q441.92188 75.96567 442.625 76.60629Q443.34375 77.23129 443.39062 78.26254L442.35938 78.26254Q442.3125 77.63754 441.89062 77.24692Q441.46875 76.85629 440.85938 76.85629Q440.03125 76.85629 439.57812 77.45004Q439.125 78.04379 439.125 79.16879L439.125 79.37192Q439.125 80.46567 439.57812 81.05942Q440.03125 81.65317 440.85938 81.65317ZM446.95312 82.54379Q445.65625 82.54379 444.84375 81.70004Q444.04688 80.84067 444.04688 79.41879L444.04688 79.23129Q444.04688 78.27817 444.40625 77.54379Q444.76562 76.79379 445.40625 76.38754Q446.0625 75.96567 446.8125 75.96567Q448.04688 75.96567 448.73438 76.77817Q449.42188 77.59067 449.42188 79.10629L449.42188 79.55942L445.125 79.55942Q445.15625 80.49692 445.67188 81.07504Q446.20312 81.65317 447.01562 81.65317Q447.57812 81.65317 447.96875 81.41879Q448.375 81.18442 448.6875 80.79379L449.34375 81.30942Q448.54688 82.54379 446.95312 82.54379ZM446.8125 76.85629Q446.15625 76.85629 445.70312 77.34067Q445.26562 77.80942 445.17188 78.66879L448.34375 78.66879L448.34375 78.59067Q448.29688 77.76254 447.89062 77.30942Q447.5 76.85629 446.8125 76.85629Z" fill-rule="nonzero"/><path fill="#b7b7b7" d="M465.5 72.91879C465.5 72.36651 465.94772 71.91879 466.5 71.91879L476.5 71.91879C477.05228 71.91879 477.5 72.36651 477.5 72.91879L477.5 82.91879C477.5 83.47108 477.05228 83.91879 476.5 83.91879L466.5 83.91879C465.94772 83.91879 465.5 83.47108 465.5 82.91879Z" fill-rule="nonzero"/><path fill="#757575" d="M487.625 81.49692L491.67188 81.49692L491.67188 82.41879L486.48438 82.41879L486.48438 73.88754L487.625 73.88754L487.625 81.49692ZM496.23438 82.41879Q496.14062 82.23129 496.07812 81.74692Q495.32812 82.54379 494.28125 82.54379Q493.34375 82.54379 492.73438 82.01254Q492.14062 81.48129 492.14062 80.65317Q492.14062 79.66879 492.89062 79.12192Q493.64062 78.57504 495.01562 78.57504L496.0625 78.57504L496.0625 78.07504Q496.0625 77.51254 495.71875 77.18442Q495.39062 76.84067 494.71875 76.84067Q494.14062 76.84067 493.75 77.13754Q493.35938 77.41879 493.35938 77.84067L492.26562 77.84067Q492.26562 77.35629 492.59375 76.91879Q492.9375 76.48129 493.51562 76.23129Q494.09375 75.96567 494.78125 75.96567Q495.89062 75.96567 496.5 76.51254Q497.125 77.05942 497.15625 78.01254L497.15625 80.93442Q497.15625 81.80942 497.375 82.32504L497.375 82.41879L496.23438 82.41879ZM494.4375 81.59067Q494.95312 81.59067 495.40625 81.32504Q495.85938 81.05942 496.0625 80.63754L496.0625 79.34067L495.21875 79.34067Q493.21875 79.34067 493.21875 80.51254Q493.21875 81.01254 493.5625 81.30942Q493.90625 81.59067 494.4375 81.59067ZM503.01562 80.73129Q503.01562 80.29379 502.67188 80.05942Q502.34375 79.80942 501.51562 79.63754Q500.70312 79.46567 500.21875 79.21567Q499.73438 78.96567 499.5 78.63754Q499.28125 78.29379 499.28125 77.82504Q499.28125 77.04379 499.9375 76.51254Q500.59375 75.96567 501.625 75.96567Q502.70312 75.96567 503.35938 76.52817Q504.03125 77.07504 504.03125 77.93442L502.95312 77.93442Q502.95312 77.49692 502.5625 77.18442Q502.1875 76.85629 501.625 76.85629Q501.03125 76.85629 500.6875 77.12192Q500.35938 77.37192 500.35938 77.77817Q500.35938 78.16879 500.67188 78.37192Q500.98438 78.57504 501.79688 78.76254Q502.60938 78.93442 503.10938 79.18442Q503.60938 79.43442 503.84375 79.79379Q504.09375 80.15317 504.09375 80.65317Q504.09375 81.51254 503.40625 82.02817Q502.73438 82.54379 501.65625 82.54379Q500.89062 82.54379 500.29688 82.27817Q499.71875 81.99692 499.39062 81.51254Q499.0625 81.02817 499.0625 80.46567L500.14062 80.46567Q500.17188 81.01254 500.57812 81.34067Q500.98438 81.65317 501.65625 81.65317Q502.26562 81.65317 502.64062 81.40317Q503.01562 81.15317 503.01562 80.73129ZM506.79688 74.54379L506.79688 76.07504L507.96875 76.07504L507.96875 76.91879L506.79688 76.91879L506.79688 80.84067Q506.79688 81.23129 506.95312 81.41879Q507.10938 81.60629 507.48438 81.60629Q507.67188 81.60629 508.0 81.54379L508.0 82.41879Q507.57812 82.54379 507.17188 82.54379Q506.45312 82.54379 506.07812 82.10629Q505.70312 81.65317 505.70312 80.84067L505.70312 76.91879L504.54688 76.91879L504.54688 76.07504L505.70312 76.07504L505.70312 74.54379L506.79688 74.54379ZM518.5 73.88754L518.5 79.68442Q518.4844 80.88754 517.7344 81.66879Q516.9844 82.43442 515.7031 82.52817L515.3906 82.54379Q514.0 82.54379 513.15625 81.79379Q512.3281 81.02817 512.3281 79.70004L512.3281 73.88754L513.4375 73.88754L513.4375 79.66879Q513.4375 80.59067 513.9375 81.10629Q514.4531 81.62192 515.3906 81.62192Q516.3594 81.62192 516.8594 81.10629Q517.3594 80.59067 517.3594 79.66879L517.3594 73.88754L518.5 73.88754ZM524.0156 80.73129Q524.0156 80.29379 523.6719 80.05942Q523.34375 79.80942 522.5156 79.63754Q521.7031 79.46567 521.21875 79.21567Q520.7344 78.96567 520.5 78.63754Q520.28125 78.29379 520.28125 77.82504Q520.28125 77.04379 520.9375 76.51254Q521.59375 75.96567 522.625 75.96567Q523.7031 75.96567 524.3594 76.52817Q525.03125 77.07504 525.03125 77.93442L523.9531 77.93442Q523.9531 77.49692 523.5625 77.18442Q523.1875 76.85629 522.625 76.85629Q522.03125 76.85629 521.6875 77.12192Q521.3594 77.37192 521.3594 77.77817Q521.3594 78.16879 521.6719 78.37192Q521.9844 78.57504 522.7969 78.76254Q523.6094 78.93442 524.1094 79.18442Q524.6094 79.43442 524.84375 79.79379Q525.09375 80.15317 525.09375 80.65317Q525.09375 81.51254 524.40625 82.02817Q523.7344 82.54379 522.65625 82.54379Q521.8906 82.54379 521.2969 82.27817Q520.71875 81.99692 520.3906 81.51254Q520.0625 81.02817 520.0625 80.46567L521.1406 80.46567Q521.1719 81.01254 521.5781 81.34067Q521.9844 81.65317 522.65625 81.65317Q523.2656 81.65317 523.6406 81.40317Q524.0156 81.15317 524.0156 80.73129ZM528.9531 82.54379Q527.65625 82.54379 526.84375 81.70004Q526.0469 80.84067 526.0469 79.41879L526.0469 79.23129Q526.0469 78.27817 526.40625 77.54379Q526.7656 76.79379 527.40625 76.38754Q528.0625 75.96567 528.8125 75.96567Q530.0469 75.96567 530.7344 76.77817Q531.4219 77.59067 531.4219 79.10629L531.4219 79.55942L527.125 79.55942Q527.15625 80.49692 527.6719 81.07504Q528.2031 81.65317 529.0156 81.65317Q529.5781 81.65317 529.96875 81.41879Q530.375 81.18442 530.6875 80.79379L531.34375 81.30942Q530.5469 82.54379 528.9531 82.54379ZM528.8125 76.85629Q528.15625 76.85629 527.7031 77.34067Q527.2656 77.80942 527.1719 78.66879L530.34375 78.66879L530.34375 78.59067Q530.2969 77.76254 529.8906 77.30942Q529.5 76.85629 528.8125 76.85629ZM532.0625 79.20004Q532.0625 77.73129 532.75 76.85629Q533.4375 75.96567 534.5625 75.96567Q535.6719 75.96567 536.3281 76.71567L536.3281 73.41879L537.40625 73.41879L537.40625 82.41879L536.40625 82.41879L536.3594 81.73129Q535.7031 82.54379 534.5469 82.54379Q533.4531 82.54379 532.75 81.63754Q532.0625 80.73129 532.0625 79.27817L532.0625 79.20004ZM533.1406 79.32504Q533.1406 80.40317 533.5781 81.01254Q534.03125 81.62192 534.8125 81.62192Q535.84375 81.62192 536.3281 80.68442L536.3281 77.77817Q535.84375 76.88754 534.8281 76.88754Q534.03125 76.88754 533.5781 77.49692Q533.1406 78.10629 533.1406 79.32504Z" fill-rule="nonzero"/><path fill="#1e375f" d="M373.23438 39.497963L373.23438 46.185463L370.98438 46.185463L370.98438 29.122963L377.28125 29.122963Q380.07812 29.122963 381.65625 30.560463Q383.25 31.982338 383.25 34.341713Q383.25 36.826088 381.6875 38.169838Q380.14062 39.497963 377.25 39.497963L373.23438 39.497963ZM373.23438 37.669838L377.28125 37.669838Q379.07812 37.669838 380.03125 36.826088Q381.0 35.966713 381.0 34.357338Q381.0 32.841713 380.03125 31.935463Q379.07812 31.013588 377.40625 30.966713L373.23438 30.966713L373.23438 37.669838ZM393.46875 46.185463Q393.28125 45.810463 393.17188 44.841713Q391.65625 46.419838 389.5625 46.419838Q387.6875 46.419838 386.48438 45.357338Q385.28125 44.294838 385.28125 42.669838Q385.28125 40.685463 386.78125 39.591713Q388.29688 38.497963 391.01562 38.497963L393.125 38.497963L393.125 37.497963Q393.125 36.357338 392.4375 35.685463Q391.76562 35.013588 390.45312 35.013588Q389.28125 35.013588 388.5 35.607338Q387.71875 36.185463 387.71875 37.013588L385.53125 37.013588Q385.53125 36.076088 386.20312 35.185463Q386.89062 34.294838 388.03125 33.779213Q389.1875 33.263588 390.57812 33.263588Q392.76562 33.263588 394.0 34.372963Q395.25 35.466713 395.29688 37.388588L395.29688 43.216713Q395.29688 44.966713 395.75 45.997963L395.75 46.185463L393.46875 46.185463ZM389.875 44.529213Q390.89062 44.529213 391.79688 44.013588Q392.71875 43.482338 393.125 42.638588L393.125 40.029213L391.4375 40.029213Q387.45312 40.029213 387.45312 42.357338Q387.45312 43.388588 388.125 43.966713Q388.8125 44.529213 389.875 44.529213ZM406.03125 42.826088Q406.03125 41.935463 405.35938 41.451088Q404.70312 40.966713 403.04688 40.622963Q401.40625 40.263588 400.4375 39.779213Q399.46875 39.279213 399.0 38.607338Q398.54688 37.919838 398.54688 36.982338Q398.54688 35.419838 399.85938 34.341713Q401.1875 33.263588 403.23438 33.263588Q405.39062 33.263588 406.73438 34.388588Q408.07812 35.497963 408.07812 37.232338L405.89062 37.232338Q405.89062 36.341713 405.14062 35.701088Q404.39062 35.044838 403.23438 35.044838Q402.04688 35.044838 401.375 35.560463Q400.71875 36.076088 400.71875 36.919838Q400.71875 37.701088 401.32812 38.107338Q401.95312 38.497963 403.57812 38.857338Q405.20312 39.216713 406.20312 39.732338Q407.21875 40.232338 407.70312 40.951088Q408.1875 41.654213 408.1875 42.669838Q408.1875 44.372963 406.82812 45.404213Q405.46875 46.419838 403.3125 46.419838Q401.78125 46.419838 400.60938 45.888588Q399.4375 45.341713 398.76562 44.372963Q398.10938 43.404213 398.10938 42.279213L400.28125 42.279213Q400.34375 43.372963 401.15625 44.013588Q401.96875 44.654213 403.3125 44.654213Q404.53125 44.654213 405.28125 44.154213Q406.03125 43.654213 406.03125 42.826088ZM413.57812 30.435463L413.57812 33.497963L415.95312 33.497963L415.95312 35.185463L413.57812 35.185463L413.57812 43.044838Q413.57812 43.810463 413.89062 44.185463Q414.21875 44.560463 414.98438 44.560463Q415.35938 44.560463 416.01562 44.419838L416.01562 46.185463Q415.15625 46.419838 414.34375 46.419838Q412.89062 46.419838 412.15625 45.544838Q411.42188 44.654213 411.42188 43.044838L411.42188 35.185463L409.10938 35.185463L409.10938 33.497963L411.42188 33.497963L411.42188 30.435463L413.57812 30.435463ZM434.625 38.294838L427.23438 38.294838L427.23438 44.341713L435.82812 44.341713L435.82812 46.185463L424.98438 46.185463L424.98438 29.122963L435.70312 29.122963L435.70312 30.966713L427.23438 30.966713L427.23438 36.451088L434.625 36.451088L434.625 38.294838ZM442.89062 38.138588L445.70312 33.497963L448.23438 33.497963L444.09375 39.779213L448.375 46.185463L445.85938 46.185463L442.9375 41.435463L440.0 46.185463L437.48438 46.185463L441.76562 39.779213L437.60938 33.497963L440.125 33.497963L442.89062 38.138588ZM461.35938 39.982338Q461.35938 42.872963 460.03125 44.654213Q458.70312 46.419838 456.4375 46.419838Q454.14062 46.419838 452.8125 44.951088L452.8125 51.060463L450.64062 51.060463L450.64062 33.497963L452.625 33.497963L452.73438 34.904213Q454.04688 33.263588 456.40625 33.263588Q458.6875 33.263588 460.01562 34.997963Q461.35938 36.716713 461.35938 39.779213L461.35938 39.982338ZM459.1875 39.732338Q459.1875 37.591713 458.26562 36.357338Q457.35938 35.107338 455.76562 35.107338Q453.79688 35.107338 452.8125 36.857338L452.8125 42.919838Q453.78125 44.654213 455.78125 44.654213Q457.34375 44.654213 458.26562 43.419838Q459.1875 42.169838 459.1875 39.732338ZM468.90625 46.419838Q466.32812 46.419838 464.70312 44.732338Q463.09375 43.029213 463.09375 40.201088L463.09375 39.794838Q463.09375 37.904213 463.8125 36.435463Q464.53125 34.951088 465.82812 34.107338Q467.125 33.263588 468.64062 33.263588Q471.10938 33.263588 472.46875 34.904213Q473.84375 36.529213 473.84375 39.560463L473.84375 40.466713L465.26562 40.466713Q465.3125 42.341713 466.35938 43.497963Q467.40625 44.654213 469.01562 44.654213Q470.17188 44.654213 470.96875 44.185463Q471.76562 43.716713 472.35938 42.935463L473.6875 43.966713Q472.09375 46.419838 468.90625 46.419838ZM468.64062 35.044838Q467.32812 35.044838 466.4375 36.013588Q465.54688 36.966713 465.32812 38.685463L471.6875 38.685463L471.6875 38.513588Q471.59375 36.872963 470.79688 35.966713Q470.0 35.044838 468.64062 35.044838ZM482.76562 35.451088Q482.28125 35.372963 481.70312 35.372963Q479.57812 35.372963 478.8125 37.185463L478.8125 46.185463L476.64062 46.185463L476.64062 33.497963L478.75 33.497963L478.78125 34.966713Q479.85938 33.263588 481.8125 33.263588Q482.4375 33.263588 482.76562 33.435463L482.76562 35.451088ZM487.0 46.185463L484.82812 46.185463L484.82812 33.497963L487.0 33.497963L487.0 46.185463ZM484.65625 30.138588Q484.65625 29.607338 484.96875 29.247963Q485.29688 28.888588 485.92188 28.888588Q486.5625 28.888588 486.89062 29.247963Q487.21875 29.607338 487.21875 30.138588Q487.21875 30.669838 486.89062 31.029213Q486.5625 31.372963 485.92188 31.372963Q485.29688 31.372963 484.96875 31.029213Q484.65625 30.669838 484.65625 30.138588ZM495.90625 46.419838Q493.32812 46.419838 491.70312 44.732338Q490.09375 43.029213 490.09375 40.201088L490.09375 39.794838Q490.09375 37.904213 490.8125 36.435463Q491.53125 34.951088 492.82812 34.107338Q494.125 33.263588 495.64062 33.263588Q498.10938 33.263588 499.46875 34.904213Q500.84375 36.529213 500.84375 39.560463L500.84375 40.466713L492.26562 40.466713Q492.3125 42.341713 493.35938 43.497963Q494.40625 44.654213 496.01562 44.654213Q497.17188 44.654213 497.96875 44.185463Q498.76562 43.716713 499.35938 42.935463L500.6875 43.966713Q499.09375 46.419838 495.90625 46.419838ZM495.64062 35.044838Q494.32812 35.044838 493.4375 36.013588Q492.54688 36.966713 492.32812 38.685463L498.6875 38.685463L498.6875 38.513588Q498.59375 36.872963 497.79688 35.966713Q497.0 35.044838 495.64062 35.044838ZM505.6875 33.497963L505.76562 35.091713Q507.21875 33.263588 509.5625 33.263588Q513.5781 33.263588 513.6094 37.810463L513.6094 46.185463L511.45312 46.185463L511.45312 37.794838Q511.4375 36.419838 510.8125 35.763588Q510.20312 35.107338 508.90625 35.107338Q507.84375 35.107338 507.04688 35.669838Q506.25 36.232338 505.8125 37.154213L505.8125 46.185463L503.64062 46.185463L503.64062 33.497963L505.6875 33.497963ZM521.7344 44.654213Q522.8906 44.654213 523.75 43.951088Q524.625 43.247963 524.71875 42.185463L526.7656 42.185463Q526.7031 43.279213 526.0156 44.263588Q525.3281 45.247963 524.1719 45.841713Q523.0156 46.419838 521.7344 46.419838Q519.1406 46.419838 517.6094 44.701088Q516.0781 42.966713 516.0781 39.966713L516.0781 39.591713Q516.0781 37.747963 516.75 36.310463Q517.4375 34.857338 518.7031 34.060463Q519.9844 33.263588 521.71875 33.263588Q523.84375 33.263588 525.25 34.544838Q526.6719 35.826088 526.7656 37.857338L524.71875 37.857338Q524.625 36.638588 523.78125 35.841713Q522.9531 35.044838 521.71875 35.044838Q520.0625 35.044838 519.15625 36.247963Q518.25 37.435463 518.25 39.685463L518.25 40.091713Q518.25 42.279213 519.1406 43.466713Q520.0469 44.654213 521.7344 44.654213ZM534.90625 46.419838Q532.3281 46.419838 530.7031 44.732338Q529.09375 43.029213 529.09375 40.201088L529.09375 39.794838Q529.09375 37.904213 529.8125 36.435463Q530.53125 34.951088 531.8281 34.107338Q533.125 33.263588 534.6406 33.263588Q537.1094 33.263588 538.46875 34.904213Q539.84375 36.529213 539.84375 39.560463L539.84375 40.466713L531.2656 40.466713Q531.3125 42.341713 532.3594 43.497963Q533.40625 44.654213 535.0156 44.654213Q536.1719 44.654213 536.96875 44.185463Q537.7656 43.716713 538.3594 42.935463L539.6875 43.966713Q538.09375 46.419838 534.90625 46.419838ZM534.6406 35.044838Q533.3281 35.044838 532.4375 36.013588Q531.5469 36.966713 531.3281 38.685463L537.6875 38.685463L537.6875 38.513588Q537.59375 36.872963 536.7969 35.966713Q536.0 35.044838 534.6406 35.044838Z" fill-rule="nonzero"/></svg>